<svg xmlns="http://www.w3.org/2000/svg" width="23.314" height="23.534" viewBox="0 0 23.314 23.534">
  <defs>
    <style>
      .cls-1 {
        fill: #fff;
        stroke: #fff;
        stroke-width: 0.8px;
      }
    </style>
  </defs>
  <g id="noun_Search_2738108" transform="translate(-5.071 -5.006)">
    <g id="noun_notification_2184955" transform="translate(5.471 5.406)">
      <g id="Group_1445" data-name="Group 1445" transform="translate(0 0)">
        <g id="Group_1444" data-name="Group 1444">
          <path id="Path_1502" data-name="Path 1502" class="cls-1" d="M44.585,38.376a2.428,2.428,0,1,1,0,4.856H26.932a2.428,2.428,0,1,1,0-4.856.222.222,0,0,0,.22-.221v-5.3a8.608,8.608,0,0,1,17.216,0v5.3A.219.219,0,0,0,44.585,38.376Zm0,1.324a1.543,1.543,0,0,1-1.544-1.546v-5.3a7.284,7.284,0,0,0-14.568,0v5.3A1.546,1.546,0,0,1,26.929,39.7a1.1,1.1,0,1,0,0,2.207H44.581a1.1,1.1,0,1,0,0-2.207ZM32,43.232h1.324a2.428,2.428,0,1,0,4.856,0h1.324a3.752,3.752,0,1,1-7.5,0Z" transform="translate(-24.5 -24.25)"/>
        </g>
      </g>
    </g>
  </g>
</svg>
