<svg xmlns="http://www.w3.org/2000/svg" width="25.352" height="25.352" viewBox="0 0 25.352 25.352">
    <defs>
        <style>
            .cls-1{fill:#fff}
        </style>
    </defs>
    <g id="Group_6647" transform="translate(-151.375 -148.768)">
        <g id="Group_4881" transform="translate(151.375 148.768)">
            <g id="Group_4854">
                <g id="Group_4853">
                    <g id="Path_2631">
                        <path id="Path_2645" d="M176.019 153.638h-.419v-2.107a1.264 1.264 0 0 0-1.262-1.263h-.842a1.264 1.264 0 0 0-1.261 1.263v2.107h-13.469v-2.107a1.264 1.264 0 0 0-1.263-1.263h-.842a1.264 1.264 0 0 0-1.263 1.263v2.107h-.42a2.106 2.106 0 0 0-2.1 2.1v17.674a2.106 2.106 0 0 0 2.1 2.1h21.04a2.106 2.106 0 0 0 2.1-2.1v-17.673a2.106 2.106 0 0 0-2.099-2.101zm-2.945.421v-2.528a.421.421 0 0 1 .421-.421h.842a.421.421 0 0 1 .421.421v4.208a.421.421 0 0 1-.421.421h-.842a.421.421 0 0 1-.421-.421zm-16.829 0v-2.525a.421.421 0 0 1 .421-.421h.838a.421.421 0 0 1 .421.421v4.208a.421.421 0 0 1-.421.421h-.842a.421.421 0 0 1-.418-.421zm21.041 19.359a1.264 1.264 0 0 1-1.263 1.263h-21.044a1.264 1.264 0 0 1-1.263-1.264v-12.2h23.565zm0-13.045h-23.569v-4.63a1.264 1.264 0 0 1 1.263-1.263h.421v1.263a1.264 1.264 0 0 0 1.262 1.257h.841a1.264 1.264 0 0 0 1.263-1.263v-1.263h13.467v1.263A1.264 1.264 0 0 0 173.5 157h.842a1.264 1.264 0 0 0 1.261-1.263v-1.263h.421a1.264 1.264 0 0 1 1.263 1.263z" class="cls-1" transform="translate(-152.823 -150.217)"/>
                        <path id="Path_2646" d="M174.571 174.12h-21.04a2.161 2.161 0 0 1-2.156-2.156V154.29a2.162 2.162 0 0 1 2.156-2.153h.369v-2.056a1.317 1.317 0 0 1 1.314-1.314h.842a1.318 1.318 0 0 1 1.314 1.314v2.056h13.364v-2.056a1.318 1.318 0 0 1 1.313-1.314h.842a1.318 1.318 0 0 1 1.313 1.314v2.056h.369a2.162 2.162 0 0 1 2.156 2.152v17.674a2.161 2.161 0 0 1-2.156 2.157zm-21.04-21.879a2.059 2.059 0 0 0-2.053 2.05v17.674a2.058 2.058 0 0 0 2.053 2.053h21.04a2.058 2.058 0 0 0 2.053-2.053V154.29a2.059 2.059 0 0 0-2.053-2.05h-.421a.051.051 0 0 1-.051-.051v-2.107a1.214 1.214 0 0 0-1.211-1.211h-.842a1.215 1.215 0 0 0-1.21 1.211v2.107a.051.051 0 0 1-.051.051h-13.467a.051.051 0 0 1-.051-.051v-2.107a1.214 1.214 0 0 0-1.211-1.211h-.842a1.214 1.214 0 0 0-1.214 1.211v2.107a.051.051 0 0 1-.051.051zm21.043 21.039h-21.043a1.317 1.317 0 0 1-1.314-1.315v-12.2a.051.051 0 0 1 .051-.051h23.565a.052.052 0 0 1 .052.051v12.2a1.318 1.318 0 0 1-1.311 1.314zm-22.254-13.468v12.152a1.214 1.214 0 0 0 1.211 1.212h21.043a1.214 1.214 0 0 0 1.211-1.211v-12.153zm23.517-.84h-23.569a.051.051 0 0 1-.051-.051v-4.63a1.317 1.317 0 0 1 1.314-1.314h.421a.051.051 0 0 1 .051.051v1.263a1.214 1.214 0 0 0 1.211 1.211h.841a1.214 1.214 0 0 0 1.211-1.211v-1.263a.051.051 0 0 1 .051-.051h13.467a.051.051 0 0 1 .051.051v1.263a1.214 1.214 0 0 0 1.211 1.211h.842a1.215 1.215 0 0 0 1.209-1.211v-1.263a.051.051 0 0 1 .051-.051h.421a1.318 1.318 0 0 1 1.314 1.314v4.63a.052.052 0 0 1-.051.052zm-23.517-.1h23.466v-4.579a1.214 1.214 0 0 0-1.211-1.211h-.375v1.211a1.318 1.318 0 0 1-1.312 1.314h-.842a1.318 1.318 0 0 1-1.314-1.314v-1.211h-13.363v1.211a1.317 1.317 0 0 1-1.314 1.314h-.841a1.317 1.317 0 0 1-1.314-1.314v-1.211h-.369a1.214 1.214 0 0 0-1.211 1.211zm20.568-4.106h-.842a.473.473 0 0 1-.472-.472v-4.208a.473.473 0 0 1 .472-.472h.842a.473.473 0 0 1 .472.472v4.208a.473.473 0 0 1-.472.468zm-.842-5.05a.37.37 0 0 0-.369.369v4.208a.37.37 0 0 0 .369.369h.842a.37.37 0 0 0 .369-.369v-4.208a.37.37 0 0 0-.369-.369zm-15.991 5.05h-.842a.474.474 0 0 1-.469-.472v-4.208a.473.473 0 0 1 .472-.472h.838a.473.473 0 0 1 .472.472v4.208a.473.473 0 0 1-.471.468zm-.838-5.05a.37.37 0 0 0-.369.369v4.208a.37.37 0 0 0 .366.369h.841a.37.37 0 0 0 .369-.369v-4.208a.37.37 0 0 0-.369-.369z" class="cls-1" transform="translate(-151.375 -148.768)"/>
                    </g>
                </g>
            </g>
            <g id="Group_4856" transform="translate(7.574 5.471)">
                <g id="Group_4855">
                    <g id="Path_2632">
                        <path id="Path_2647" d="M383.236 309.658h-9.258a.42.42 0 0 0-.421.42v2.522a.42.42 0 0 0 .42.421h9.259a.42.42 0 0 0 .421-.42v-2.525a.42.42 0 0 0-.42-.421zm-.421 2.525H374.4V310.5h8.416z" class="cls-1" transform="translate(-373.505 -309.606)"/>
                        <path id="Path_2648" d="M381.788 311.627h-9.258a.472.472 0 0 1-.472-.472v-2.525a.472.472 0 0 1 .472-.472h9.26a.472.472 0 0 1 .471.472v2.524a.473.473 0 0 1-.473.473zm-9.259-3.366a.369.369 0 0 0-.369.368v2.526a.369.369 0 0 0 .368.369h9.26a.369.369 0 0 0 .369-.368v-2.526a.369.369 0 0 0-.368-.369h-9.258zm8.837 2.525h-8.416a.051.051 0 0 1-.051-.051v-1.683a.051.051 0 0 1 .051-.052h8.416a.051.051 0 0 1 .051.052v1.683a.052.052 0 0 1-.051.051zm-8.365-.1h8.313V309.1H373z" class="cls-1" transform="translate(-372.057 -308.158)"/>
                    </g>
                </g>
            </g>
            <g id="Group_4858" transform="translate(2.525 12.204)">
                <g id="Group_4857">
                    <g id="Path_2633">
                        <path id="Path_2649" d="M229.374 505.835h-2.524a.42.42 0 0 0-.421.42v2.1a.42.42 0 0 0 .42.421h2.526a.42.42 0 0 0 .421-.419v-2.1a.42.42 0 0 0-.42-.421zm-.421 2.1h-1.683v-1.263h1.683z" class="cls-1" transform="translate(-226.377 -505.783)"/>
                        <path id="Path_2650" d="M227.927 507.384H225.4a.472.472 0 0 1-.472-.472v-2.1a.472.472 0 0 1 .472-.472h2.527a.472.472 0 0 1 .471.472v2.1a.472.472 0 0 1-.472.472zm-2.526-2.946a.369.369 0 0 0-.369.368v2.105a.369.369 0 0 0 .368.37h2.526a.369.369 0 0 0 .369-.368v-2.106a.369.369 0 0 0-.368-.369H225.4zm2.1 2.1h-1.683a.051.051 0 0 1-.052-.052v-1.263a.052.052 0 0 1 .052-.052h1.683a.051.051 0 0 1 .051.052v1.263a.052.052 0 0 1-.052.056zm-1.631-.1h1.58v-1.16h-1.58z" class="cls-1" transform="translate(-224.929 -504.335)"/>
                    </g>
                </g>
            </g>
            <g id="Group_4860" transform="translate(7.995 12.204)">
                <g id="Group_4859">
                    <g id="Path_2634">
                        <path id="Path_2651" d="M388.764 505.835h-2.524a.42.42 0 0 0-.421.42v2.1a.42.42 0 0 0 .42.421h2.526a.42.42 0 0 0 .421-.419v-2.1a.42.42 0 0 0-.42-.421zm-.421 2.1h-1.683v-1.263h1.683z" class="cls-1" transform="translate(-385.767 -505.783)"/>
                        <path id="Path_2652" d="M387.317 507.384h-2.525a.472.472 0 0 1-.472-.472v-2.1a.472.472 0 0 1 .472-.472h2.527a.472.472 0 0 1 .471.472v2.1a.472.472 0 0 1-.472.472zm-2.526-2.946a.369.369 0 0 0-.369.368v2.105a.369.369 0 0 0 .368.37h2.526a.369.369 0 0 0 .369-.368v-2.106a.369.369 0 0 0-.368-.369h-2.525zm2.1 2.1h-1.684a.051.051 0 0 1-.051-.052v-1.263a.051.051 0 0 1 .051-.052h1.693a.051.051 0 0 1 .051.052v1.263a.051.051 0 0 1-.051.056zm-1.632-.1h1.581v-1.16h-1.581z" class="cls-1" transform="translate(-384.319 -504.335)"/>
                    </g>
                </g>
            </g>
            <g id="Group_4862" transform="translate(13.887 12.204)">
                <g id="Group_4861">
                    <g id="Path_2635">
                        <path id="Path_2653" d="M560.416 505.835h-2.525a.42.42 0 0 0-.421.42v2.1a.42.42 0 0 0 .419.421h2.526a.42.42 0 0 0 .421-.419v-2.1a.42.42 0 0 0-.42-.421zm-.421 2.1h-1.683v-1.263H560z" class="cls-1" transform="translate(-557.42 -505.783)"/>
                        <path id="Path_2654" d="M558.969 507.384h-2.525a.472.472 0 0 1-.472-.472v-2.1a.472.472 0 0 1 .472-.472h2.527a.472.472 0 0 1 .471.472v2.1a.472.472 0 0 1-.472.472zm-2.526-2.946a.369.369 0 0 0-.369.368v2.105a.369.369 0 0 0 .368.37h2.526a.369.369 0 0 0 .369-.368v-2.106a.369.369 0 0 0-.368-.369h-2.525zm2.1 2.1h-1.683a.051.051 0 0 1-.052-.052v-1.263a.051.051 0 0 1 .052-.052h1.683a.052.052 0 0 1 .052.052v1.263a.051.051 0 0 1-.048.056zm-1.632-.1h1.589v-1.16h-1.581z" class="cls-1" transform="translate(-555.971 -504.335)"/>
                    </g>
                </g>
            </g>
            <g id="Group_4864" transform="translate(19.357 12.204)">
                <g id="Group_4863">
                    <g id="Path_2636">
                        <path id="Path_2655" d="M719.806 505.835h-2.525a.42.42 0 0 0-.421.42v2.1a.42.42 0 0 0 .42.421h2.526a.42.42 0 0 0 .421-.419v-2.1a.42.42 0 0 0-.42-.421zm-.421 2.1H717.7v-1.263h1.683z" class="cls-1" transform="translate(-716.81 -505.783)"/>
                        <path id="Path_2656" d="M718.359 507.384h-2.525a.472.472 0 0 1-.472-.472v-2.1a.472.472 0 0 1 .472-.472h2.526a.472.472 0 0 1 .471.472v2.1a.472.472 0 0 1-.472.472zm-2.526-2.946a.369.369 0 0 0-.369.368v2.105a.369.369 0 0 0 .368.37h2.526a.369.369 0 0 0 .369-.368v-2.106a.369.369 0 0 0-.368-.369h-2.525zm2.1 2.1h-1.684a.052.052 0 0 1-.051-.052v-1.263a.052.052 0 0 1 .051-.052h1.684a.051.051 0 0 1 .051.052v1.263a.051.051 0 0 1-.047.056zm-1.632-.1h1.581v-1.16h-1.581z" class="cls-1" transform="translate(-715.361 -504.335)"/>
                    </g>
                </g>
            </g>
            <g id="Group_4866" transform="translate(2.525 16.412)">
                <g id="Group_4865">
                    <g id="Path_2637">
                        <path id="Path_2657" d="M229.374 628.438h-2.524a.42.42 0 0 0-.421.42v2.1a.42.42 0 0 0 .42.421h2.526a.42.42 0 0 0 .421-.419v-2.1a.42.42 0 0 0-.42-.421zm-.421 2.1h-1.683v-1.258h1.683z" class="cls-1" transform="translate(-226.377 -628.387)"/>
                        <path id="Path_2658" d="M227.927 629.987H225.4a.472.472 0 0 1-.472-.472v-2.1a.472.472 0 0 1 .472-.472h2.527a.472.472 0 0 1 .471.473v2.1a.472.472 0 0 1-.472.472zm-2.526-2.946a.369.369 0 0 0-.369.368v2.106a.368.368 0 0 0 .368.369h2.526a.369.369 0 0 0 .369-.368v-2.106a.369.369 0 0 0-.368-.369H225.4zm2.1 2.1h-1.683a.051.051 0 0 1-.052-.052v-1.263a.052.052 0 0 1 .052-.052h1.683a.051.051 0 0 1 .051.052v1.263a.052.052 0 0 1-.052.056zm-1.631-.1h1.58v-1.16h-1.58z" class="cls-1" transform="translate(-224.929 -626.938)"/>
                    </g>
                </g>
            </g>
            <g id="Group_4868" transform="translate(7.995 16.412)">
                <g id="Group_4867">
                    <g id="Path_2638">
                        <path id="Path_2659" d="M388.764 628.438h-2.524a.42.42 0 0 0-.421.42v2.1a.42.42 0 0 0 .42.421h2.526a.42.42 0 0 0 .421-.419v-2.1a.42.42 0 0 0-.42-.421zm-.421 2.1h-1.683v-1.258h1.683z" class="cls-1" transform="translate(-385.767 -628.387)"/>
                        <path id="Path_2660" d="M387.317 629.987h-2.525a.472.472 0 0 1-.472-.472v-2.1a.472.472 0 0 1 .472-.472h2.527a.472.472 0 0 1 .471.473v2.1a.472.472 0 0 1-.472.472zm-2.526-2.946a.369.369 0 0 0-.369.368v2.106a.368.368 0 0 0 .368.369h2.526a.369.369 0 0 0 .369-.368v-2.106a.369.369 0 0 0-.368-.369h-2.525zm2.1 2.1h-1.684a.051.051 0 0 1-.051-.052v-1.263a.051.051 0 0 1 .051-.052h1.693a.051.051 0 0 1 .051.052v1.263a.051.051 0 0 1-.051.056zm-1.632-.1h1.581v-1.16h-1.581z" class="cls-1" transform="translate(-384.319 -626.938)"/>
                    </g>
                </g>
            </g>
            <g id="Group_4870" transform="translate(13.887 16.412)">
                <g id="Group_4869">
                    <g id="Path_2639">
                        <path id="Path_2661" d="M560.416 628.438h-2.525a.42.42 0 0 0-.421.42v2.1a.42.42 0 0 0 .419.421h2.526a.42.42 0 0 0 .421-.419v-2.1a.42.42 0 0 0-.42-.421zm-.421 2.1h-1.683v-1.258H560z" class="cls-1" transform="translate(-557.42 -628.387)"/>
                        <path id="Path_2662" d="M558.969 629.987h-2.525a.472.472 0 0 1-.472-.472v-2.1a.472.472 0 0 1 .472-.472h2.527a.472.472 0 0 1 .471.473v2.1a.472.472 0 0 1-.472.472zm-2.526-2.946a.369.369 0 0 0-.369.368v2.106a.368.368 0 0 0 .368.369h2.526a.368.368 0 0 0 .369-.368v-2.106a.369.369 0 0 0-.368-.369h-2.525zm2.1 2.1h-1.683a.051.051 0 0 1-.052-.052v-1.263a.051.051 0 0 1 .052-.052h1.683a.052.052 0 0 1 .052.052v1.263a.051.051 0 0 1-.048.056zm-1.632-.1h1.589v-1.16h-1.581z" class="cls-1" transform="translate(-555.971 -626.938)"/>
                    </g>
                </g>
            </g>
            <g id="Group_4872" transform="translate(19.357 16.412)">
                <g id="Group_4871">
                    <g id="Path_2640">
                        <path id="Path_2663" d="M719.806 628.438h-2.525a.42.42 0 0 0-.421.42v2.1a.42.42 0 0 0 .42.421h2.526a.42.42 0 0 0 .421-.419v-2.1a.42.42 0 0 0-.42-.421zm-.421 2.1H717.7v-1.258h1.683z" class="cls-1" transform="translate(-716.81 -628.387)"/>
                        <path id="Path_2664" d="M718.359 629.987h-2.525a.472.472 0 0 1-.472-.472v-2.1a.472.472 0 0 1 .472-.472h2.526a.472.472 0 0 1 .471.473v2.1a.472.472 0 0 1-.472.472zm-2.526-2.946a.369.369 0 0 0-.369.368v2.106a.368.368 0 0 0 .368.369h2.526a.369.369 0 0 0 .369-.368v-2.106a.369.369 0 0 0-.368-.369h-2.525zm2.1 2.1h-1.684a.052.052 0 0 1-.051-.052v-1.263a.052.052 0 0 1 .051-.052h1.684a.051.051 0 0 1 .051.052v1.263a.051.051 0 0 1-.047.056zm-1.632-.1h1.581v-1.16h-1.581z" class="cls-1" transform="translate(-715.361 -626.938)"/>
                    </g>
                </g>
            </g>
            <g id="Group_4874" transform="translate(2.525 20.62)">
                <g id="Group_4873">
                    <g id="Path_2641">
                        <path id="Path_2665" d="M229.374 751.041h-2.524a.42.42 0 0 0-.421.42v2.1a.42.42 0 0 0 .42.421h2.526a.42.42 0 0 0 .421-.42v-2.1a.42.42 0 0 0-.42-.421zm-.421 2.1h-1.683v-1.263h1.683z" class="cls-1" transform="translate(-226.377 -750.99)"/>
                        <path id="Path_2666" d="M227.927 752.59H225.4a.472.472 0 0 1-.472-.472v-2.1a.473.473 0 0 1 .472-.472h2.526a.472.472 0 0 1 .471.472v2.1a.472.472 0 0 1-.472.472zm-2.526-2.946a.369.369 0 0 0-.369.368v2.106a.369.369 0 0 0 .368.369h2.526a.369.369 0 0 0 .369-.368v-2.106a.369.369 0 0 0-.368-.369H225.4zm2.1 2.1h-1.683a.051.051 0 0 1-.052-.051v-1.263a.052.052 0 0 1 .052-.051h1.683a.052.052 0 0 1 .051.052v1.269a.051.051 0 0 1-.052.048zm-1.631-.1h1.58v-1.16h-1.58z" class="cls-1" transform="translate(-224.929 -749.541)"/>
                    </g>
                </g>
            </g>
            <g id="Group_4876" transform="translate(7.995 20.62)">
                <g id="Group_4875">
                    <g id="Path_2642">
                        <path id="Path_2667" d="M388.764 751.041h-2.524a.42.42 0 0 0-.421.42v2.1a.42.42 0 0 0 .42.421h2.526a.42.42 0 0 0 .421-.42v-2.1a.42.42 0 0 0-.42-.421zm-.421 2.1h-1.683v-1.263h1.683z" class="cls-1" transform="translate(-385.767 -750.99)"/>
                        <path id="Path_2668" d="M387.317 752.59h-2.525a.472.472 0 0 1-.472-.472v-2.1a.472.472 0 0 1 .472-.472h2.526a.472.472 0 0 1 .471.472v2.1a.472.472 0 0 1-.472.472zm-2.526-2.946a.369.369 0 0 0-.369.368v2.106a.369.369 0 0 0 .368.369h2.526a.369.369 0 0 0 .369-.368v-2.106a.369.369 0 0 0-.368-.369h-2.525zm2.1 2.1h-1.684a.051.051 0 0 1-.051-.051v-1.263a.052.052 0 0 1 .051-.051h1.693a.052.052 0 0 1 .051.051v1.27a.051.051 0 0 1-.051.048zm-1.632-.1h1.581v-1.16h-1.581z" class="cls-1" transform="translate(-384.319 -749.541)"/>
                    </g>
                </g>
            </g>
            <g id="Group_4878" transform="translate(13.589 20.35)">
                <g id="Group_4877">
                    <g id="Path_2643">
                        <path id="Path_2669" d="M552.15 743.187l-1.809 2.171-.937-.937-.595.595 1.262 1.263a.418.418 0 0 0 .3.123h.019a.423.423 0 0 0 .3-.151l2.1-2.525z" class="cls-1" transform="translate(-548.758 -743.135)"/>
                        <path id="Path_2670" d="M548.919 745a.472.472 0 0 1-.333-.139l-1.262-1.262a.051.051 0 0 1 0-.073l.595-.595a.053.053 0 0 1 .073 0l.9.9 1.773-2.128a.051.051 0 0 1 .073-.007l.648.539a.052.052 0 0 1 .018.035.051.051 0 0 1-.012.037l-2.1 2.525a.476.476 0 0 1-.342.169h-.023zm-1.486-1.438l1.226 1.226a.368.368 0 0 0 .26.108h.02a.372.372 0 0 0 .265-.132l2.071-2.485-.568-.473-1.776 2.132a.051.051 0 0 1-.076 0l-.9-.9z" class="cls-1" transform="translate(-547.308 -741.687)"/>
                    </g>
                </g>
            </g>
            <g id="Group_4880" transform="translate(18.639 20.35)">
                <g id="Group_4879">
                    <g id="Path_2644">
                        <path id="Path_2671" d="M699.276 743.187l-1.809 2.171-.937-.937-.595.595 1.263 1.263a.417.417 0 0 0 .3.123h.019a.423.423 0 0 0 .3-.151l2.1-2.525z" class="cls-1" transform="translate(-695.884 -743.135)"/>
                        <path id="Path_2672" d="M696.047 745a.472.472 0 0 1-.333-.139l-1.262-1.262a.051.051 0 0 1 0-.073l.595-.595a.053.053 0 0 1 .073 0l.9.9 1.773-2.128a.051.051 0 0 1 .072-.007l.648.539a.052.052 0 0 1 .018.035.051.051 0 0 1-.012.037l-2.1 2.525a.476.476 0 0 1-.342.169h-.023zm-1.486-1.438l1.226 1.226a.368.368 0 0 0 .26.108h.02a.372.372 0 0 0 .265-.132l2.071-2.485-.568-.473-1.776 2.132a.051.051 0 0 1-.037.018.051.051 0 0 1-.039-.015l-.9-.9z" class="cls-1" transform="translate(-694.436 -741.687)"/>
                    </g>
                </g>
            </g>
        </g>
    </g>
</svg>
