<svg xmlns="http://www.w3.org/2000/svg" width="24" height="23" viewBox="0 0 24 23">
  <defs>
    <style>
      .cls-1, .cls-4 {
        fill: none;
      }

      .cls-1 {
        stroke: #fff;
      }

      .cls-2 {
        fill: #fff;
      }

      .cls-3 {
        stroke: none;
      }
    </style>
  </defs>
  <g id="Group_11580" data-name="Group 11580" transform="translate(0.314 0.09)">
    <g id="Ellipse_167" data-name="Ellipse 167" class="cls-1" transform="translate(-0.314 -0.09)">
      <ellipse class="cls-3" cx="12" cy="11.5" rx="12" ry="11.5"/>
      <ellipse class="cls-4" cx="12" cy="11.5" rx="11.5" ry="11"/>
    </g>
    <g id="Group_5328" data-name="Group 5328" transform="translate(3.461 5.574)">
      <path id="Path_4915" data-name="Path 4915" class="cls-2" d="M11.5,35.514h0a4.51,4.51,0,0,0-3.474,1.6,4.449,4.449,0,0,0-3.474-1.6A4.55,4.55,0,0,0,0,40.065c0,4.307,7.516,8.512,7.821,8.674a.366.366,0,0,0,.406,0c.3-.163,7.821-4.307,7.821-8.674A4.55,4.55,0,0,0,11.5,35.514ZM8.024,47.926C6.846,47.236.813,43.559.813,40.065A3.738,3.738,0,0,1,4.55,36.327a3.657,3.657,0,0,1,3.128,1.686.427.427,0,0,0,.691,0,3.738,3.738,0,0,1,6.866,2.052C15.236,43.6,9.2,47.256,8.024,47.926Z" transform="translate(0 -35.514)"/>
    </g>
  </g>
</svg>
