<svg id="history" xmlns="http://www.w3.org/2000/svg" width="25.453" height="25.453" viewBox="0 0 25.453 25.453">
  <defs>
    <style>
      .cls-1 {
        fill: #fff;
      }
    </style>
  </defs>
  <path id="Path_5135" data-name="Path 5135" class="cls-1" d="M13.721,6.86v5.454l3.62,3.62a.994.994,0,0,1-1.406,1.406L12.024,13.43a.994.994,0,0,1-.291-.7V6.86a.994.994,0,1,1,1.989,0ZM16.637,0H8.816A8.785,8.785,0,0,0,3.035,2.161V.994a.994.994,0,1,0-1.989,0V4.905a1,1,0,0,0,.994.994H5.951a.994.994,0,0,0,0-1.989H4.071A6.85,6.85,0,0,1,8.816,1.989h7.822a6.835,6.835,0,0,1,6.827,6.827v7.822a6.835,6.835,0,0,1-6.827,6.827H8.816a6.835,6.835,0,0,1-6.827-6.827V12.727a.994.994,0,0,0-1.989,0v3.911a8.826,8.826,0,0,0,8.816,8.816h7.822a8.826,8.826,0,0,0,8.816-8.816V8.816A8.826,8.826,0,0,0,16.637,0Z"/>
</svg>
