<svg xmlns="http://www.w3.org/2000/svg" xmlns:xlink="http://www.w3.org/1999/xlink" width="205.501" height="49.828" viewBox="0 0 205.501 49.828">
    <defs>
        <linearGradient id="g52me5wo7a" x1=".232" x2="1.415" y1="-.283" y2="2.047" gradientUnits="objectBoundingBox">
            <stop offset="0" stop-color="#ffe27f"/>
            <stop offset="0" stop-color="#ffd173"/>
            <stop offset=".335" stop-color="#fbda5a"/>
            <stop offset=".625" stop-color="#ce9d2c"/>
            <stop offset="1" stop-color="#fed855"/>
        </linearGradient>
        <linearGradient id="12z6mx6qbb" x1=".183" x2="1.368" y1="-.163" y2="2.183" xlink:href="#g52me5wo7a"/>
        <linearGradient id="mgrfdg479c" x1="-.478" x2="1.008" y1="-3.496" y2="3.279" xlink:href="#g52me5wo7a"/>
        <linearGradient id="wwug0fkpxd" x1="-2.026" x2="1.037" y1="-5.062" y2="1.789" xlink:href="#g52me5wo7a"/>
        <linearGradient id="ygvrqf2rze" x1="-.971" x2="2.307" y1="-2.564" y2="4.258" xlink:href="#g52me5wo7a"/>
        <linearGradient id="tz2kgthegf" x1="-.97" x2="2.098" y1="-2.947" y2="3.915" xlink:href="#g52me5wo7a"/>
        <linearGradient id="nzvx9xvpzg" x1="-1.6" x2="1.541" y1="-4.103" y2="2.756" xlink:href="#g52me5wo7a"/>
        <linearGradient id="qfj1mp4fsh" x1="-2.089" x2="1.398" y1="-4.752" y2="2.104" xlink:href="#g52me5wo7a"/>
        <linearGradient id="wcyr20p78i" x1="-.719" x2="2.483" y1="-2.134" y2="4.712" xlink:href="#g52me5wo7a"/>
        <linearGradient id="fw2z2bkf6j" x1="-1.564" x2="1.523" y1="-4.484" y2="2.372" xlink:href="#g52me5wo7a"/>
        <linearGradient id="x5bien6dvk" x1="-4.618" x2="7.736" y1="-2.342" y2="4.52" xlink:href="#g52me5wo7a"/>
    </defs>
    <g>
        <path fill="url(#g52me5wo7a)" d="M539 573.677l-3.714 12.129c-2.672 8.722-5.359 17.439-8 26.171-.257.852-.587 1.159-1.5 1.125-2.165-.079-4.334-.025-6.612-.025l2.939-9.728-.317-.2-5.694 6.5c-1.979-2.222-3.893-4.4-5.849-6.542-.456-.5-.138-.75.148-1.071 1.614-1.812 3.193-3.657 4.861-5.418.606-.64.557-1.043.074-1.716-4.115-5.739-8.177-11.517-12.3-17.249a1.335 1.335 0 0 1 0-1.889q2.527-3.384 4.918-6.869c.579-.848.833-.928 1.472-.02 4.267 6.057 8.613 12.057 12.876 18.117.605.861.905.8 1.61.145 4.643-4.3 9.329-8.555 14-12.824.283-.259.572-.51.858-.765z" transform="translate(-192.978 -527.936) translate(-285.425 -40.295)"/>
        <path fill="url(#12z6mx6qbb)" d="M426.491 618.153l3.009 9.857c-2.445 0-4.783-.029-7.119.015-.854.016-.817-.593-.972-1.1q-3.485-11.342-6.963-22.686-2.187-7.125-4.372-14.252c-.121-.395-.2-.8-.386-1.558 1.323 1.177 2.388 2.109 3.437 3.06 3.918 3.552 7.841 7.1 11.732 10.677.622.572.918.609 1.432-.141 1.837-2.679 3.778-5.287 5.625-7.959.568-.821.849-.78 1.4.027q2.448 3.6 5.046 7.1a1.193 1.193 0 0 1-.039 1.687c-1.687 2.308-3.3 4.671-5 6.97a1.113 1.113 0 0 0 .087 1.715c4.045 4.463 8.024 8.985 12.066 13.451.6.664.749 1.049.061 1.778-1.544 1.638-2.947 3.407-4.451 5.085-1.3 1.451-.878 1.544-2.272-.051-3.736-4.275-7.436-8.58-11.164-12.861-.29-.336-.478-.86-1.157-.814z" transform="translate(-192.978 -527.936) translate(-216.709 -55.229)"/>
        <path fill="url(#mgrfdg479c)" d="M473.421 781.272c1.679-1.9 3.149-3.473 4.51-5.136a2.452 2.452 0 0 1 2.313-1.048c.929.083 1.872.017 3.112.017-1.875 2.115-3.553 4.018-5.243 5.91-1.486 1.664-1.494 1.66.019 3.368 1.15 1.3 2.339 2.565 3.448 3.9.631.758.916.956 1.4-.17 1.72-4.018 3.573-7.978 5.314-11.988.349-.8.775-1.21 1.629-1.01.884.207 2.065-.624 2.64.651 2.064 4.573 4.09 9.163 6.15 13.737.3.656.132.872-.553.8a2.406 2.406 0 0 0-.65 0c-1.7.3-2.83-.224-3.161-2.041-.143-.785-.686-.96-1.441-.934-1.562.053-3.13.075-4.69-.007-.894-.047-1.435.233-1.6 1.091-.317 1.624-1.335 1.8-2.86 1.968-3.558.4-6.181-.667-8.07-3.706a8.739 8.739 0 0 0-2.261-2.239c0 1.384.039 2.769-.019 4.15-.023.556.391 1.431-.312 1.62a6.07 6.07 0 0 1-2.958-.02c-.348-.084-.2-.529-.2-.813-.008-4.467.007-8.933-.019-13.4 0-.688.223-.868.9-.89 2.612-.086 2.611-.111 2.611 2.551zm14.906 3.124h3.627c.363 0 .764.01.532-.54-.615-1.457-1.251-2.906-1.992-4.623z" transform="translate(-192.978 -527.936) translate(-156.592 -227.132)"/>
        <path fill="url(#wwug0fkpxd)" d="M756.692 790.337a.973.973 0 0 1-.194.078c-3.521.183-3.521.183-5.227-2.906a20.47 20.47 0 0 1-.991-1.824 1.376 1.376 0 0 0-1.5-.911c-2.629.018-2.629-.014-2.629 2.653a8.554 8.554 0 0 0 .013 1.429c.231 1.344-.317 1.7-1.619 1.613-1.825-.118-1.831-.029-1.831-1.887 0-4.076.031-8.152-.023-12.227-.012-.94.279-1.15 1.17-1.13 2.648.058 5.3.011 7.948.024 2.529.013 4.22 1.133 4.709 3.087.639 2.552-.156 4.744-2.309 5.906-.746.4-.522.7-.244 1.177.912 1.572 1.812 3.151 2.714 4.728.021.03.006.078.013.19zm-7.459-8.627h2.464c1.211-.009 1.516-.795 1.524-1.81.009-1.038-.458-1.623-1.557-1.614a38.887 38.887 0 0 1-4.018-.027c-1.305-.126-1.6.353-1.526 1.571.107 1.877.027 1.881 1.945 1.882z" transform="translate(-192.978 -527.936) translate(-358.254 -227.271)"/>
        <path fill="url(#ygvrqf2rze)" d="M332.27 781.046c0 2.714-.042 5.43.022 8.143.022.949-.2 1.273-1.206 1.245-2.25-.062-2.252 0-2.252-2.242 0-3.986.019-7.972-.016-11.958-.007-.765.155-1.035.992-1.041 3.157-.022 3.162-.06 4.713 2.737 1.249 2.253 2.485 4.513 3.956 6.727 0-2.7.051-5.4-.026-8.094-.029-1.048.194-1.426 1.325-1.375 2.132.1 2.135.023 2.135 2.11 0 3.986-.026 7.973.02 11.958.01.887-.233 1.088-1.135 1.2a3.75 3.75 0 0 1-4.482-2.562 77.188 77.188 0 0 0-3.761-6.933z" transform="translate(-192.978 -527.936) translate(-52.294 -227.241)"/>
        <path fill="url(#tz2kgthegf)" d="M398.216 785.944c0 1.214-.02 2.428.009 3.641.014.566-.084.88-.764.864-2.473-.059-4.953.039-7.417-.128-3.011-.2-4.735-1.756-5.463-4.69a11.559 11.559 0 0 1 .138-6.16 5.705 5.705 0 0 1 5.747-4.221c2.257-.046 4.517.031 6.773-.03.841-.023 1.081.271.985 1.039a3.989 3.989 0 0 0 0 1.038c.113.812-.214 1.032-1.013 1.009-2-.057-3.995-.033-5.992-.014a2.99 2.99 0 0 0-3.26 2.553 8.018 8.018 0 0 0-.041 3.862 3.169 3.169 0 0 0 3.316 2.714c.477.024.955.008 1.433.008 2.254 0 2.216 0 2.174-2.292-.013-.726-.271-.912-.909-.826a1.583 1.583 0 0 1-.39 0c-.544-.061-1.333.273-1.585-.185a4.8 4.8 0 0 1-.118-2.421c.011-.419.381-.4.687-.4 1.65 0 3.3.026 4.95-.014.7-.017.757.335.747.882-.023 1.256-.007 2.514-.007 3.771z" transform="translate(-192.978 -527.936) translate(-93.257 -227.268)"/>
        <path fill="url(#nzvx9xvpzg)" d="M588.99 775.243c1.3 0 2.608.046 3.907-.018.813-.04 1.117.233 1.014 1.03a3.98 3.98 0 0 0 0 1.038c.113.824-.247 1.028-1.031 1.012-2.257-.047-4.516-.016-6.774-.016-1 0-1.845.182-1.859 1.45-.013 1.123.453 1.522 1.89 1.566a43.388 43.388 0 0 1 4.683.12 3.645 3.645 0 0 1 3.419 3.613c.283 3.827-1.1 5.343-4.989 5.4-2.344.033-4.691-.032-7.034.026-.875.022-1.175-.261-1.058-1.1a3.781 3.781 0 0 0 0-1.038c-.11-.782.263-.918.959-.906 2.214.039 4.429.018 6.644.012a2.1 2.1 0 0 0 1.782-.607 1.554 1.554 0 0 0 .17-1.6 1.48 1.48 0 0 0-1.478-.877c-1.258-.047-2.518-.019-3.777-.024-3.975-.017-6.084-3.686-4.139-7.194a3.919 3.919 0 0 1 3.634-1.866c1.347-.064 2.691-.021 4.037-.021z" transform="translate(-192.978 -527.936) translate(-238.415 -227.27)"/>
        <path fill="url(#qfj1mp4fsh)" d="M695.771 784.307c-1.173 0-2.347.035-3.518-.012-.789-.032-.856.234-.609.906a3.135 3.135 0 0 0 3.18 2.207c1.432.05 2.869.059 4.3 0 .776-.033 1.153.142 1.016.983a2.979 2.979 0 0 0 0 .908c.136.9-.2 1.207-1.131 1.156-1.776-.1-3.565.014-5.336-.126a5.5 5.5 0 0 1-5.431-4.561 11.13 11.13 0 0 1 .18-6.534 5.7 5.7 0 0 1 5.654-3.991c1.694-.034 3.391.044 5.082-.028.852-.036 1.072.28.981 1.038a4.155 4.155 0 0 0 0 1.039c.109.8-.2 1.047-1.009 1.01-1.474-.068-2.953-.012-4.43-.021a3 3 0 0 0-2.257.833c-.521.529-1.1 1.237-.852 1.925.218.606 1.082.232 1.648.244 1.954.045 3.91.05 5.864 0 .764-.019 1.169.141 1.035.987a2.555 2.555 0 0 0 0 .779c.152.985-.182 1.385-1.241 1.282-1.033-.103-2.083-.024-3.126-.024z" transform="translate(-192.978 -527.936) translate(-317.704 -227.26)"/>
        <path fill="url(#wcyr20p78i)" d="M258.1 781.389c1.615-1.829 3.055-3.359 4.37-4.99a2.835 2.835 0 0 1 2.763-1.24 26.088 26.088 0 0 0 2.835.019c-2.087 2.358-3.958 4.548-5.924 6.65-.682.729-.694 1.16-.01 1.881 1.7 1.79 3.312 3.663 4.954 5.506.276.31.529.642.949 1.156-1.479 0-2.718-.019-3.957.008-.584.012-.822-.409-1.129-.759-1.542-1.759-3.08-3.522-4.851-5.547 0 1.882-.062 3.493.024 5.1.052.97-.217 1.257-1.209 1.229-2.25-.062-2.252-.006-2.252-2.256 0-3.9.035-7.8-.024-11.7-.015-1.011.24-1.331 1.283-1.3 2.176.075 2.178.014 2.178 2.181z" transform="translate(-192.978 -527.936) translate(2.548 -227.203)"/>
        <path fill="url(#fw2z2bkf6j)" d="M641.533 775.239c1.952 0 3.906.036 5.857-.018.782-.022 1.159.171 1.016 1a.726.726 0 0 0 0 .13c.024 1.936.024 1.913-1.876 1.945-1.072.018-2.465-.465-3.13.19s-.184 2.054-.2 3.124c-.031 2.555-.044 5.111.009 7.666.018.861-.15 1.206-1.113 1.188-2.342-.042-2.344.011-2.344-2.294 0-2.9-.049-5.805.026-8.705.027-1.015-.3-1.273-1.246-1.2-.991.081-2-.034-2.991.034-.815.056-1.115-.229-1.009-1.023a3.294 3.294 0 0 0 0-.908c-.134-.912.232-1.184 1.144-1.152 1.95.07 3.905.023 5.857.023z" transform="translate(-192.978 -527.936) translate(-278.277 -227.266)"/>
        <path fill="url(#x5bien6dvk)" d="M311.256 782.749c0 2.209-.045 4.42.022 6.627.027.886-.275 1.083-1.1 1.079-2.353-.011-2.353.023-2.353-2.263 0-3.942.03-7.885-.022-11.826-.012-.92.247-1.161 1.156-1.143 2.3.047 2.3 0 2.3 2.328z" transform="translate(-192.978 -527.936) translate(-36.755 -227.269)"/>
    </g>
</svg>
