<svg xmlns="http://www.w3.org/2000/svg" width="37.396" height="37.396" viewBox="0 0 37.396 37.396">
  <defs>
    <style>
      .cls-1 {
        fill: #fff;
      }
    </style>
  </defs>
  <g id="Group_6676" data-name="Group 6676" transform="translate(546.778 -642.222)">
    <path id="Path_7620" data-name="Path 7620" class="cls-1" d="M-513.411,657.478h-11.227v-4.795l3.648-2.606a1.1,1.1,0,0,0,.459-.891,1.1,1.1,0,0,0-.459-.892l-3.692-2.637a4.036,4.036,0,0,0-3.985-3.434h-14.082a4.034,4.034,0,0,0-4.029,4.029v14.082a4.034,4.034,0,0,0,4.029,4.029h11.226v4.795l-3.648,2.606a1.1,1.1,0,0,0-.459.892,1.1,1.1,0,0,0,.459.891l3.693,2.638a4.036,4.036,0,0,0,3.985,3.434h14.082a4.034,4.034,0,0,0,4.029-4.029V661.507A4.034,4.034,0,0,0-513.411,657.478Zm-29.338,4.694a1.84,1.84,0,0,1-1.838-1.838V646.251a1.84,1.84,0,0,1,1.838-1.838h14.082a1.84,1.84,0,0,1,1.838,1.838,1.1,1.1,0,0,0,.459.892l2.859,2.042-2.859,2.042a1.1,1.1,0,0,0-.459.892v5.359h-.664a4.034,4.034,0,0,0-4.029,4.029v.665Zm31.176,13.417a1.84,1.84,0,0,1-1.838,1.838h-14.082a1.84,1.84,0,0,1-1.838-1.838,1.1,1.1,0,0,0-.459-.891l-2.859-2.042,2.859-2.042a1.1,1.1,0,0,0,.459-.892v-8.214a1.84,1.84,0,0,1,1.838-1.838h14.082a1.84,1.84,0,0,1,1.838,1.838Z"/>
    <g id="Group_6676-2" data-name="Group 6676" transform="translate(-541.321 649.396)">
      <path id="Path_7621" data-name="Path 7621" class="cls-1" d="M-467.725,743h-3.006v1.618h2.768a.659.659,0,0,1,.456.137.466.466,0,0,1,.15.362.484.484,0,0,1-.148.366.644.644,0,0,1-.458.142h-2.768V747.5h3.11a.681.681,0,0,1,.474.146.5.5,0,0,1,.159.389.491.491,0,0,1-.159.38.681.681,0,0,1-.474.146h-3.626a.855.855,0,0,1-.627-.193.863.863,0,0,1-.191-.625v-4.952a1.11,1.11,0,0,1,.085-.47.53.53,0,0,1,.267-.265,1.123,1.123,0,0,1,.465-.083h3.523a.684.684,0,0,1,.474.142.478.478,0,0,1,.155.371.483.483,0,0,1-.155.375A.684.684,0,0,1-467.725,743Z" transform="translate(472.066 -741.864)"/>
      <path id="Path_7622" data-name="Path 7622" class="cls-1" d="M-386.059,741.238l2.566,3.883V741.2a.86.86,0,0,1,.164-.573.554.554,0,0,1,.443-.191.571.571,0,0,1,.454.191.853.853,0,0,1,.166.573v5.181q0,.867-.719.867a.953.953,0,0,1-.324-.052.823.823,0,0,1-.27-.164,1.6,1.6,0,0,1-.234-.263q-.108-.151-.216-.308l-2.5-3.838v3.86a.824.824,0,0,1-.175.571.58.58,0,0,1-.449.193.573.573,0,0,1-.454-.2.839.839,0,0,1-.171-.568V741.4a1.44,1.44,0,0,1,.072-.508.723.723,0,0,1,.283-.33.771.771,0,0,1,.427-.128.74.74,0,0,1,.308.058.744.744,0,0,1,.225.157,1.626,1.626,0,0,1,.2.256Z" transform="translate(393.936 -740.438)"/>
    </g>
    <g id="Group_6677" data-name="Group 6677" transform="translate(-526.694 664.807)">
      <path id="Path_7623" data-name="Path 7623" class="cls-1" d="M-266.887,954.077h-1.456v4.786a.881.881,0,0,1-.184.614.619.619,0,0,1-.476.2.627.627,0,0,1-.483-.2.875.875,0,0,1-.186-.611v-4.786h-1.456a.737.737,0,0,1-.508-.151.511.511,0,0,1-.166-.4.5.5,0,0,1,.173-.4.749.749,0,0,1,.5-.148h4.242a.747.747,0,0,1,.515.153.514.514,0,0,1,.168.4.5.5,0,0,1-.171.4A.755.755,0,0,1-266.887,954.077Z" transform="translate(271.803 -952.864)"/>
      <path id="Path_7624" data-name="Path 7624" class="cls-1" d="M-182.859,952.247v1.887h2.88v-1.887a.882.882,0,0,1,.182-.607.613.613,0,0,1,.479-.2.636.636,0,0,1,.488.2.866.866,0,0,1,.186.609v5.19a.868.868,0,0,1-.189.611.634.634,0,0,1-.485.2.608.608,0,0,1-.481-.2.9.9,0,0,1-.18-.609v-2.215h-2.88v2.215a.868.868,0,0,1-.189.611.634.634,0,0,1-.485.2.608.608,0,0,1-.481-.2.9.9,0,0,1-.18-.609v-5.19a.9.9,0,0,1,.177-.607.61.61,0,0,1,.483-.2.636.636,0,0,1,.487.2A.866.866,0,0,1-182.859,952.247Z" transform="translate(190.593 -951.438)"/>
    </g>
  </g>
</svg>
