<svg xmlns="http://www.w3.org/2000/svg" xmlns:xlink="http://www.w3.org/1999/xlink" width="88.262" height="45.188" viewBox="0 0 88.262 45.188">
  <defs>
    <style>
      .cls-1 {
        fill: url(#linear-gradient);
      }

      .cls-2 {
        fill: url(#linear-gradient-2);
      }

      .cls-3 {
        fill: url(#linear-gradient-3);
      }

      .cls-4 {
        fill: url(#linear-gradient-4);
      }

      .cls-5 {
        fill: url(#linear-gradient-5);
      }

      .cls-6 {
        fill: url(#linear-gradient-6);
      }

      .cls-7 {
        fill: url(#linear-gradient-7);
      }

      .cls-8 {
        fill: url(#linear-gradient-8);
      }

      .cls-9 {
        fill: url(#linear-gradient-9);
      }

      .cls-10 {
        fill: url(#linear-gradient-10);
      }

      .cls-11 {
        fill: url(#linear-gradient-11);
      }
    </style>
    <linearGradient id="linear-gradient" x1="0.232" y1="-0.283" x2="1.415" y2="2.047" gradientUnits="objectBoundingBox">
      <stop offset="0" stop-color="#ffe27f"/>
      <stop offset="0" stop-color="#ffd173"/>
      <stop offset="0.335" stop-color="#fbda5a"/>
      <stop offset="0.625" stop-color="#ce9d2c"/>
      <stop offset="1" stop-color="#fed855"/>
    </linearGradient>
    <linearGradient id="linear-gradient-2" x1="0.183" y1="-0.163" x2="1.368" y2="2.183" xlink:href="#linear-gradient"/>
    <linearGradient id="linear-gradient-3" x1="-0.478" y1="-3.496" x2="1.008" y2="3.279" xlink:href="#linear-gradient"/>
    <linearGradient id="linear-gradient-4" x1="-2.026" y1="-5.062" x2="1.037" y2="1.789" xlink:href="#linear-gradient"/>
    <linearGradient id="linear-gradient-5" x1="-0.971" y1="-2.564" x2="2.307" y2="4.258" xlink:href="#linear-gradient"/>
    <linearGradient id="linear-gradient-6" x1="-0.97" y1="-2.947" x2="2.098" y2="3.915" xlink:href="#linear-gradient"/>
    <linearGradient id="linear-gradient-7" x1="-1.6" y1="-4.103" x2="1.541" y2="2.756" xlink:href="#linear-gradient"/>
    <linearGradient id="linear-gradient-8" x1="-2.089" y1="-4.752" x2="1.398" y2="2.104" xlink:href="#linear-gradient"/>
    <linearGradient id="linear-gradient-9" x1="-0.719" y1="-2.134" x2="2.483" y2="4.712" xlink:href="#linear-gradient"/>
    <linearGradient id="linear-gradient-10" x1="-1.564" y1="-4.484" x2="1.523" y2="2.372" xlink:href="#linear-gradient"/>
    <linearGradient id="linear-gradient-11" x1="-4.618" y1="-2.342" x2="7.736" y2="4.52" xlink:href="#linear-gradient"/>
  </defs>
  <g id="Group_6749" data-name="Group 6749" transform="translate(-155.979 -527.936)">
    <g id="Group_7503" data-name="Group 7503" transform="translate(181.034 527.936)">
      <path id="Path_6252" data-name="Path 6252" class="cls-1" d="M525.349,571.633q-1.16,3.788-2.32,7.576c-1.669,5.448-3.348,10.893-4.995,16.348-.161.532-.366.724-.938.7-1.352-.049-2.707-.016-4.13-.016l1.836-6.076-.2-.122-3.557,4.061c-1.236-1.388-2.432-2.749-3.653-4.086-.285-.312-.086-.468.093-.669,1.008-1.132,1.995-2.284,3.036-3.384.379-.4.348-.652.046-1.072-2.571-3.585-5.108-7.194-7.684-10.775a.834.834,0,0,1,0-1.18q1.579-2.114,3.072-4.29c.362-.53.52-.58.92-.012,2.665,3.783,5.38,7.532,8.043,11.317.378.538.565.5,1.005.091,2.9-2.686,5.827-5.344,8.746-8.01.177-.162.357-.319.536-.478Z" transform="translate(-487.5 -568.231)"/>
      <path id="Path_6253" data-name="Path 6253" class="cls-2" d="M420.184,607l1.879,6.158c-1.527,0-2.988-.018-4.447.01-.534.01-.511-.371-.607-.686q-2.177-7.085-4.35-14.171-1.366-4.451-2.731-8.9c-.075-.247-.125-.5-.241-.973.827.735,1.492,1.318,2.147,1.911,2.447,2.219,4.9,4.433,7.329,6.669.388.358.573.38.894-.088,1.147-1.673,2.36-3.3,3.514-4.972.355-.513.53-.487.873.017q1.529,2.248,3.152,4.432a.745.745,0,0,1-.024,1.054c-1.054,1.441-2.06,2.918-3.12,4.354a.7.7,0,0,0,.054,1.072c2.526,2.788,5.013,5.613,7.537,8.4.375.415.468.655.038,1.111-.965,1.023-1.841,2.129-2.78,3.176-.812.906-.548.964-1.419-.032-2.333-2.67-4.645-5.359-6.974-8.034C420.725,607.3,420.608,606.969,420.184,607Z" transform="translate(-409.687 -585.142)"/>
    </g>
    <g id="Group_7502" data-name="Group 7502" transform="translate(155.979 563.486)">
      <path id="Path_6254" data-name="Path 6254" class="cls-3" d="M472.1,778.931c1.049-1.185,1.967-2.169,2.818-3.208a1.532,1.532,0,0,1,1.445-.655c.58.052,1.169.011,1.944.011-1.172,1.321-2.22,2.51-3.275,3.692-.928,1.039-.933,1.037.012,2.1.718.811,1.461,1.6,2.154,2.435.394.474.572.6.873-.106,1.074-2.51,2.232-4.984,3.319-7.488.218-.5.484-.756,1.017-.631.552.129,1.29-.39,1.649.406,1.289,2.856,2.555,5.724,3.841,8.581.185.41.083.545-.345.5a1.508,1.508,0,0,0-.406,0c-1.059.189-1.768-.14-1.975-1.275-.09-.49-.428-.6-.9-.583-.976.033-1.956.047-2.93,0-.558-.029-.9.145-1,.681-.2,1.014-.834,1.122-1.786,1.229a4.742,4.742,0,0,1-5.041-2.315,5.459,5.459,0,0,0-1.412-1.4c0,.864.024,1.73-.012,2.593-.015.347.244.894-.195,1.012a3.792,3.792,0,0,1-1.847-.012c-.217-.053-.124-.331-.124-.508-.005-2.79,0-5.58-.012-8.37,0-.43.14-.542.559-.556,1.631-.054,1.631-.069,1.631,1.594Zm9.311,1.951h2.266c.227,0,.477.006.332-.338-.384-.91-.781-1.815-1.244-2.888Z" transform="translate(-434.841 -775.034)"/>
      <path id="Path_6255" data-name="Path 6255" class="cls-4" d="M751.436,784.664a.608.608,0,0,1-.121.049c-2.2.115-2.2.114-3.265-1.815a12.792,12.792,0,0,1-.619-1.14.859.859,0,0,0-.937-.569c-1.642.011-1.642-.009-1.642,1.657a5.347,5.347,0,0,0,.008.893c.144.839-.2,1.06-1.011,1.008-1.14-.074-1.144-.018-1.144-1.179,0-2.546.019-5.092-.015-7.638-.008-.587.174-.718.731-.706,1.654.036,3.31.007,4.965.015,1.58.008,2.636.708,2.941,1.928a3.056,3.056,0,0,1-1.442,3.689c-.466.252-.326.436-.153.735.57.982,1.132,1.968,1.7,2.953C751.44,784.564,751.432,784.594,751.436,784.664Zm-4.659-5.389c.513,0,1.026,0,1.539,0,.757-.006.947-.5.952-1.13s-.286-1.014-.973-1.008a24.3,24.3,0,0,1-2.51-.017c-.815-.078-1,.221-.953.981.067,1.172.017,1.175,1.215,1.175Z" transform="translate(-663.2 -775.192)"/>
      <path id="Path_6256" data-name="Path 6256" class="cls-5" d="M330.974,778.845c0,1.7-.026,3.392.014,5.087.014.593-.123.8-.753.778-1.405-.039-1.407,0-1.407-1.4,0-2.49.012-4.98-.01-7.47,0-.478.1-.646.62-.65,1.972-.014,1.975-.037,2.944,1.71.78,1.407,1.552,2.819,2.471,4.2,0-1.686.032-3.372-.016-5.056-.018-.654.121-.89.828-.859C337,775.245,337,775.2,337,776.5c0,2.49-.016,4.98.012,7.47.006.554-.146.679-.709.747a2.343,2.343,0,0,1-2.8-1.6,48.228,48.228,0,0,0-2.35-4.331Z" transform="translate(-316.735 -775.159)"/>
      <path id="Path_6257" data-name="Path 6257" class="cls-6" d="M392.966,781.918c0,.758-.013,1.517.006,2.274.008.353-.053.55-.478.54-1.544-.037-3.094.024-4.633-.08a3.45,3.45,0,0,1-3.412-2.93,7.22,7.22,0,0,1,.086-3.848,3.564,3.564,0,0,1,3.59-2.637c1.41-.029,2.822.019,4.231-.019.525-.014.675.169.615.649a2.488,2.488,0,0,0,0,.648c.071.507-.134.645-.633.63-1.247-.036-2.5-.021-3.743-.009a1.867,1.867,0,0,0-2.036,1.594,5.008,5.008,0,0,0-.026,2.412,1.98,1.98,0,0,0,2.072,1.7c.3.015.6.005.895.005,1.408,0,1.385,0,1.358-1.432-.008-.454-.169-.57-.568-.516a1,1,0,0,1-.244,0c-.34-.038-.833.17-.99-.116a3,3,0,0,1-.073-1.512c.007-.261.238-.249.429-.249,1.031,0,2.062.016,3.092-.009.437-.01.473.21.466.551C392.956,780.347,392.966,781.132,392.966,781.918Z" transform="translate(-363.122 -775.187)"/>
      <path id="Path_6258" data-name="Path 6258" class="cls-7" d="M585.835,775.235c.814,0,1.629.029,2.441-.011.508-.025.7.146.633.643a2.487,2.487,0,0,0,0,.649c.07.515-.155.642-.644.632-1.41-.029-2.821-.01-4.231-.01-.623,0-1.153.114-1.161.905-.008.7.283.951,1.181.978a27.1,27.1,0,0,1,2.925.075,2.276,2.276,0,0,1,2.136,2.257c.177,2.39-.688,3.338-3.117,3.371-1.464.021-2.93-.02-4.394.016-.546.014-.734-.163-.661-.687a2.365,2.365,0,0,0,0-.649c-.069-.488.165-.574.6-.566,1.383.024,2.767.011,4.15.007a1.314,1.314,0,0,0,1.113-.379.97.97,0,0,0,.106-1,.925.925,0,0,0-.923-.548c-.786-.029-1.573-.012-2.36-.015a2.892,2.892,0,0,1-2.586-4.494,2.448,2.448,0,0,1,2.27-1.166C584.152,775.207,584.994,775.235,585.835,775.235Z" transform="translate(-527.496 -775.191)"/>
      <path id="Path_6259" data-name="Path 6259" class="cls-8" d="M692.793,780.892c-.733,0-1.466.022-2.2-.008-.493-.02-.535.146-.38.566a1.959,1.959,0,0,0,1.986,1.378c.894.031,1.792.036,2.686,0,.485-.021.72.089.635.614a1.86,1.86,0,0,0,0,.567c.085.564-.126.754-.706.722-1.109-.06-2.227.009-3.333-.079a3.432,3.432,0,0,1-3.392-2.849,6.953,6.953,0,0,1,.113-4.081,3.557,3.557,0,0,1,3.531-2.493c1.058-.021,2.118.028,3.174-.018.532-.023.669.175.613.649a2.592,2.592,0,0,0,0,.649c.068.5-.125.654-.63.631-.921-.042-1.845-.007-2.767-.013a1.872,1.872,0,0,0-1.41.521c-.325.33-.687.772-.532,1.2.136.379.676.145,1.029.153,1.221.028,2.443.031,3.663,0,.478-.012.73.088.646.617a1.6,1.6,0,0,0,0,.486c.1.615-.114.865-.775.8C694.1,780.843,693.445,780.892,692.793,780.892Z" transform="translate(-617.282 -775.179)"/>
      <path id="Path_6260" data-name="Path 6260" class="cls-9" d="M256.8,779.04c1.009-1.142,1.909-2.1,2.73-3.117a1.771,1.771,0,0,1,1.726-.775,16.273,16.273,0,0,0,1.771.012c-1.3,1.473-2.472,2.841-3.7,4.154-.426.455-.434.725-.006,1.175,1.062,1.118,2.069,2.288,3.095,3.44.173.194.33.4.593.722-.924,0-1.7-.012-2.472.005-.365.008-.514-.256-.705-.474-.963-1.1-1.924-2.2-3.03-3.465,0,1.176-.039,2.182.015,3.183.032.606-.136.785-.755.768-1.406-.039-1.407,0-1.407-1.409,0-2.435.022-4.871-.015-7.306-.009-.631.15-.832.8-.809,1.359.047,1.361.009,1.361,1.362Z" transform="translate(-254.634 -775.115)"/>
      <path id="Path_6261" data-name="Path 6261" class="cls-10" d="M638.9,775.23c1.22,0,2.44.023,3.659-.011.489-.014.724.107.634.622a.45.45,0,0,0,0,.081c.015,1.21.015,1.2-1.172,1.215-.67.011-1.54-.29-1.955.119s-.115,1.283-.123,1.951c-.02,1.6-.027,3.193.005,4.788.011.538-.094.753-.7.742-1.463-.026-1.464.007-1.464-1.433,0-1.813-.031-3.626.016-5.438.017-.634-.186-.795-.779-.747-.619.05-1.248-.022-1.869.021-.509.035-.7-.143-.63-.639a2.056,2.056,0,0,0,0-.567c-.084-.57.145-.739.715-.719C636.455,775.26,637.676,775.23,638.9,775.23Z" transform="translate(-572.634 -775.185)"/>
      <path id="Path_6262" data-name="Path 6262" class="cls-11" d="M309.958,779.923c0,1.38-.028,2.761.014,4.14.017.553-.172.676-.689.674-1.47-.007-1.47.015-1.47-1.414,0-2.463.019-4.925-.014-7.387-.008-.574.154-.726.722-.714,1.437.029,1.438,0,1.438,1.454Z" transform="translate(-299.139 -775.19)"/>
    </g>
  </g>
</svg>
