<svg xmlns="http://www.w3.org/2000/svg" width="24.193" height="24.193" viewBox="0 0 24.193 24.193">
  <defs>
    <style>
      .cls-1 {
        fill: #fdce00;
      }
    </style>
  </defs>
  <g id="Group_7731" data-name="Group 7731" transform="translate(-0.001 0)">
    <g id="Group_7508" data-name="Group 7508" transform="translate(0.001 0)">
      <path id="Path_9556" data-name="Path 9556" class="cls-1" d="M1094.1,545.192a12.1,12.1,0,1,1,12.1-12.1A12.11,12.11,0,0,1,1094.1,545.192Zm0-23A10.906,10.906,0,1,0,1105,533.1,10.919,10.919,0,0,0,1094.1,522.19Z" transform="translate(-1082 -521)"/>
    </g>
    <g id="Group_7509" data-name="Group 7509" transform="translate(2.281 2.28)">
      <path id="Path_9557" data-name="Path 9557" class="cls-1" d="M1103.316,552.132a9.816,9.816,0,1,1,9.816-9.816A9.827,9.827,0,0,1,1103.316,552.132Zm0-19.037a9.221,9.221,0,1,0,9.221,9.221A9.231,9.231,0,0,0,1103.316,533.095Z" transform="translate(-1093.5 -532.5)"/>
    </g>
    <g id="Group_7510" data-name="Group 7510" transform="translate(4.927 6.504)">
      <g id="Path_6252" data-name="Path 6252" transform="translate(5.803)">
        <path id="Path_9558" data-name="Path 9558" class="cls-1" d="M1144.807,555.1q-.445,1.452-.889,2.9c-.64,2.088-1.283,4.175-1.915,6.266-.062.2-.141.278-.36.268-.518-.019-1.038-.006-1.583-.006l.7-2.329-.077-.047-1.364,1.557c-.474-.532-.932-1.054-1.4-1.566-.109-.12-.033-.179.036-.256.387-.434.765-.875,1.164-1.3.145-.153.133-.25.017-.411-.985-1.374-1.958-2.758-2.945-4.13a.32.32,0,0,1,0-.452h0q.606-.81,1.178-1.644c.139-.2.2-.222.353,0,1.021,1.45,2.062,2.887,3.083,4.338.145.206.217.192.385.035,1.112-1.03,2.233-2.049,3.352-3.07.068-.062.137-.122.205-.183Z" transform="translate(-1136.102 -553.8)"/>
      </g>
      <g id="Path_6253" data-name="Path 6253" transform="translate(0 1.264)">
        <path id="Path_9559" data-name="Path 9559" class="cls-1" d="M1110.864,567.288l.72,2.36c-.585,0-1.145-.007-1.7,0-.2,0-.2-.142-.233-.263q-.835-2.715-1.667-5.432l-1.047-3.411c-.029-.095-.048-.192-.093-.373.317.282.572.505.823.733.938.85,1.878,1.7,2.809,2.556.149.137.22.146.343-.034.44-.641.9-1.265,1.347-1.906.136-.2.2-.187.335.007q.586.862,1.208,1.7a.286.286,0,0,1-.009.4h0c-.4.552-.79,1.119-1.2,1.669a.269.269,0,0,0,.021.411c.968,1.069,1.922,2.151,2.889,3.22.144.159.18.251.015.426-.37.392-.706.816-1.066,1.217-.311.347-.21.369-.544-.012-.894-1.023-1.78-2.054-2.673-3.079C1111.072,567.4,1111.027,567.276,1110.864,567.288Z" transform="translate(-1106.841 -560.173)"/>
      </g>
    </g>
  </g>
</svg>
