<svg xmlns="http://www.w3.org/2000/svg" width="119.689" height="120.996" viewBox="0 0 119.689 120.996">
  <defs>
    <style>
      .cls-1 {
        fill: #f5404b;
      }
    </style>
  </defs>
  <g id="Group_7715" data-name="Group 7715" transform="translate(0)">
    <path id="Path_9765" data-name="Path 9765" class="cls-1" d="M-484.622,362.409a2.018,2.018,0,0,1,.948-2.14,12.226,12.226,0,0,0,5.811-7.7,11.834,11.834,0,0,0-1.655-9.482,1.956,1.956,0,0,1,.155-2.314,13.835,13.835,0,0,0,.855-1.125,2.018,2.018,0,0,0-.037-2.328,2.016,2.016,0,0,0-2.2-.743l-12.993,3.9-79.089,23.742-13,3.9a2.018,2.018,0,0,0-1.431,1.838,2.016,2.016,0,0,0,1.255,1.961,13.972,13.972,0,0,0,1.33.467,1.955,1.955,0,0,1,1.406,1.847,11.833,11.833,0,0,0,3.838,8.828,12.243,12.243,0,0,0,9.073,3.224,2.02,2.02,0,0,1,2,1.292,12.15,12.15,0,0,0,5.637,6.492c.329.177.665.34,1.013.485a12.371,12.371,0,0,0,9.691-.068,2.052,2.052,0,0,1,2.312.517,12.18,12.18,0,0,0,8.644,4.3,12.4,12.4,0,0,0,9.124-3.334,2.075,2.075,0,0,1,2.394-.278,12.518,12.518,0,0,0,9.594,1.075,12.342,12.342,0,0,0,7.413-6.159,2.109,2.109,0,0,1,2.167-1.095,12.417,12.417,0,0,0,9.44-2.249,12.17,12.17,0,0,0,4.839-8.327,2.061,2.061,0,0,1,1.665-1.727,12.394,12.394,0,0,0,8.113-5.288A12.159,12.159,0,0,0-484.622,362.409Zm-40.55,16.985a42.078,42.078,0,0,1-43.61-12.173l4.391-1.32a38.579,38.579,0,0,0,8.989,6.744,38.284,38.284,0,0,0,34.322.871,38.287,38.287,0,0,0,21.22-26.992l4.37-1.312A42.089,42.089,0,0,1-525.172,379.394Zm20.863-31.528a34.205,34.205,0,0,1-23.18,23.807,34.2,34.2,0,0,1-32.458-7.108Zm9.207,25.364a6.079,6.079,0,0,0-4.992,5.22,8.019,8.019,0,0,1-3.227,5.569,8.363,8.363,0,0,1-6.347,1.528,6.125,6.125,0,0,0-6.461,3.217,8.267,8.267,0,0,1-4.9,4.127,8.263,8.263,0,0,1-6.379-.614l-.238-.128a6.123,6.123,0,0,0-7.062.909,8.344,8.344,0,0,1-6.14,2.228,8.026,8.026,0,0,1-5.779-2.881,6.069,6.069,0,0,0-7.014-1.595,8.307,8.307,0,0,1-6.5.042,8.043,8.043,0,0,1-4.419-4.625A5.915,5.915,0,0,0-567.352,383a6.113,6.113,0,0,0-3.252-.72,8.082,8.082,0,0,1-6.086-2.158,7.847,7.847,0,0,1-2.546-5.85,5.918,5.918,0,0,0-1.171-3.548l7.392-2.231a46.368,46.368,0,0,0,48.993,14.771,46.368,46.368,0,0,0,32.755-39.314l7.414-2.226a5.9,5.9,0,0,0,.978,3.6,7.869,7.869,0,0,1,1.1,6.287,8.093,8.093,0,0,1-3.905,5.16,6.011,6.011,0,0,0-2.859,6.591,8.089,8.089,0,0,1-1.129,6.314,8.307,8.307,0,0,1-5.439,3.551Z" transform="translate(597.196 -278.328)"/>
    <path id="Path_9766" data-name="Path 9766" class="cls-1" d="M-619,153.527a12.225,12.225,0,0,0-5.807,7.7,11.834,11.834,0,0,0,1.651,9.481,1.955,1.955,0,0,1-.155,2.314,13.549,13.549,0,0,0-.855,1.125,2.019,2.019,0,0,0,.036,2.327,2.018,2.018,0,0,0,2.205.744l12.992-3.9,79.1-23.745,12.988-3.9a2.015,2.015,0,0,0,1.431-1.837,2.015,2.015,0,0,0-1.255-1.962,13.98,13.98,0,0,0-1.33-.466,1.955,1.955,0,0,1-1.406-1.847,11.836,11.836,0,0,0-3.833-8.825,12.215,12.215,0,0,0-9.073-3.224,2.016,2.016,0,0,1-2-1.291,12.117,12.117,0,0,0-6.647-6.983,12.37,12.37,0,0,0-9.691.068,2.056,2.056,0,0,1-2.312-.516,12.17,12.17,0,0,0-8.644-4.3,12.414,12.414,0,0,0-9.125,3.335,1.972,1.972,0,0,1-2.395.278,12.476,12.476,0,0,0-9.594-1.082,12.341,12.341,0,0,0-7.413,6.168,2.112,2.112,0,0,1-2.167,1.095,12.42,12.42,0,0,0-9.44,2.249,12.173,12.173,0,0,0-4.839,8.328,2.063,2.063,0,0,1-1.665,1.727,12.4,12.4,0,0,0-8.113,5.288,12.161,12.161,0,0,0-1.685,9.515A2.016,2.016,0,0,1-619,153.527Zm41.5-19.123a42.086,42.086,0,0,1,43.61,12.173l-4.375,1.321a38.23,38.23,0,0,0-38.07-9.63,38.228,38.228,0,0,0-26.474,29l-4.385,1.317A42.091,42.091,0,0,1-577.5,134.4Zm-20.862,31.529a34.2,34.2,0,0,1,23.18-23.81,34.2,34.2,0,0,1,32.46,7.11Zm-9.208-25.365a6.077,6.077,0,0,0,4.992-5.219,8.022,8.022,0,0,1,3.226-5.57,8.368,8.368,0,0,1,6.347-1.528,6.126,6.126,0,0,0,6.463-3.219,8.268,8.268,0,0,1,4.9-4.128,8.266,8.266,0,0,1,6.38.615l.238.128a6.123,6.123,0,0,0,7.061-.91,8.353,8.353,0,0,1,6.146-2.221,8.026,8.026,0,0,1,5.779,2.881,6.067,6.067,0,0,0,7.011,1.6,8.31,8.31,0,0,1,6.5-.041,8.037,8.037,0,0,1,4.419,4.625,6.026,6.026,0,0,0,6.043,3.952,8.093,8.093,0,0,1,6.085,2.158,7.849,7.849,0,0,1,2.546,5.85,5.915,5.915,0,0,0,1.171,3.548l-7.411,2.228a46.355,46.355,0,0,0-48.993-14.779A46.356,46.356,0,0,0-611.41,169.86l-7.409,2.217a5.9,5.9,0,0,0-.979-3.6,7.87,7.87,0,0,1-1.1-6.287,8.089,8.089,0,0,1,3.9-5.16,6.014,6.014,0,0,0,2.861-6.592A8.078,8.078,0,0,1-613,144.12a8.306,8.306,0,0,1,5.439-3.551Z" transform="translate(625.163 -114.469)"/>
    <g id="Group_7714" data-name="Group 7714" transform="translate(18.093 42.197)">
      <path id="Path_9767" data-name="Path 9767" class="cls-1" d="M-542.535,353.859a4.729,4.729,0,0,0,3-2.228,5.273,5.273,0,0,0,.117-4.068l-3.287-11.048,4.226-1.257,3.279,11.02q1.2,4.023-.57,6.647a10.316,10.316,0,0,1-5.9,3.853,10.313,10.313,0,0,1-7.043,0q-2.915-1.232-4.111-5.254L-556.1,340.5l4.226-1.257,3.287,11.047a5.275,5.275,0,0,0,2.321,3.343A4.732,4.732,0,0,0-542.535,353.859Z" transform="translate(556.1 -319.615)"/>
      <path id="Path_9768" data-name="Path 9768" class="cls-1" d="M-456.193,337.524a19.366,19.366,0,0,1-4.012.788,14.254,14.254,0,0,1-3.4-.114l.2-3.239a15.859,15.859,0,0,0,2.928.148,12.1,12.1,0,0,0,3.057-.49,7.366,7.366,0,0,0,2.936-1.548,2.109,2.109,0,0,0,.7-2.292,1.678,1.678,0,0,0-.694-.963,3.444,3.444,0,0,0-1.237-.472,8.271,8.271,0,0,0-1.6-.139l-1.785.006q-1.09.025-2.346-.036a9.491,9.491,0,0,1-2.408-.423,5.94,5.94,0,0,1-2.072-1.138,4.4,4.4,0,0,1-1.339-2.181,4.815,4.815,0,0,1-.151-2.114,4.424,4.424,0,0,1,.9-2.037,7.645,7.645,0,0,1,2.082-1.8,14.055,14.055,0,0,1,3.392-1.444,18.459,18.459,0,0,1,3.487-.708,14.976,14.976,0,0,1,3.213.034l-.253,3.074a15.621,15.621,0,0,0-2.781.048,14.176,14.176,0,0,0-2.545.487,5.915,5.915,0,0,0-2.721,1.44,1.764,1.764,0,0,0-.508,1.741,1.779,1.779,0,0,0,.681.982,3.3,3.3,0,0,0,1.177.5,7.848,7.848,0,0,0,1.5.182q.821.025,1.667.014,1.269-.018,2.6.052a9.993,9.993,0,0,1,2.5.44,5.917,5.917,0,0,1,2.073,1.138,4.364,4.364,0,0,1,1.31,2.144,4.691,4.691,0,0,1,.088,2.613,5.586,5.586,0,0,1-1.215,2.221,8.388,8.388,0,0,1-2.281,1.789A15.739,15.739,0,0,1-456.193,337.524Z" transform="translate(490.684 -306.327)"/>
      <path id="Path_9769" data-name="Path 9769" class="cls-1" d="M-397.516,296.15l14.239-4.237.9,3.031-10.143,3.018,1.352,4.546,9.525-2.834.9,3.03-9.525,2.834,1.467,4.931,10.338-3.076.9,3.03-14.434,4.295Z" transform="translate(439.061 -287.624)"/>
      <path id="Path_9770" data-name="Path 9770" class="cls-1" d="M-304.269,282.252q1.377,4.628-.8,7.854t-7.633,4.85l-6.827,2.031-5.525-18.569,6.827-2.031q5.461-1.625,9.039-.126A8.7,8.7,0,0,1-304.269,282.252Zm-4.226,1.258a7.649,7.649,0,0,0-1.328-2.679,4.974,4.974,0,0,0-1.947-1.49,5.843,5.843,0,0,0-2.51-.408,12.406,12.406,0,0,0-3.024.54l-2.6.774,3.689,12.4,2.6-.774a11.487,11.487,0,0,0,2.819-1.229,5.8,5.8,0,0,0,1.858-1.782,5.317,5.317,0,0,0,.8-2.367A7.756,7.756,0,0,0-308.5,283.51Z" transform="translate(385.579 -275.543)"/>
    </g>
  </g>
</svg>
