<svg id="Icon_Waiting_Gray" data-name="Icon/Waiting/Gray" xmlns="http://www.w3.org/2000/svg" width="28.047" height="28.044" viewBox="0 0 28.047 28.044">
  <defs>
    <style>
      .cls-1 {
        fill: #fff;
      }
    </style>
  </defs>
  <g id="Group_158" data-name="Group 158">
    <path id="Path_171" data-name="Path 171" class="cls-1" d="M-423.266,477.905a14.447,14.447,0,0,0-1.451-.072h-.015a1.46,1.46,0,0,0-1.436,1.473v5.781a1.373,1.373,0,0,0,.116.566,1.445,1.445,0,0,0,1.512.874,1.5,1.5,0,0,0,1.273-1.506v-4.19a11.125,11.125,0,0,1,9.673,10.711,11.125,11.125,0,0,1-9.041,11.249,11.125,11.125,0,0,1-12.541-7.143,11.126,11.126,0,0,1,5.063-13.515,1.44,1.44,0,0,0,.618-1.811l0,0a1.453,1.453,0,0,0-.864-.816,1.454,1.454,0,0,0-1.184.1,14.023,14.023,0,0,0-6.321,17.128A14.022,14.022,0,0,0-421.9,505.59a14.022,14.022,0,0,0,11.187-14.428A14.023,14.023,0,0,0-423.266,477.905Z" transform="translate(438.741 -477.833)"/>
    <path id="Path_172" data-name="Path 172" class="cls-1" d="M-329.32,587.9a21.889,21.889,0,0,0,3.082,5.274,1.961,1.961,0,0,0,2.685.238,1.9,1.9,0,0,0,.678-1.373,1.9,1.9,0,0,0-.555-1.427,20.637,20.637,0,0,0-5.4-3.2.379.379,0,0,0-.4.088A.379.379,0,0,0-329.32,587.9Z" transform="translate(338.811 -577.911)"/>
  </g>
</svg>
