<svg xmlns="http://www.w3.org/2000/svg" width="28.095" height="27.061" viewBox="0 0 28.095 27.061">
  <defs>
    <style>
      .cls-1 {
        fill: #fff;
      }
    </style>
  </defs>
  <g id="Group_7521" data-name="Group 7521" transform="translate(-300 -170)">
    <g id="Group_7520" data-name="Group 7520">
      <g id="Icon_Wallet_Topup" data-name="Icon/Wallet Topup" transform="translate(300 170)">
        <g id="Group_11" data-name="Group 11">
          <path id="Path_30" data-name="Path 30" class="cls-1" d="M2334.737,381.6a2.468,2.468,0,0,0-1.744-.884c-.129-.011-.26-.009-.39-.009q-3.475,0-6.949,0a.722.722,0,0,1-.369-.095q-3.145-1.755-6.293-3.5c-.181-.1-.373-.181-.559-.27h-.576a.217.217,0,0,1-.063.041,1.486,1.486,0,0,0-1.006.778c-.532.957-1.067,1.911-1.593,2.871a.3.3,0,0,1-.3.178,11.629,11.629,0,0,0-1.868.039,2.406,2.406,0,0,0-1.962,1.659,2.874,2.874,0,0,0-.147.989c0,1.768,0,3.536.005,5.3,0,.168-.035.225-.211.215-.287-.016-.575,0-.863-.007-.117,0-.171.02-.17.156q.006,3.022,0,6.045c0,.119.04.153.155.15.281-.007.563.01.842-.007.191-.012.25.031.249.238-.01,1.549,0,3.1-.006,4.646a2.523,2.523,0,0,0,2.038,2.571c.046.01.1,0,.131.046h14.3c-.014-.031-.029-.062-.042-.094q-.211-.446-.4-.9-6.7,0-13.409,0a1.89,1.89,0,0,1-.468-.045,1.473,1.473,0,0,1-1.144-1.527c0-1.577,0-3.154-.005-4.73,0-.165.046-.2.2-.2,1.118.007,2.235.006,3.353,0a3.048,3.048,0,0,0,2.286-.949,3.218,3.218,0,0,0,.8-2.874,3.019,3.019,0,0,0-2.773-2.5c-1.219-.036-2.44-.02-3.66-.016-.175,0-.213-.05-.212-.217.006-1.481.009-2.962,0-4.442,0-.208.061-.238.249-.238q10.088.008,20.175,0a1.1,1.1,0,0,0,.326-.031.476.476,0,0,0,.346-.369.461.461,0,0,0-.151-.463.617.617,0,0,0-.458-.139c-.74,0-1.481-.015-2.221.006a1.806,1.806,0,0,1-1.027-.259c-.6-.362-1.224-.689-1.837-1.03l.017-.041h.1q2.654,0,5.306,0a1.509,1.509,0,0,1,1.6,1.6q0,4.685,0,9.37c.332.017.662.049.992.091q0-4.7,0-9.39A2.613,2.613,0,0,0,2334.737,381.6Zm-19.239,8.31a2.163,2.163,0,0,1,1.869,3.242,1.976,1.976,0,0,1-1.879,1.1c-.74,0-1.481,0-2.221,0-.808,0-1.617,0-2.425,0-.125,0-.178-.019-.178-.166q.01-2,0-4.009c0-.125.018-.18.166-.179C2312.386,389.909,2313.942,389.891,2315.5,389.91Zm-1.647-6.966a.164.164,0,0,1-.171.081c-.534,0-1.067,0-1.6,0-.13,0-.136-.038-.115-.154a1.48,1.48,0,0,1,1.4-1.168c.375-.016.752,0,1.169,0C2314.3,382.136,2314.071,382.539,2313.85,382.944Zm13.7.07h-12.595c.053-.1.09-.175.129-.245q1.261-2.269,2.524-4.538a.557.557,0,0,1,.9-.256l8.749,4.868C2327.335,382.891,2327.419,382.941,2327.547,383.015Z" transform="translate(-2309.674 -376.842)"/>
          <path id="Path_31" data-name="Path 31" class="cls-1" d="M2340.906,479.6a1.094,1.094,0,1,0,1.069-1.126A1.1,1.1,0,0,0,2340.906,479.6Z" transform="translate(-2336.546 -464.292)"/>
        </g>
        <g id="Group_12" data-name="Group 12" transform="translate(17.384 16.349)">
          <path id="Path_32" data-name="Path 32" class="cls-1" d="M2439.583,504.69a5.356,5.356,0,1,1,5.356-5.356A5.362,5.362,0,0,1,2439.583,504.69Zm0-9.734a4.379,4.379,0,1,0,4.379,4.379A4.384,4.384,0,0,0,2439.583,494.956Z" transform="translate(-2434.228 -493.979)"/>
        </g>
        <g id="Group_13" data-name="Group 13" transform="translate(20.874 19.584)">
          <path id="Path_33" data-name="Path 33" class="cls-1" d="M2461.779,517.152v1.811h1.736v.781h-1.736v1.827h-.814v-1.827h-1.736v-.781h1.736v-1.811Z" transform="translate(-2459.229 -517.152)"/>
        </g>
      </g>
    </g>
  </g>
</svg>
