<svg width="16" height="16" viewBox="0 0 16 16" fill="none" xmlns="http://www.w3.org/2000/svg">
<path fill-rule="evenodd" clip-rule="evenodd" d="M7.15625 0.6875C7.15625 0.6875 8.47194 0.6875 9.67435 1.19608C9.67435 1.19608 10.8353 1.68712 11.7303 2.58215C11.7303 2.58215 12.6254 3.47718 13.1164 4.63815C13.1164 4.63815 13.625 5.84056 13.625 7.15625C13.625 7.15625 13.625 8.47194 13.1164 9.67435C13.1164 9.67435 12.6254 10.8353 11.7303 11.7303C11.7303 11.7303 10.8353 12.6254 9.67435 13.1164C9.67435 13.1164 8.47194 13.625 7.15625 13.625C7.15625 13.625 5.84056 13.625 4.63815 13.1164C4.63815 13.1164 3.47718 12.6254 2.58215 11.7303C2.58215 11.7303 1.68712 10.8353 1.19608 9.67435C1.19608 9.67435 0.6875 8.47194 0.6875 7.15625C0.6875 7.15625 0.6875 5.84056 1.19608 4.63815C1.19608 4.63815 1.68712 3.47718 2.58215 2.58215C2.58215 2.58215 3.47718 1.68713 4.63815 1.19608C4.63815 1.19608 5.84056 0.6875 7.15625 0.6875ZM7.15625 1.8125C7.15625 1.8125 6.06869 1.8125 5.07639 2.23221C5.07639 2.23221 4.11752 2.63778 3.37765 3.37765C3.37765 3.37765 2.63778 4.11752 2.23221 5.07639C2.23221 5.07639 1.8125 6.06869 1.8125 7.15625C1.8125 7.15625 1.8125 8.24381 2.23221 9.23611C2.23221 9.23611 2.63778 10.195 3.37765 10.9349C3.37765 10.9349 4.11752 11.6747 5.07639 12.0803C5.07639 12.0803 6.0687 12.5 7.15625 12.5C7.15625 12.5 8.2438 12.5 9.23611 12.0803C9.23611 12.0803 10.195 11.6747 10.9349 10.9349C10.9349 10.9349 11.6747 10.195 12.0803 9.23611C12.0803 9.23611 12.5 8.2438 12.5 7.15625C12.5 7.15625 12.5 6.0687 12.0803 5.07639C12.0803 5.07639 11.6747 4.11752 10.9349 3.37765C10.9349 3.37765 10.195 2.63778 9.23611 2.23221C9.23611 2.23221 8.24381 1.8125 7.15625 1.8125Z" fill="#9DA3AE"/>
<path d="M14.352 15.1475C14.4575 15.253 14.6008 15.3125 14.75 15.3125C14.8992 15.3125 15.0423 15.2533 15.1478 15.1478C15.2533 15.0423 15.3125 14.8992 15.3125 14.75C15.3125 14.6008 15.2533 14.4578 15.1478 14.3523L11.7307 10.9352C11.6251 10.8296 11.482 10.7703 11.3328 10.7703C11.1837 10.7703 11.0403 10.8294 10.9349 10.9349C10.8294 11.0403 10.7703 11.1837 10.7703 11.3328C10.7703 11.482 10.8296 11.6251 10.9351 11.7306L14.352 15.1475Z" fill="#9DA3AE"/>
</svg>
