<svg xmlns="http://www.w3.org/2000/svg" xmlns:xlink="http://www.w3.org/1999/xlink" viewBox="0 0 116.73 130.91"><defs><style>.cls-1{fill:url(#New_Gradient_Swatch_5);}.cls-2{fill:url(#New_Gradient_Swatch_5-2);}.cls-3{fill:url(#New_Gradient_Swatch_5-3);}</style><linearGradient id="New_Gradient_Swatch_5" x1="58.97" y1="-9.54" x2="54.89" y2="149.74" gradientUnits="userSpaceOnUse"><stop offset="0" stop-color="#dd0680"/><stop offset="1" stop-color="#299fd7"/></linearGradient><linearGradient id="New_Gradient_Swatch_5-2" x1="61.49" y1="-9.48" x2="57.4" y2="149.8" xlink:href="#New_Gradient_Swatch_5"/><linearGradient id="New_Gradient_Swatch_5-3" x1="59.08" y1="-9.54" x2="55" y2="149.74" xlink:href="#New_Gradient_Swatch_5"/></defs><g id="Layer_2" data-name="Layer 2"><g id="Layer_1-2" data-name="Layer 1"><path class="cls-1" d="M68.34,11.41C68.15.22,58.47,0,58.47,0h-.21s-9.68.21-9.87,11.4S49.65,30,51.91,39.53s5.28,17,5.59,19.29.37,3,.84,3.09v0h0v0c.47-.06.53-.88.84-3.09s3.33-9.75,5.59-19.29S68.65,22.65,68.34,11.41Z"/><path class="cls-2" d="M44.43,112.28A13.94,13.94,0,1,0,58.37,98.35,13.95,13.95,0,0,0,44.43,112.28ZM66.8,113l-11.28,6.51a1.2,1.2,0,0,1-1.8-1v-13a1.2,1.2,0,0,1,1.8-1l11.28,6.51A1.19,1.19,0,0,1,66.8,113Z"/><path class="cls-3" d="M113.35,17.82c-1.51,0-22.69-.9-37.55,13.66-9.44,9.43-17.07,25.9-16.87,40.86,0,5.38,0,10.57,0,15.5a.6.6,0,0,1-1.09.07c0-5,0-10.16,0-15.57.2-15-7.43-31.43-16.87-40.86C26.07,16.92,4.89,17.82,3.38,17.82s-3.81-.1-3.31,1S2.28,20.73,4.19,22,15,26.66,31.59,41.72c19.81,18.84,19.45,49,19,53.67a18.63,18.63,0,1,0,15.49,0c-.42-4.72-.78-34.83,19-53.67C101.7,26.66,110.63,23.34,112.54,22s3.62-2.11,4.12-3.21S114.85,17.82,113.35,17.82Zm-40,94.46a15,15,0,1,1-14.95-15A15,15,0,0,1,73.32,112.28Z"/></g></g></svg>