<svg xmlns="http://www.w3.org/2000/svg" xmlns:xlink="http://www.w3.org/1999/xlink" viewBox="0 0 326.15 130.91"><defs><style>.cls-1{fill:url(#New_Gradient_Swatch_5);}.cls-2{fill:url(#New_Gradient_Swatch_5-2);}.cls-3{fill:url(#New_Gradient_Swatch_5-3);}.cls-4{fill:#fff;}</style><linearGradient id="New_Gradient_Swatch_5" x1="58.97" y1="-9.54" x2="54.89" y2="149.74" gradientUnits="userSpaceOnUse"><stop offset="0" stop-color="#dd0680"/><stop offset="1" stop-color="#299fd7"/></linearGradient><linearGradient id="New_Gradient_Swatch_5-2" x1="61.49" y1="-9.48" x2="57.4" y2="149.8" xlink:href="#New_Gradient_Swatch_5"/><linearGradient id="New_Gradient_Swatch_5-3" x1="59.08" y1="-9.54" x2="55" y2="149.74" xlink:href="#New_Gradient_Swatch_5"/></defs><g id="Layer_2" data-name="Layer 2"><g id="Layer_1-2" data-name="Layer 1"><path class="cls-1" d="M68.34,11.41C68.15.22,58.47,0,58.47,0h-.21s-9.68.21-9.87,11.4S49.65,30,51.91,39.53s5.28,17,5.59,19.29.37,3,.84,3.09v0h0v0c.47-.06.53-.88.84-3.09s3.33-9.75,5.59-19.29S68.65,22.65,68.34,11.41Z"/><path class="cls-2" d="M44.43,112.28A13.94,13.94,0,1,0,58.37,98.35,13.95,13.95,0,0,0,44.43,112.28ZM66.8,113l-11.28,6.51a1.2,1.2,0,0,1-1.8-1v-13a1.2,1.2,0,0,1,1.8-1l11.28,6.51A1.19,1.19,0,0,1,66.8,113Z"/><path class="cls-3" d="M113.35,17.82c-1.51,0-22.69-.9-37.55,13.66-9.44,9.43-17.07,25.9-16.87,40.86,0,5.38,0,10.57,0,15.5a.6.6,0,0,1-1.09.07c0-5,0-10.16,0-15.57.2-15-7.43-31.43-16.87-40.86C26.07,16.92,4.89,17.82,3.38,17.82s-3.81-.1-3.31,1S2.28,20.73,4.19,22,15,26.66,31.59,41.72c19.81,18.84,19.45,49,19,53.67a18.63,18.63,0,1,0,15.49,0c-.42-4.72-.78-34.83,19-53.67C101.7,26.66,110.63,23.34,112.54,22s3.62-2.11,4.12-3.21S114.85,17.82,113.35,17.82Zm-40,94.46a15,15,0,1,1-14.95-15A15,15,0,0,1,73.32,112.28Z"/><path class="cls-4" d="M96.18,76.83a12.93,12.93,0,0,0,.55,4,10,10,0,0,0,1.51,3A9.61,9.61,0,0,0,100.53,86a13.17,13.17,0,0,0,2.87,1.47,17.07,17.07,0,0,0,3.24.81,24.44,24.44,0,0,0,3.44.24,18.84,18.84,0,0,0,2.73-.21,17,17,0,0,0,2.8-.67,13.8,13.8,0,0,0,2.62-1.2,9.28,9.28,0,0,0,2.2-1.79,8.11,8.11,0,0,0,1.5-2.45,8.55,8.55,0,0,0,.55-3.18,7.69,7.69,0,0,0-.41-2.59,7.25,7.25,0,0,0-1.12-2,7.69,7.69,0,0,0-1.64-1.53,13.35,13.35,0,0,0-2-1.13A15.75,15.75,0,0,0,115.2,71c-.73-.23-1.43-.42-2.1-.58L104,68.24a18.26,18.26,0,0,1-3.39-1.14,10.56,10.56,0,0,1-2.92-1.92,8.9,8.9,0,0,1-2.06-2.88,9.56,9.56,0,0,1-.78-4,13.34,13.34,0,0,1,.23-2.3,10.56,10.56,0,0,1,.81-2.59,11.48,11.48,0,0,1,1.57-2.55A10.14,10.14,0,0,1,100,48.61,13.24,13.24,0,0,1,103.67,47a19.13,19.13,0,0,1,5-.58,17.71,17.71,0,0,1,5.39.8,14.12,14.12,0,0,1,4.56,2.36,13,13,0,0,1,3.31,3.88,13.93,13.93,0,0,1,1.62,5.34h-2.69a10.79,10.79,0,0,0-4.21-7.38,11.88,11.88,0,0,0-3.7-1.89,14.27,14.27,0,0,0-4.28-.64,15,15,0,0,0-4.34.61,10.6,10.6,0,0,0-3.55,1.79,8.47,8.47,0,0,0-2.41,2.93,8.74,8.74,0,0,0-.89,4,7.17,7.17,0,0,0,.57,3,6.14,6.14,0,0,0,1.54,2.13,8.75,8.75,0,0,0,2.26,1.45,15.36,15.36,0,0,0,2.73.92l9.87,2.38a25.32,25.32,0,0,1,4.08,1.34,12.47,12.47,0,0,1,3.39,2.09,9.5,9.5,0,0,1,2.31,3.1,10,10,0,0,1,.85,4.3c0,.34,0,.78-.07,1.31A11.46,11.46,0,0,1,124.7,82a12.84,12.84,0,0,1-.69,2,10.25,10.25,0,0,1-1.23,2,11.08,11.08,0,0,1-1.91,1.9,11.74,11.74,0,0,1-2.74,1.58,18.39,18.39,0,0,1-3.69,1.07,25.53,25.53,0,0,1-4.81.41,23.68,23.68,0,0,1-6.35-.82,14,14,0,0,1-5.06-2.55,12,12,0,0,1-3.38-4.39,15.19,15.19,0,0,1-1.26-6.35Z"/><path class="cls-4" d="M133.2,47.4h2.69v19h26.3v-19h2.68V90h-2.68V68.86h-26.3V90H133.2Z"/><path class="cls-4" d="M172.93,68.71a30.79,30.79,0,0,1,.53-5.71,26.22,26.22,0,0,1,1.59-5.27,20.72,20.72,0,0,1,2.66-4.54,16.95,16.95,0,0,1,8.52-5.9,21.28,21.28,0,0,1,11.77,0,17.25,17.25,0,0,1,4.8,2.33,16.9,16.9,0,0,1,3.74,3.57,20.72,20.72,0,0,1,2.66,4.54A25.58,25.58,0,0,1,210.78,63a30.41,30.41,0,0,1,0,11.41,25.3,25.3,0,0,1-1.58,5.24,21,21,0,0,1-2.66,4.54,16.46,16.46,0,0,1-3.74,3.57A17.55,17.55,0,0,1,198,90.1a21,21,0,0,1-11.77,0,17.22,17.22,0,0,1-4.79-2.34,16.41,16.41,0,0,1-3.73-3.57,21,21,0,0,1-2.66-4.54,25.94,25.94,0,0,1-1.59-5.24A30.6,30.6,0,0,1,172.93,68.71Zm2.69,0a28.58,28.58,0,0,0,.44,5,23.55,23.55,0,0,0,1.35,4.65,18.53,18.53,0,0,0,2.26,4.07,15,15,0,0,0,3.19,3.23A14.61,14.61,0,0,0,187,87.78a17.41,17.41,0,0,0,10.24,0,14.48,14.48,0,0,0,4.14-2.13,14.86,14.86,0,0,0,3.2-3.23,19,19,0,0,0,2.26-4.07,22.87,22.87,0,0,0,1.34-4.65,27.65,27.65,0,0,0,.45-5,27.26,27.26,0,0,0-.45-4.94,23,23,0,0,0-1.34-4.64A19.34,19.34,0,0,0,204.58,55a14.78,14.78,0,0,0-3.2-3.26,14.55,14.55,0,0,0-4.14-2.16,17.29,17.29,0,0,0-10.27,0,14.48,14.48,0,0,0-4.15,2.16A15,15,0,0,0,179.63,55a19.27,19.27,0,0,0-2.24,4.09,23.63,23.63,0,0,0-1.34,4.64A28.17,28.17,0,0,0,175.62,68.71Z"/><path class="cls-4" d="M219.37,47.4h18.5a15.7,15.7,0,0,1,4.69.69,11.27,11.27,0,0,1,3.89,2.07,9.87,9.87,0,0,1,2.66,3.41,10.73,10.73,0,0,1,1,4.7,20.18,20.18,0,0,1-.26,3.19,10.15,10.15,0,0,1-1,3.08,9.65,9.65,0,0,1-2.19,2.76,12.86,12.86,0,0,1-3.74,2.24A8.19,8.19,0,0,1,246,71.86a12.23,12.23,0,0,1,1.93,3.32,18.47,18.47,0,0,1,1,3.83c.21,1.35.36,2.64.44,3.89s.19,2.27.35,3.48a20.62,20.62,0,0,0,.85,3.62h-2.65a14.21,14.21,0,0,1-.42-1.55c-.12-.53-.21-1-.28-1.56s-.13-1-.17-1.47-.08-.9-.11-1.3q-.12-1.77-.36-3.45a22.43,22.43,0,0,0-.67-3.17,13.94,13.94,0,0,0-1.12-2.73,7.38,7.38,0,0,0-1.74-2.14,7.69,7.69,0,0,0-2.52-1.4,10.84,10.84,0,0,0-3.46-.5h-15V90h-2.69Zm2.69,21h15.11a12.19,12.19,0,0,0,3.86-.62A10,10,0,0,0,244.3,66a8.6,8.6,0,0,0,3.1-6.83,11.17,11.17,0,0,0-.64-3.91,7.65,7.65,0,0,0-1.89-2.94,8.23,8.23,0,0,0-3.09-1.85,13.05,13.05,0,0,0-4.25-.64H222.06Z"/><path class="cls-4" d="M259.19,47.4h27.66v2.47h-25V66.75h23.32v2.47H261.87V87.53h25.24V90H259.19Z"/><path class="cls-4" d="M290.16,90l17.26-42.6h2.09L326.15,90h-3l-5.22-13.77H298.59L293.18,90Zm9.27-16h17.62l-8.63-22.57Z"/><path class="cls-4" d="M133.2,90.66l.08,38.15h-6.74l-.07-27.52c-.83,2.37-1.65,4.69-2.47,7s-1.62,4.57-2.44,6.85-1.63,4.53-2.45,6.8l-2.49,6.89h-5.78l-10-27.6,0,27.6H94.2l-.08-38.15h9l10.49,29.87,10.54-29.87Z"/><path class="cls-4" d="M172.49,114.82a18.45,18.45,0,0,1-1,6.47,12,12,0,0,1-3.06,4.61,12.89,12.89,0,0,1-4.93,2.76,22,22,0,0,1-6.67.93,24.78,24.78,0,0,1-6.88-.87,13.13,13.13,0,0,1-5.08-2.68,11.53,11.53,0,0,1-3.15-4.6,18.52,18.52,0,0,1-1.07-6.62l-.06-24.16h6.73l0,24.16q0,4.56,2.38,6.81t7.15,2.25q4.44,0,6.67-2.25t2.26-6.81l-.06-24.16h6.74Z"/><path class="cls-4" d="M200.38,99.24a6.3,6.3,0,0,0-1.69-2.2,6.54,6.54,0,0,0-2.46-1.18,13.18,13.18,0,0,0-3.22-.35,14,14,0,0,0-2.76.27,7.82,7.82,0,0,0-2.4.91,4.94,4.94,0,0,0-1.71,1.66,4.75,4.75,0,0,0-.65,2.56,3,3,0,0,0,.75,2.1,6.08,6.08,0,0,0,2,1.43,15.93,15.93,0,0,0,2.93,1c1.11.27,2.28.53,3.5.78s2.32.5,3.5.76a30.52,30.52,0,0,1,3.41,1,19.13,19.13,0,0,1,3.08,1.39,10,10,0,0,1,2.5,2,8.79,8.79,0,0,1,1.67,2.8,10.78,10.78,0,0,1,.61,3.82,10.65,10.65,0,0,1-.64,3.81,10.19,10.19,0,0,1-1.74,3,11,11,0,0,1-2.6,2.2,15.66,15.66,0,0,1-3.21,1.48,20.64,20.64,0,0,1-3.57.84,27.49,27.49,0,0,1-8-.07,17.69,17.69,0,0,1-3.85-1.05,14.2,14.2,0,0,1-3.26-1.83,11.1,11.1,0,0,1-2.51-2.69,12.79,12.79,0,0,1-1.61-3.63,17.31,17.31,0,0,1-.57-4.63h6.39a9.09,9.09,0,0,0,.78,4,7.15,7.15,0,0,0,2.13,2.65,8.58,8.58,0,0,0,3.14,1.47,16.19,16.19,0,0,0,3.82.44,22,22,0,0,0,3.14-.23,8.9,8.9,0,0,0,2.78-.89,5.56,5.56,0,0,0,2-1.78,5,5,0,0,0,.77-2.88,3.93,3.93,0,0,0-.41-1.75,4.47,4.47,0,0,0-1.07-1.35,6.93,6.93,0,0,0-1.61-1,15.73,15.73,0,0,0-2-.77c-.74-.23-1.53-.43-2.36-.6l-2.55-.54c-1.13-.23-2.26-.47-3.4-.73a31.53,31.53,0,0,1-3.25-.94,17.4,17.4,0,0,1-2.9-1.31,9.25,9.25,0,0,1-2.34-1.84,8,8,0,0,1-1.56-2.54,9.34,9.34,0,0,1-.58-3.42,10.77,10.77,0,0,1,.58-3.59,10.23,10.23,0,0,1,1.56-2.9,10.35,10.35,0,0,1,2.36-2.21,14.28,14.28,0,0,1,3-1.56,17.71,17.71,0,0,1,3.4-.92,22.13,22.13,0,0,1,9.29.41,11.94,11.94,0,0,1,4.45,2.26,10.93,10.93,0,0,1,3,4,16.09,16.09,0,0,1,1.29,5.86h-6.42A10.74,10.74,0,0,0,200.38,99.24Z"/><path class="cls-4" d="M242.24,90.66v5.78H221.35l.09,9.93h19.37l0,5.8H221.41l0,10.93h21l0,5.71H214.73l-.08-38.15Z"/></g></g></svg>