<svg width="113" height="61" viewBox="0 0 113 61" fill="none" xmlns="http://www.w3.org/2000/svg">
<g clip-path="url(#clip0_12_42)">
<path d="M73.84 32.1301C76.25 31.5501 78.71 30.9201 81.19 30.6501C85.9 30.1501 91.31 30.1901 95.28 33.0401C96.49 33.9101 97.77 34.9601 98.54 36.2201C99.2 37.3101 99.51 38.6401 99.17 39.8601C98.51 42.2301 95.89 42.7001 93.66 42.4901C90.65 42.2101 87.66 41.5601 84.89 40.3901C82.12 39.2201 79.78 37.5001 77.64 35.5501C76.38 34.4001 75.14 33.2201 73.84 32.1201" fill="url(#paint0_linear_12_42)"/>
<path d="M93.61 12.6598C92.8 12.8998 91.99 13.1498 91.2 13.4398C87.25 14.8698 83.53 16.9098 79.88 18.9698C75.42 21.4898 71.39 24.6698 67.23 27.6398C62.68 24.7998 57.3 23.8598 52.04 23.2998C40.11 22.0398 26.72 22.3798 16.63 29.7098C15.28 27.6298 14.38 25.1498 13.79 22.6698C12.66 17.9698 15.15 12.4198 18.65 9.29977C19.65 8.40977 20.66 7.70977 21.83 7.04977C34.34 -0.0502329 49.45 -0.940233 63.47 0.709767C74.16 1.95977 84.08 6.91977 93.15 12.4698" fill="url(#paint1_linear_12_42)"/>
<path d="M99.59 40.8601C100.06 40.0701 100.53 39.2901 101 38.5001C104.68 32.3101 108.69 26.1901 111.77 19.6701C112.23 18.6901 112.68 17.8801 112.6 16.7701C112.53 15.7801 112.14 14.8101 111.53 14.0401C109.87 11.9301 106.66 11.7201 104.19 11.6101C101.27 11.4801 98.33 11.8801 95.53 12.6901C89.77 14.3401 84.39 17.1001 79.36 20.3201C71.59 25.2901 64.26 30.8901 56.51 35.8901C58.39 35.4301 60.88 34.7101 63.65 33.9401C68.03 32.7301 72.4 31.4901 76.86 30.6001C81.27 29.7201 85.82 28.9601 90.28 29.8801C90.81 29.9901 91.34 30.1201 91.85 30.2901C95.84 31.5801 101.87 35.7901 99.72 40.6301" fill="url(#paint2_linear_12_42)"/>
<path d="M50.45 37.3098C43.24 38.1798 35.52 38.0998 28.46 36.2698C24.93 35.3498 21.48 33.8398 18.68 31.4598C16.03 29.2098 14.67 25.6698 13.87 22.3798C13.16 19.4298 13.78 16.0598 15.93 12.5498H15.91L15.59 13.0198C10.76 20.1998 5.93001 27.3798 1.09001 34.5598C-0.239994 36.5298 -0.119994 37.8298 0.210006 40.0698C0.350006 41.0398 0.510006 42.0098 0.730006 42.9698C1.74001 47.3898 3.59001 51.6698 7.04001 54.7298C10.41 57.7298 14.71 59.6898 19.19 60.2298C29.53 61.4798 37.16 54.9298 44.45 48.6898C49.62 44.2698 55.92 39.2898 60.9 34.6598C56.17 35.9698 52.06 37.0998 50.44 37.2998L50.45 37.3098Z" fill="url(#paint3_linear_12_42)"/>
</g>
<defs>
<linearGradient id="paint0_linear_12_42" x1="91.9" y1="44.9001" x2="82.63" y2="27.4601" gradientUnits="userSpaceOnUse">
<stop stop-color="white"/>
<stop offset="0.13" stop-color="#E6E6E6"/>
<stop offset="0.41" stop-color="#BABABA"/>
<stop offset="0.65" stop-color="#9A9A9A"/>
<stop offset="0.86" stop-color="#878787"/>
<stop offset="1" stop-color="#808080"/>
</linearGradient>
<linearGradient id="paint1_linear_12_42" x1="70.78" y1="36.3098" x2="30.27" y2="-2.81023" gradientUnits="userSpaceOnUse">
<stop stop-color="#ECECEC"/>
<stop offset="1" stop-color="#1A1A1A"/>
</linearGradient>
<linearGradient id="paint2_linear_12_42" x1="112.61" y1="26.2201" x2="56.5" y2="26.2201" gradientUnits="userSpaceOnUse">
<stop stop-color="#C6C6C6"/>
<stop offset="0.05" stop-color="#BABABA"/>
<stop offset="0.29" stop-color="#818181"/>
<stop offset="0.52" stop-color="#545454"/>
<stop offset="0.72" stop-color="#343434"/>
<stop offset="0.88" stop-color="#212121"/>
<stop offset="1" stop-color="#1A1A1A"/>
</linearGradient>
<linearGradient id="paint3_linear_12_42" x1="6.35115e-06" y1="36.4698" x2="60.91" y2="36.4698" gradientUnits="userSpaceOnUse">
<stop stop-color="#C6C6C6"/>
<stop offset="0.05" stop-color="#BABABA"/>
<stop offset="0.29" stop-color="#818181"/>
<stop offset="0.52" stop-color="#545454"/>
<stop offset="0.72" stop-color="#343434"/>
<stop offset="0.88" stop-color="#212121"/>
<stop offset="1" stop-color="#1A1A1A"/>
</linearGradient>
<clipPath id="clip0_12_42">
<rect width="112.61" height="60.4" fill="white"/>
</clipPath>
</defs>
</svg>
