<svg width="20" height="20" viewBox="0 0 20 20" fill="none" xmlns="http://www.w3.org/2000/svg">
<path opacity="0.59" d="M19.17 18.26L13.81 12.89C14.87 11.62 15.5 10 15.5 8.23C15.5 4.19 12.19 0.910004 8.10996 0.910004C4.02996 0.910004 0.709961 4.2 0.709961 8.23C0.709961 12.26 4.01996 15.55 8.09996 15.55C9.82996 15.55 11.42 14.96 12.69 13.96L18.07 19.34C18.38 19.65 18.85 19.65 19.17 19.34C19.48 19.03 19.48 18.56 19.17 18.24V18.26ZM2.28996 8.24C2.28996 5.07 4.89996 2.49 8.10996 2.49C11.32 2.49 13.93 5.07 13.93 8.24C13.93 11.41 11.32 13.99 8.10996 13.99C4.89996 13.99 2.28996 11.41 2.28996 8.24Z" fill="#ABABAB"/>
</svg>
