<svg width="101" height="33" viewBox="0 0 101 33" fill="none" xmlns="http://www.w3.org/2000/svg">
<path d="M29.95 32.43H23.26L12.02 13.63L8.23 32.43H0L6.51 0H13.24L24.48 18.84L28.23 0H36.46L29.95 32.43ZM23.83 31.43H29.13L35.24 1H29.05L24.96 21.58L12.67 1H7.33L1.22 31.43H7.41L11.55 10.9L23.83 31.43Z" fill="white"/>
<path d="M44.78 32.43H36.41L42.92 0H67.78L66.36 6.84H49.87L48.4 14.15H63.05L61.63 20.99H47.08L44.78 32.44V32.43ZM37.63 31.43H43.96L46.26 19.98H60.82L61.83 15.14H47.19L49.06 5.83H65.56L66.57 0.99H43.76L37.65 31.42L37.63 31.43Z" fill="white"/>
<path d="M83.57 32.43H75.25L80.34 6.93H70.24L71.66 0H100.17L98.75 6.93H88.7L83.56 32.43H83.57ZM76.47 31.43H82.75L87.89 5.93H97.94L98.95 1H72.48L71.47 5.93H81.56L76.47 31.43Z" fill="white"/>
</svg>
