<svg width="1467" height="446" viewBox="0 0 1467 446" fill="none" xmlns="http://www.w3.org/2000/svg">
<path d="M524.57 270.31H496.38L484.42 249.13H475.92L471.62 270.31H445L461.74 186.59H497.43C508.02 186.59 516.41 189 522.36 193.74C528.45 198.6 531.54 205.41 531.54 213.98C531.54 221.02 529.8 227.27 526.38 232.55C522.96 237.82 518.08 241.95 511.88 244.83C511.4 245.05 510.9 245.27 510.36 245.49L524.56 270.3L524.57 270.31ZM498.72 266.31H517.68L504.54 243.36L506.81 242.57C508.11 242.12 509.22 241.67 510.21 241.22C515.72 238.66 520.04 235.02 523.04 230.39C526.04 225.77 527.56 220.26 527.56 214C527.56 206.6 525.05 201.01 519.89 196.89C514.66 192.72 507.11 190.61 497.45 190.61H465.02L449.88 266.31H468.35L472.65 245.13H486.75L498.71 266.31H498.72ZM491.18 231.59H475.37L480.8 204.36H494.14C498.57 204.36 502.09 205.27 504.59 207.07C507.3 209.02 508.67 212.07 508.67 216.15C508.67 221.15 507.07 225.03 503.92 227.7C500.87 230.28 496.58 231.59 491.18 231.59ZM480.24 227.59H491.18C495.61 227.59 499.02 226.6 501.33 224.65C503.57 222.75 504.66 219.98 504.66 216.16C504.66 213.4 503.87 211.49 502.25 210.33C500.44 209.03 497.71 208.37 494.14 208.37H484.08L480.24 227.6V227.59Z" fill="white"/>
<path d="M616.13 270.31H548.05L564.8 186.59H631.29L626.95 208.13H586.87L584.99 217.45H620.35L616.26 238.19H580.82L578.69 248.77H620.48L616.15 270.31H616.13ZM552.93 266.31H612.85L615.57 252.77H573.78L577.52 234.19H612.95L615.46 221.45H580.08L583.57 204.13H623.65L626.38 190.59H568.06L552.92 266.3L552.93 266.31Z" fill="white"/>
<path d="M675.53 271.9C670.88 271.9 666.36 271.51 662.08 270.73C657.81 269.95 653.86 268.89 650.34 267.56C646.81 266.23 643.75 264.75 641.22 263.17L639.65 262.19L650.38 241.69L652.2 242.8C654.83 244.41 657.58 245.79 660.39 246.92C663.18 248.05 666.07 248.91 668.97 249.49C671.86 250.07 674.83 250.36 677.8 250.36C680.4 250.36 682.64 250.08 684.45 249.53C686.15 249.02 687.44 248.34 688.31 247.5C689.02 246.81 689.35 246.08 689.35 245.18C689.35 244.66 689.21 243.96 688.09 243.17C686.86 242.31 685.2 241.56 683.14 240.95C680.92 240.28 678.4 239.6 675.66 238.93C672.82 238.23 669.94 237.32 667.11 236.24C664.21 235.13 661.5 233.71 659.06 232.03C656.51 230.27 654.45 228.04 652.93 225.4C651.39 222.71 650.62 219.34 650.62 215.35C650.62 209.25 652.32 203.83 655.68 199.25C659 194.72 663.75 191.16 669.8 188.67C675.75 186.23 682.88 184.99 691 184.99C696.75 184.99 702.23 185.6 707.29 186.81C712.41 188.03 716.9 189.82 720.63 192.12L722.18 193.08L712.05 213.62L710.15 212.34C707.31 210.42 704.08 208.96 700.55 208C696.98 207.03 693.27 206.53 689.52 206.53C686.63 206.53 684.19 206.84 682.28 207.46C680.48 208.04 679.11 208.8 678.21 209.74C677.43 210.55 677.07 211.35 677.07 212.28C677.07 212.86 677.21 213.62 678.32 214.4C679.54 215.26 681.22 216 683.32 216.62C685.6 217.29 688.13 218 690.84 218.71C693.61 219.44 696.44 220.32 699.26 221.32C702.17 222.36 704.88 223.69 707.32 225.29C709.87 226.97 711.97 229.13 713.57 231.73C715.2 234.39 716.03 237.7 716.03 241.54C716.03 247.65 714.29 253.07 710.85 257.66C707.46 262.19 702.67 265.74 696.63 268.22C690.68 270.66 683.59 271.9 675.54 271.9H675.53ZM644.93 260.71C646.91 261.8 649.19 262.84 651.75 263.81C655.04 265.05 658.75 266.06 662.79 266.79C666.84 267.52 671.12 267.9 675.53 267.9C683.05 267.9 689.63 266.76 695.1 264.52C700.47 262.32 704.69 259.2 707.64 255.26C710.55 251.38 712.02 246.77 712.02 241.54C712.02 238.44 711.39 235.84 710.15 233.82C708.87 231.73 707.18 229.99 705.12 228.64C702.95 227.22 700.52 226.02 697.92 225.09C695.21 224.13 692.48 223.28 689.82 222.58C687.08 221.86 684.51 221.14 682.19 220.46C679.67 219.72 677.6 218.78 676.03 217.67C674.1 216.31 673.07 214.45 673.07 212.28C673.07 210.31 673.83 208.52 675.34 206.96C676.71 205.55 678.63 204.44 681.06 203.66C683.37 202.92 686.22 202.54 689.53 202.54C693.64 202.54 697.7 203.08 701.61 204.15C704.78 205.02 707.75 206.25 710.46 207.82L716.97 194.63C713.93 192.98 710.37 191.67 706.37 190.71C701.61 189.58 696.44 189 691.01 189C683.42 189 676.79 190.14 671.33 192.38C665.97 194.58 661.8 197.69 658.92 201.62C656.08 205.5 654.64 210.12 654.64 215.36C654.64 218.64 655.24 221.35 656.43 223.42C657.64 225.54 659.3 227.33 661.35 228.74C663.53 230.24 665.95 231.51 668.56 232.51C671.24 233.54 673.96 234.39 676.64 235.05C679.45 235.74 682.03 236.44 684.31 237.13C686.78 237.87 688.83 238.81 690.41 239.91C692.85 241.63 693.37 243.73 693.37 245.19C693.37 247.19 692.61 248.94 691.11 250.39C689.78 251.67 687.94 252.68 685.63 253.37C683.45 254.03 680.82 254.37 677.82 254.37C674.58 254.37 671.35 254.05 668.2 253.42C665.06 252.79 661.93 251.86 658.91 250.64C656.55 249.69 654.23 248.57 651.97 247.3L644.94 260.72L644.93 260.71Z" fill="white"/>
<path d="M803.91 270.31H735.84L752.57 186.59H819.06L814.72 208.13H774.64L772.76 217.45H808.12L804.03 238.19H768.59L766.46 248.77H808.25L803.92 270.31H803.91ZM740.71 266.31H800.63L803.35 252.77H761.56L765.3 234.19H800.73L803.24 221.45H767.86L771.35 204.13H811.43L814.16 190.59H755.84L740.7 266.3L740.71 266.31Z" fill="white"/>
<path d="M919.25 270.31H892.53L889.31 254.71H858.28L849.06 270.31H820.35L874.05 186.59H898.92L919.25 270.3V270.31ZM895.79 266.31H914.16L895.78 190.59H876.24L827.68 266.3H846.79L856.01 250.7H892.58L895.8 266.3L895.79 266.31ZM889.99 238.2H863.39L883.1 204.83L889.98 238.2H889.99ZM870.4 234.2H885.08L881.28 215.78L870.4 234.2Z" fill="white"/>
<path d="M1019 270.31H990.81L978.85 249.13H970.35L966.05 270.31H939.43L956.18 186.59H991.87C1002.46 186.59 1010.85 189 1016.8 193.74C1022.89 198.6 1025.98 205.41 1025.98 213.98C1025.98 221.02 1024.24 227.27 1020.82 232.55C1017.4 237.82 1012.52 241.95 1006.32 244.83C1005.84 245.05 1005.33 245.27 1004.8 245.49L1019 270.3V270.31ZM993.15 266.31H1012.1L998.96 243.36L1001.23 242.57C1002.53 242.12 1003.64 241.67 1004.63 241.22C1010.14 238.66 1014.45 235.02 1017.46 230.39C1020.46 225.77 1021.98 220.26 1021.98 214C1021.98 206.6 1019.47 201.01 1014.31 196.89C1009.08 192.72 1001.53 190.61 991.87 190.61H959.46L944.32 266.32H962.79L967.09 245.14H981.19L993.15 266.32V266.31ZM985.61 231.59H969.8L975.23 204.36H988.57C993 204.36 996.52 205.27 999.02 207.07C1001.73 209.02 1003.1 212.07 1003.1 216.15C1003.1 221.15 1001.5 225.03 998.35 227.7C995.3 230.28 991.01 231.59 985.62 231.59H985.61ZM974.67 227.59H985.61C990.04 227.59 993.45 226.6 995.76 224.65C998 222.75 999.09 219.98 999.09 216.16C999.09 213.4 998.3 211.49 996.68 210.33C994.87 209.03 992.14 208.37 988.57 208.37H978.51L974.67 227.6V227.59Z" fill="white"/>
<path d="M1088.55 271.9C1080.16 271.9 1072.7 270.34 1066.38 267.26C1059.99 264.14 1055 259.74 1051.55 254.16C1048.1 248.59 1046.36 242.09 1046.36 234.83C1046.36 227.57 1047.64 220.99 1050.16 214.93C1052.68 208.86 1056.28 203.52 1060.86 199.06C1065.44 194.6 1070.97 191.1 1077.31 188.66C1083.62 186.23 1090.71 185 1098.35 185C1105.99 185 1112.83 186.36 1118.76 189.05C1124.81 191.8 1129.41 195.83 1132.42 201.03L1133.28 202.52L1114.02 217.98L1112.83 216.07C1111.12 213.34 1108.94 211.24 1106.34 209.82C1103.73 208.4 1100.55 207.67 1096.88 207.67C1093.21 207.67 1090.02 208.3 1087.14 209.55C1084.26 210.8 1081.76 212.59 1079.68 214.87C1077.59 217.17 1075.96 219.91 1074.84 223.03C1073.71 226.18 1073.14 229.65 1073.14 233.34C1073.14 236.54 1073.84 239.36 1075.21 241.73C1076.58 244.1 1078.51 245.9 1081.1 247.21C1083.72 248.54 1086.93 249.22 1090.62 249.22C1093.89 249.22 1097.08 248.53 1100.11 247.17C1103.13 245.81 1105.99 243.63 1108.6 240.67L1110 239.09L1126.14 254.96L1124.96 256.38C1120.28 262.01 1114.79 266.06 1108.65 268.41C1102.6 270.73 1095.84 271.9 1088.58 271.9H1088.55ZM1098.34 189C1091.18 189 1084.59 190.14 1078.73 192.4C1072.9 194.65 1067.82 197.85 1063.63 201.93C1059.44 206.01 1056.15 210.9 1053.83 216.47C1051.51 222.04 1050.34 228.22 1050.34 234.83C1050.34 241.44 1051.89 247.13 1054.94 252.05C1057.99 256.98 1062.42 260.88 1068.12 263.66C1073.89 266.47 1080.76 267.9 1088.54 267.9C1095.32 267.9 1101.59 266.81 1107.18 264.67C1112.16 262.76 1116.68 259.58 1120.64 255.2L1110.12 244.86C1107.52 247.48 1104.7 249.48 1101.71 250.82C1098.17 252.41 1094.42 253.22 1090.59 253.22C1086.26 253.22 1082.45 252.4 1079.27 250.78C1076.01 249.13 1073.47 246.76 1071.72 243.73C1069.99 240.74 1069.12 237.24 1069.12 233.34C1069.12 229.18 1069.77 225.26 1071.06 221.67C1072.36 218.06 1074.26 214.87 1076.7 212.18C1079.16 209.48 1082.13 207.36 1085.53 205.88C1088.92 204.41 1092.73 203.67 1096.86 203.67C1101.2 203.67 1105.03 204.56 1108.24 206.3C1110.83 207.71 1113.08 209.66 1114.94 212.1L1128.05 201.58C1125.48 197.8 1121.8 194.82 1117.11 192.69C1111.7 190.24 1105.39 189 1098.35 189H1098.34Z" fill="white"/>
<path d="M1225.13 270.31H1198.5L1204.72 239.22H1178.17L1171.95 270.31H1145.32L1162.06 186.59H1188.69L1182.7 216.54H1209.25L1215.24 186.59H1241.87L1225.13 270.3V270.31ZM1203.38 266.31H1221.85L1236.99 190.6H1218.52L1212.53 220.55H1177.82L1183.81 190.6H1165.34L1150.2 266.31H1168.67L1174.89 235.22H1209.6L1203.38 266.31Z" fill="white"/>
<path d="M758.04 383.04C753.39 383.04 748.87 382.65 744.59 381.87C740.31 381.09 736.36 380.03 732.85 378.7C729.33 377.37 726.26 375.89 723.73 374.31L722.16 373.33L732.89 352.83L734.71 353.94C737.34 355.55 740.09 356.93 742.9 358.06C745.69 359.19 748.58 360.05 751.48 360.63C754.37 361.21 757.34 361.5 760.31 361.5C762.91 361.5 765.15 361.22 766.96 360.67C768.66 360.16 769.95 359.48 770.82 358.64C771.53 357.95 771.86 357.22 771.86 356.32C771.86 355.8 771.72 355.1 770.6 354.31C769.38 353.45 767.71 352.7 765.65 352.09C763.43 351.43 760.92 350.74 758.17 350.07C755.32 349.37 752.45 348.46 749.62 347.38C746.72 346.27 744.01 344.85 741.57 343.17C739.02 341.41 736.95 339.18 735.45 336.54C733.91 333.85 733.14 330.47 733.14 326.5C733.14 320.4 734.84 314.98 738.2 310.4C741.52 305.87 746.27 302.31 752.32 299.82C758.27 297.38 765.4 296.14 773.52 296.14C779.26 296.14 784.74 296.75 789.81 297.96C794.93 299.18 799.42 300.97 803.15 303.27L804.7 304.23L794.57 324.77L792.67 323.49C789.83 321.57 786.6 320.11 783.07 319.15C779.5 318.18 775.79 317.68 772.04 317.68C769.15 317.68 766.71 317.99 764.8 318.61C763 319.19 761.63 319.95 760.73 320.89C759.95 321.7 759.58 322.51 759.58 323.43C759.58 324.01 759.72 324.77 760.84 325.55C762.06 326.41 763.74 327.16 765.84 327.77C768.13 328.45 770.66 329.15 773.36 329.86C776.13 330.59 778.96 331.47 781.78 332.47C784.68 333.5 787.39 334.84 789.84 336.44C792.39 338.12 794.49 340.28 796.09 342.88C797.72 345.54 798.55 348.85 798.55 352.69C798.55 358.8 796.81 364.22 793.37 368.81C789.98 373.34 785.19 376.89 779.15 379.37C773.2 381.81 766.1 383.05 758.06 383.05L758.04 383.04ZM727.44 371.85C729.42 372.95 731.7 373.98 734.26 374.95C737.55 376.19 741.26 377.2 745.3 377.93C749.34 378.66 753.63 379.04 758.04 379.04C765.56 379.04 772.14 377.9 777.61 375.66C782.97 373.46 787.19 370.34 790.15 366.4C793.06 362.52 794.53 357.91 794.53 352.68C794.53 349.58 793.9 346.98 792.66 344.96C791.38 342.87 789.69 341.13 787.63 339.78C785.45 338.36 783.03 337.16 780.43 336.23C777.72 335.27 774.99 334.42 772.33 333.72C769.59 333 767.03 332.28 764.7 331.6C762.19 330.86 760.11 329.92 758.54 328.81C756.61 327.45 755.58 325.59 755.58 323.42C755.58 321.45 756.34 319.66 757.85 318.1C759.22 316.69 761.14 315.58 763.57 314.8C765.88 314.06 768.73 313.68 772.04 313.68C776.15 313.68 780.22 314.22 784.12 315.29C787.3 316.16 790.26 317.39 792.97 318.96L799.48 305.77C796.43 304.12 792.88 302.81 788.88 301.85C784.12 300.71 778.95 300.14 773.52 300.14C765.93 300.14 759.3 301.28 753.84 303.52C748.48 305.72 744.3 308.83 741.43 312.76C738.59 316.64 737.15 321.26 737.15 326.5C737.15 329.77 737.75 332.49 738.94 334.56C740.15 336.68 741.8 338.47 743.86 339.88C746.04 341.38 748.47 342.65 751.07 343.65C753.75 344.68 756.46 345.53 759.15 346.19C761.96 346.88 764.54 347.58 766.82 348.27C769.29 349.01 771.34 349.95 772.92 351.05C775.37 352.77 775.88 354.87 775.88 356.33C775.88 358.33 775.12 360.08 773.62 361.53C772.29 362.81 770.45 363.82 768.14 364.51C765.96 365.17 763.33 365.51 760.33 365.51C757.09 365.51 753.86 365.19 750.71 364.56C747.57 363.93 744.44 363 741.42 361.78C739.06 360.83 736.74 359.71 734.48 358.44L727.45 371.86L727.44 371.85Z" fill="white"/>
<path d="M906.46 381.45H879.74L876.52 365.85H845.49L836.27 381.45H807.56L861.25 297.74H886.12L906.45 381.45H906.46ZM883 377.45H901.37L882.98 301.74H863.44L814.88 377.45H833.99L843.21 361.85H879.78L883 377.45ZM877.2 349.34H850.6L870.31 315.97L877.19 349.34H877.2ZM857.61 345.34H872.29L868.49 326.92L857.61 345.34Z" fill="white"/>
<path d="M1006.44 381.45H985.11L960.83 341.24L952.81 381.45H926.64L943.38 297.74H964.71L989.08 337.95L997.02 297.74H1023.19L1006.45 381.45H1006.44ZM987.37 377.45H1003.16L1018.3 301.74H1000.29L990.99 348.84L962.45 301.74H946.65L931.51 377.45H949.52L958.92 330.35L987.36 377.45H987.37Z" fill="white"/>
<path d="M1080.42 381.45H1037.21L1053.95 297.74H1090.21C1098.73 297.74 1106.21 299.16 1112.44 301.96C1118.77 304.81 1123.7 308.95 1127.09 314.27C1130.47 319.58 1132.19 325.96 1132.19 333.22C1132.19 340.48 1130.89 347.21 1128.32 353.09C1125.75 358.98 1122.12 364.11 1117.54 368.34C1112.96 372.57 1107.44 375.85 1101.14 378.09C1094.88 380.32 1087.91 381.45 1080.43 381.45H1080.42ZM1042.09 377.45H1080.42C1087.44 377.45 1093.96 376.4 1099.79 374.32C1105.58 372.26 1110.64 369.25 1114.82 365.4C1119 361.55 1122.3 356.87 1124.65 351.49C1126.99 346.11 1128.18 339.96 1128.18 333.22C1128.18 326.48 1126.68 321.08 1123.71 316.41C1120.75 311.76 1116.41 308.12 1110.8 305.6C1105.09 303.03 1098.16 301.73 1090.21 301.73H1057.23L1042.09 377.44V377.45ZM1081.1 363.46H1063.4L1072.97 315.73H1087.7C1092.3 315.73 1096.25 316.48 1099.42 317.97C1102.69 319.5 1105.21 321.7 1106.89 324.5C1108.55 327.27 1109.4 330.67 1109.4 334.58C1109.4 339.96 1108.29 344.86 1106.11 349.15C1103.9 353.49 1100.67 356.99 1096.5 359.57C1092.33 362.15 1087.15 363.46 1081.1 363.46ZM1068.28 359.46H1081.1C1086.39 359.46 1090.86 358.35 1094.4 356.17C1097.94 353.98 1100.68 351.01 1102.55 347.34C1104.45 343.62 1105.41 339.33 1105.41 334.58C1105.41 331.4 1104.76 328.7 1103.47 326.56C1102.19 324.42 1100.31 322.8 1097.73 321.59C1095.09 320.35 1091.71 319.73 1087.7 319.73H1076.24L1068.27 359.46H1068.28Z" fill="white"/>
<path d="M1196.34 381.45H1150.06L1166.8 297.74H1208.75C1218.23 297.74 1225.55 299.47 1230.49 302.87C1235.67 306.44 1238.3 311.67 1238.3 318.41C1238.3 323.78 1236.8 328.41 1233.83 332.17C1231.89 334.62 1229.47 336.7 1226.6 338.38C1226.94 338.6 1227.26 338.82 1227.58 339.05C1232.43 342.58 1234.89 347.67 1234.89 354.16C1234.89 360.65 1233.1 365.63 1229.56 369.71C1226.11 373.69 1221.39 376.68 1215.52 378.61C1209.8 380.49 1203.35 381.44 1196.33 381.44L1196.34 381.45ZM1154.94 377.45H1196.34C1202.93 377.45 1208.96 376.56 1214.28 374.82C1219.45 373.12 1223.58 370.52 1226.55 367.1C1229.48 363.73 1230.9 359.5 1230.9 354.18C1230.9 348.86 1229.05 345.08 1225.23 342.3C1224.15 341.51 1222.87 340.8 1221.44 340.19L1217.12 338.34L1221.45 336.51C1225.31 334.88 1228.42 332.59 1230.7 329.71C1233.13 326.63 1234.31 322.93 1234.31 318.42C1234.31 313 1232.32 308.99 1228.23 306.17C1223.96 303.23 1217.41 301.74 1208.75 301.74H1170.08L1154.94 377.45ZM1197.71 365.17H1175.57L1179.61 345H1201.12C1204.21 345 1206.82 345.63 1208.88 346.89C1210.51 347.89 1212.46 349.88 1212.46 353.72C1212.46 357.56 1211 360.44 1208.12 362.43C1205.47 364.25 1201.97 365.17 1197.71 365.17ZM1180.45 361.17H1197.71C1201.15 361.17 1203.89 360.48 1205.86 359.13C1207.64 357.9 1208.47 356.18 1208.47 353.72C1208.47 351.59 1207.58 350.77 1206.81 350.3C1205.39 349.44 1203.48 349 1201.13 349H1182.89L1180.45 361.17ZM1200.56 333.4H1181.94L1185.82 314.03H1203.4C1206.77 314.03 1209.38 314.63 1211.39 315.86C1213.65 317.25 1214.85 319.47 1214.85 322.29C1214.85 324.66 1214.28 326.72 1213.15 328.41C1212 330.13 1210.28 331.42 1208.02 332.25C1205.95 333.01 1203.43 333.4 1200.55 333.4H1200.56ZM1186.82 329.4H1200.56C1202.97 329.4 1205.02 329.1 1206.65 328.5C1208.12 327.96 1209.16 327.21 1209.83 326.19C1210.52 325.15 1210.86 323.87 1210.86 322.29C1210.86 320.86 1210.38 319.93 1209.31 319.27C1207.97 318.45 1205.98 318.03 1203.41 318.03H1189.11L1186.83 329.4H1186.82Z" fill="white"/>
<path d="M1301.9 383.04C1293.42 383.04 1286.02 381.47 1279.88 378.39C1273.68 375.27 1268.82 370.86 1265.41 365.29C1262 359.72 1260.28 353.22 1260.28 345.97C1260.28 338.72 1261.56 332.03 1264.08 326.01C1266.6 319.98 1270.2 314.66 1274.78 310.2C1279.36 305.74 1284.87 302.24 1291.17 299.8C1297.45 297.37 1304.47 296.13 1312.05 296.13C1320.45 296.13 1327.85 297.69 1334.06 300.78C1340.34 303.9 1345.23 308.33 1348.61 313.95C1351.97 319.56 1353.68 326.03 1353.68 333.2C1353.68 340.37 1352.42 347.12 1349.94 353.15C1347.45 359.19 1343.85 364.51 1339.23 368.97C1334.61 373.43 1329.06 376.92 1322.73 379.36C1316.41 381.79 1309.41 383.02 1301.91 383.02L1301.9 383.04ZM1312.04 300.14C1304.96 300.14 1298.42 301.28 1292.61 303.54C1286.82 305.78 1281.76 308.99 1277.57 313.07C1273.38 317.15 1270.08 322.02 1267.77 327.55C1265.45 333.08 1264.28 339.28 1264.28 345.97C1264.28 352.66 1265.81 358.27 1268.83 363.2C1271.84 368.13 1276.17 372.03 1281.69 374.81C1287.27 377.62 1294.07 379.04 1301.91 379.04C1308.91 379.04 1315.44 377.9 1321.29 375.64C1327.12 373.4 1332.22 370.19 1336.45 366.1C1340.67 362.02 1343.96 357.16 1346.24 351.63C1348.52 346.09 1349.68 339.89 1349.68 333.2C1349.68 326.51 1348.17 320.98 1345.18 316.01C1342.21 311.05 1337.87 307.13 1332.28 304.36C1326.63 301.55 1319.82 300.13 1312.05 300.13L1312.04 300.14ZM1303.84 364.37C1299.5 364.37 1295.75 363.54 1292.7 361.91C1289.6 360.25 1287.18 357.88 1285.51 354.85C1283.87 351.87 1283.04 348.42 1283.04 344.61C1283.04 340.8 1283.65 336.89 1284.85 333.32C1286.06 329.71 1287.88 326.49 1290.23 323.72C1292.61 320.93 1295.5 318.73 1298.82 317.17C1302.15 315.61 1305.94 314.82 1310.09 314.82C1314.24 314.82 1318.07 315.64 1321.16 317.27C1324.31 318.93 1326.75 321.31 1328.41 324.34C1330.05 327.32 1330.88 330.77 1330.88 334.58C1330.88 338.39 1330.29 342.28 1329.13 345.85C1327.95 349.46 1326.16 352.7 1323.8 355.47C1321.42 358.26 1318.53 360.46 1315.21 362.02C1311.88 363.58 1308.05 364.37 1303.83 364.37H1303.84ZM1310.1 318.82C1306.55 318.82 1303.33 319.48 1300.53 320.79C1297.73 322.1 1295.29 323.96 1293.29 326.31C1291.27 328.68 1289.71 331.47 1288.65 334.59C1287.59 337.75 1287.05 341.11 1287.05 344.6C1287.05 347.74 1287.71 350.54 1289.02 352.92C1290.32 355.29 1292.14 357.08 1294.59 358.38C1297.05 359.7 1300.17 360.36 1303.84 360.36C1307.51 360.36 1310.73 359.7 1313.52 358.39C1316.32 357.08 1318.75 355.22 1320.76 352.87C1322.78 350.5 1324.32 347.72 1325.33 344.61C1326.36 341.44 1326.88 338.07 1326.88 334.58C1326.88 331.45 1326.22 328.65 1324.91 326.26C1323.61 323.89 1321.77 322.11 1319.3 320.8C1316.8 319.48 1313.7 318.81 1310.1 318.81V318.82Z" fill="white"/>
<path d="M1450.45 381.45H1421.37L1410.12 359.04L1390.72 381.45H1358.26L1398.25 337.93L1377.03 297.74H1405.6L1416.44 319.09L1435.36 297.74H1466.18L1427.82 339.82L1450.44 381.45H1450.45ZM1423.84 377.45H1443.73L1422.96 339.23L1457.13 301.74H1437.17L1415.55 326.15L1403.16 301.74H1383.68L1403.12 338.56L1367.38 377.45H1388.9L1411.02 351.89L1423.84 377.45Z" fill="white"/>
<path d="M705.09 350.98H445.44V331.36H705.09V350.98ZM449.44 346.98H701.09V335.36H449.44V346.98Z" fill="white"/>
<path d="M1280 154.5C1280 239.828 926.714 445.5 597 445.5C267.286 445.5 0 376.328 0 291C0 205.672 353.286 0 683 0C1012.71 0 1280 69.172 1280 154.5Z" fill="url(#paint0_radial_20_60)"/>
<defs>
<radialGradient id="paint0_radial_20_60" cx="0" cy="0" r="1" gradientUnits="userSpaceOnUse" gradientTransform="translate(597 291) rotate(90) scale(154.5 597)">
<stop stop-color="white" stop-opacity="0.5"/>
<stop offset="1" stop-color="white" stop-opacity="0"/>
</radialGradient>
</defs>
</svg>
