<svg width="64" height="15" viewBox="0 0 64 15" fill="none" xmlns="http://www.w3.org/2000/svg">
<path d="M4.392 14V2.966H0.072V1.4H10.494V2.966H6.174V14H4.392ZM15.3041 14.108C14.3441 14.108 13.4921 13.898 12.7481 13.478C12.0041 13.058 11.4161 12.482 10.9841 11.75C10.5521 11.006 10.3361 10.166 10.3361 9.23C10.3361 8.282 10.5521 7.442 10.9841 6.71C11.4161 5.978 12.0041 5.408 12.7481 5C13.4921 4.58 14.3441 4.37 15.3041 4.37C16.2521 4.37 17.0981 4.58 17.8421 5C18.5981 5.408 19.1861 5.978 19.6061 6.71C20.0381 7.43 20.2541 8.27 20.2541 9.23C20.2541 10.178 20.0381 11.018 19.6061 11.75C19.1861 12.482 18.5981 13.058 17.8421 13.478C17.0981 13.898 16.2521 14.108 15.3041 14.108ZM15.3041 12.596C15.9161 12.596 16.4621 12.458 16.9421 12.182C17.4341 11.906 17.8181 11.516 18.0941 11.012C18.3701 10.496 18.5081 9.902 18.5081 9.23C18.5081 8.546 18.3701 7.958 18.0941 7.466C17.8181 6.962 17.4341 6.572 16.9421 6.296C16.4621 6.02 15.9161 5.882 15.3041 5.882C14.6921 5.882 14.1461 6.02 13.6661 6.296C13.1861 6.572 12.8021 6.962 12.5141 7.466C12.2261 7.958 12.0821 8.546 12.0821 9.23C12.0821 9.902 12.2261 10.496 12.5141 11.012C12.8021 11.516 13.1861 11.906 13.6661 12.182C14.1461 12.458 14.6921 12.596 15.3041 12.596ZM24.0479 11.696L24.0839 9.482L29.5739 4.46H31.6619L27.4499 8.6L26.5139 9.392L24.0479 11.696ZM22.6439 14V0.643999H24.3719V14H22.6439ZM29.9339 14L26.1899 9.356L27.3059 7.97L32.0579 14H29.9339ZM37.5969 14.108C36.5769 14.108 35.6769 13.898 34.8969 13.478C34.1289 13.058 33.5289 12.482 33.0969 11.75C32.6769 11.018 32.4669 10.178 32.4669 9.23C32.4669 8.282 32.6709 7.442 33.0789 6.71C33.4989 5.978 34.0689 5.408 34.7889 5C35.5209 4.58 36.3429 4.37 37.2549 4.37C38.1789 4.37 38.9949 4.574 39.7029 4.982C40.4109 5.39 40.9629 5.966 41.3589 6.71C41.7669 7.442 41.9709 8.3 41.9709 9.284C41.9709 9.356 41.9649 9.44 41.9529 9.536C41.9529 9.632 41.9469 9.722 41.9349 9.806H33.8169V8.564H41.0349L40.3329 8.996C40.3449 8.384 40.2189 7.838 39.9549 7.358C39.6909 6.878 39.3249 6.506 38.8569 6.242C38.4009 5.966 37.8669 5.828 37.2549 5.828C36.6549 5.828 36.1209 5.966 35.6529 6.242C35.1849 6.506 34.8189 6.884 34.5549 7.376C34.2909 7.856 34.1589 8.408 34.1589 9.032V9.32C34.1589 9.956 34.3029 10.526 34.5909 11.03C34.8909 11.522 35.3049 11.906 35.8329 12.182C36.3609 12.458 36.9669 12.596 37.6509 12.596C38.2149 12.596 38.7249 12.5 39.1809 12.308C39.6489 12.116 40.0569 11.828 40.4049 11.444L41.3589 12.56C40.9269 13.064 40.3869 13.448 39.7389 13.712C39.1029 13.976 38.3889 14.108 37.5969 14.108ZM49.4644 4.37C50.2444 4.37 50.9284 4.52 51.5164 4.82C52.1164 5.12 52.5844 5.576 52.9204 6.188C53.2564 6.8 53.4244 7.574 53.4244 8.51V14H51.6964V8.708C51.6964 7.784 51.4684 7.088 51.0124 6.62C50.5684 6.152 49.9384 5.918 49.1224 5.918C48.5104 5.918 47.9764 6.038 47.5204 6.278C47.0644 6.518 46.7104 6.872 46.4584 7.34C46.2184 7.808 46.0984 8.39 46.0984 9.086V14H44.3704V4.46H46.0264V7.034L45.7564 6.35C46.0684 5.726 46.5484 5.24 47.1964 4.892C47.8444 4.544 48.6004 4.37 49.4644 4.37ZM59.3584 14.108C58.5664 14.108 57.8104 14 57.0904 13.784C56.3824 13.568 55.8244 13.304 55.4164 12.992L56.1364 11.624C56.5444 11.9 57.0484 12.134 57.6484 12.326C58.2484 12.518 58.8604 12.614 59.4844 12.614C60.2884 12.614 60.8644 12.5 61.2124 12.272C61.5724 12.044 61.7524 11.726 61.7524 11.318C61.7524 11.018 61.6444 10.784 61.4284 10.616C61.2124 10.448 60.9244 10.322 60.5644 10.238C60.2164 10.154 59.8264 10.082 59.3944 10.022C58.9624 9.95 58.5304 9.866 58.0984 9.77C57.6664 9.662 57.2704 9.518 56.9104 9.338C56.5504 9.146 56.2624 8.888 56.0464 8.564C55.8304 8.228 55.7224 7.784 55.7224 7.232C55.7224 6.656 55.8844 6.152 56.2084 5.72C56.5324 5.288 56.9884 4.958 57.5764 4.73C58.1764 4.49 58.8844 4.37 59.7004 4.37C60.3244 4.37 60.9544 4.448 61.5904 4.604C62.2384 4.748 62.7664 4.958 63.1744 5.234L62.4364 6.602C62.0044 6.314 61.5544 6.116 61.0864 6.008C60.6184 5.9 60.1504 5.846 59.6824 5.846C58.9264 5.846 58.3624 5.972 57.9904 6.224C57.6184 6.464 57.4324 6.776 57.4324 7.16C57.4324 7.484 57.5404 7.736 57.7564 7.916C57.9844 8.084 58.2724 8.216 58.6204 8.312C58.9804 8.408 59.3764 8.492 59.8084 8.564C60.2404 8.624 60.6724 8.708 61.1044 8.816C61.5364 8.912 61.9264 9.05 62.2744 9.23C62.6344 9.41 62.9224 9.662 63.1384 9.986C63.3664 10.31 63.4804 10.742 63.4804 11.282C63.4804 11.858 63.3124 12.356 62.9764 12.776C62.6404 13.196 62.1664 13.526 61.5544 13.766C60.9424 13.994 60.2104 14.108 59.3584 14.108Z" fill="black"/>
</svg>
