<svg width="43" height="42" viewBox="0 0 43 42" fill="none" xmlns="http://www.w3.org/2000/svg">
<path d="M21.66 41C32.7057 41 41.66 32.0457 41.66 21C41.66 9.9543 32.7057 1 21.66 1C10.6143 1 1.66003 9.9543 1.66003 21C1.66003 32.0457 10.6143 41 21.66 41Z" stroke="#ABABAB" stroke-width="2" stroke-miterlimit="10"/>
<path d="M6.66003 34.22C10.32 30.06 15.69 27.44 21.67 27.44C27.65 27.44 33.01 30.06 36.67 34.22" stroke="#ABABAB" stroke-width="2" stroke-miterlimit="10"/>
<path d="M21.66 22.68C25.399 22.68 28.43 19.649 28.43 15.91C28.43 12.171 25.399 9.14001 21.66 9.14001C17.9211 9.14001 14.89 12.171 14.89 15.91C14.89 19.649 17.9211 22.68 21.66 22.68Z" stroke="#ABABAB" stroke-width="2" stroke-miterlimit="10"/>
</svg>
