<svg width="19" height="19" viewBox="0 0 19 19" fill="none" xmlns="http://www.w3.org/2000/svg">
<path fill-rule="evenodd" clip-rule="evenodd" d="M8.89997 0.0800156C9.10997 -0.0099844 9.33997 -0.0199844 9.54997 0.0400156L9.64997 0.0800156L18 3.79002C18.34 3.94002 18.55 4.27002 18.55 4.63002V4.74002L18.01 9.52002C17.74 11.96 16.41 14.16 14.37 15.52L14.13 15.67L9.74997 18.41C9.47997 18.58 9.14997 18.6 8.86997 18.47L8.76997 18.41L4.38997 15.67C2.30997 14.37 0.89997 12.21 0.54997 9.79002L0.50997 9.51002L-3.00761e-05 4.74002C-0.0400301 4.37002 0.13997 4.02002 0.44997 3.84002L0.54997 3.79002L8.89997 0.0800156ZM9.27997 1.94002L1.91997 5.21002L2.37997 9.32001C2.58997 11.21 3.60997 12.9 5.17997 13.97L5.39997 14.11L9.27997 16.54L13.16 14.11C14.77 13.1 15.86 11.45 16.14 9.58002L16.17 9.32001L16.63 5.21002L9.27997 1.94002V1.94002ZM11.33 5.92002C11.65 5.52002 12.23 5.45002 12.63 5.76002C13 6.05002 13.09 6.57002 12.85 6.97002L12.78 7.07002L9.06997 11.71C8.74997 12.12 8.16997 12.18 7.76997 11.87L7.67997 11.79L5.81997 9.93002C5.45997 9.57002 5.45997 8.98002 5.81997 8.62002C6.14997 8.29002 6.67997 8.26002 7.03997 8.54002L7.12997 8.62002L8.24997 9.74002L11.32 5.92002H11.33Z" fill="white"/>
</svg>
