<svg width="25" height="25" viewBox="0 0 25 25" fill="none" xmlns="http://www.w3.org/2000/svg">
<path d="M9.6255 1.875H3.4995C2.6037 1.875 1.875 2.6037 1.875 3.4995V9.6255C1.875 10.5213 2.6037 11.25 3.4995 11.25H9.6255C10.5213 11.25 11.25 10.5213 11.25 9.6255V3.4995C11.2499 2.6037 10.5213 1.875 9.6255 1.875Z" fill="white"/>
<path d="M21.5005 1.875H15.3745C14.4787 1.875 13.75 2.6037 13.75 3.4995V9.6255C13.75 10.5213 14.4787 11.25 15.3745 11.25H21.5005C22.3963 11.25 23.125 10.5213 23.125 9.6255V3.4995C23.125 2.6037 22.3963 1.875 21.5005 1.875Z" fill="white"/>
<path d="M9.6255 13.75H3.4995C2.6037 13.75 1.875 14.4786 1.875 15.3744V21.5005C1.875 22.3963 2.6037 23.125 3.4995 23.125H9.6255C10.5213 23.125 11.25 22.3963 11.25 21.5005V15.3744C11.2499 14.4786 10.5213 13.75 9.6255 13.75Z" fill="white"/>
<path d="M21.5005 13.75H15.3745C14.4787 13.75 13.75 14.4787 13.75 15.3745V21.5005C13.75 22.3963 14.4787 23.125 15.3745 23.125H21.5005C22.3963 23.1249 23.125 22.3962 23.125 21.5004V15.3744C23.125 14.4786 22.3963 13.75 21.5005 13.75Z" fill="white"/>
</svg>
