<svg width="61" height="60" viewBox="0 0 61 60" fill="none" xmlns="http://www.w3.org/2000/svg">
<path d="M16.2778 23.7776H23.3889C23.8778 23.7776 24.2778 23.3776 24.2778 22.8887V15.7776C24.2778 15.2887 23.8778 14.8887 23.3889 14.8887H16.2778C15.7889 14.8887 15.3889 15.2887 15.3889 15.7776V22.8887C15.3889 23.3776 15.7889 23.7776 16.2778 23.7776ZM17.1667 16.6664H22.5V21.9998H17.1667V16.6664Z" fill="#8E488A"/>
<path d="M26.9444 23.7776H34.0555C34.5444 23.7776 34.9444 23.3776 34.9444 22.8887V15.7776C34.9444 15.2887 34.5444 14.8887 34.0555 14.8887H26.9444C26.4555 14.8887 26.0555 15.2887 26.0555 15.7776V22.8887C26.0555 23.3776 26.4555 23.7776 26.9444 23.7776ZM27.8333 16.6664H33.1667V21.9998H27.8333V16.6664Z" fill="#8E488A"/>
<path d="M44.7222 14.8887H37.6111C37.1222 14.8887 36.7222 15.2887 36.7222 15.7776V22.8887C36.7222 23.3776 37.1222 23.7776 37.6111 23.7776H44.7222C45.2111 23.7776 45.6111 23.3776 45.6111 22.8887V15.7776C45.6111 15.2887 45.2111 14.8887 44.7222 14.8887ZM43.8333 21.9998H38.4999V16.6664H43.8333V21.9998Z" fill="#8E488A"/>
<path d="M16.2778 34.4446H23.3889C23.8778 34.4446 24.2778 34.0446 24.2778 33.5557V26.4446C24.2778 25.9557 23.8778 25.5557 23.3889 25.5557H16.2778C15.7889 25.5557 15.3889 25.9557 15.3889 26.4446V33.5557C15.3889 34.0446 15.7889 34.4446 16.2778 34.4446ZM17.1667 27.3334H22.5V32.6668H17.1667V27.3334Z" fill="#8E488A"/>
<path d="M26.9444 34.4446H34.0555C34.5444 34.4446 34.9444 34.0446 34.9444 33.5557V26.4446C34.9444 25.9557 34.5444 25.5557 34.0555 25.5557H26.9444C26.4555 25.5557 26.0555 25.9557 26.0555 26.4446V33.5557C26.0555 34.0446 26.4555 34.4446 26.9444 34.4446ZM27.8333 27.3334H33.1667V32.6668H27.8333V27.3334Z" fill="#8E488A"/>
<path d="M44.7222 25.5557H37.6111C37.1222 25.5557 36.7222 25.9557 36.7222 26.4446V33.5557C36.7222 34.0446 37.1222 34.4446 37.6111 34.4446H44.7222C45.2111 34.4446 45.6111 34.0446 45.6111 33.5557V26.4446C45.6111 25.9557 45.2111 25.5557 44.7222 25.5557ZM43.8333 32.6668H38.4999V27.3334H43.8333V32.6668Z" fill="#8E488A"/>
<path d="M16.2778 45.1115H23.3889C23.8778 45.1115 24.2778 44.7115 24.2778 44.2227V37.1115C24.2778 36.6227 23.8778 36.2227 23.3889 36.2227H16.2778C15.7889 36.2227 15.3889 36.6227 15.3889 37.1115V44.2227C15.3889 44.7115 15.7889 45.1115 16.2778 45.1115ZM17.1667 38.0004H22.5V43.3338H17.1667V38.0004Z" fill="#8E488A"/>
<path d="M26.9444 45.1115H34.0555C34.5444 45.1115 34.9444 44.7115 34.9444 44.2227V37.1115C34.9444 36.6227 34.5444 36.2227 34.0555 36.2227H26.9444C26.4555 36.2227 26.0555 36.6227 26.0555 37.1115V44.2227C26.0555 44.7115 26.4555 45.1115 26.9444 45.1115ZM27.8333 38.0004H33.1667V43.3338H27.8333V38.0004Z" fill="#8E488A"/>
<path d="M44.7222 36.2227H37.6111C37.1222 36.2227 36.7222 36.6227 36.7222 37.1115V44.2227C36.7222 44.7115 37.1222 45.1115 37.6111 45.1115H44.7222C45.2111 45.1115 45.6111 44.7115 45.6111 44.2227V37.1115C45.6111 36.6227 45.2111 36.2227 44.7222 36.2227ZM43.8333 43.3338H38.4999V38.0004H43.8333V43.3338Z" fill="#8E488A"/>
<rect x="1" y="0.5" width="59" height="59" rx="9.5" stroke="url(#paint0_linear_1026_15228)"/>
<defs>
<linearGradient id="paint0_linear_1026_15228" x1="30.5" y1="1.49012e-08" x2="31" y2="60" gradientUnits="userSpaceOnUse">
<stop stop-color="#8E488A"/>
<stop offset="1" stop-opacity="0"/>
</linearGradient>
</defs>
</svg>
