<svg width="28" height="29" viewBox="0 0 28 29" fill="none" xmlns="http://www.w3.org/2000/svg">
<path d="M16.3333 4H7C6.07259 4.00277 5.18396 4.37241 4.52819 5.02819C3.87241 5.68396 3.50277 6.57259 3.5 7.5V16.8333C3.50277 17.7607 3.87241 18.6494 4.52819 19.3051C5.18396 19.9609 6.07259 20.3306 7 20.3333H16.3333C17.2607 20.3306 18.1494 19.9609 18.8051 19.3051C19.4609 18.6494 19.8306 17.7607 19.8333 16.8333V7.5C19.8306 6.57259 19.4609 5.68396 18.8051 5.02819C18.1494 4.37241 17.2607 4.00277 16.3333 4ZM14 13.3333H12.8333V14.5C12.8333 14.8094 12.7104 15.1062 12.4916 15.325C12.2728 15.5438 11.9761 15.6667 11.6667 15.6667C11.3572 15.6667 11.0605 15.5438 10.8417 15.325C10.6229 15.1062 10.5 14.8094 10.5 14.5V13.3333H9.33333C9.02391 13.3333 8.72717 13.2104 8.50838 12.9916C8.28958 12.7728 8.16667 12.4761 8.16667 12.1667C8.16667 11.8572 8.28958 11.5605 8.50838 11.3417C8.72717 11.1229 9.02391 11 9.33333 11H10.5V9.83333C10.5 9.52391 10.6229 9.22717 10.8417 9.00838C11.0605 8.78958 11.3572 8.66667 11.6667 8.66667C11.9761 8.66667 12.2728 8.78958 12.4916 9.00838C12.7104 9.22717 12.8333 9.52391 12.8333 9.83333V11H14C14.3094 11 14.6062 11.1229 14.825 11.3417C15.0438 11.5605 15.1667 11.8572 15.1667 12.1667C15.1667 12.4761 15.0438 12.7728 14.825 12.9916C14.6062 13.2104 14.3094 13.3333 14 13.3333Z" fill="white"/>
<path d="M18.6667 25H8.16667C7.85725 25 7.5605 24.8771 7.34171 24.6583C7.12292 24.4395 7 24.1428 7 23.8333C7 23.5239 7.12292 23.2272 7.34171 23.0084C7.5605 22.7896 7.85725 22.6667 8.16667 22.6667H18.6667C19.5949 22.6667 20.4852 22.2979 21.1415 21.6415C21.7979 20.9852 22.1667 20.0949 22.1667 19.1667V8.66667C22.1667 8.35725 22.2896 8.0605 22.5084 7.84171C22.7272 7.62292 23.0239 7.5 23.3333 7.5C23.6428 7.5 23.9395 7.62292 24.1583 7.84171C24.3771 8.0605 24.5 8.35725 24.5 8.66667V19.1667C24.4981 20.7132 23.883 22.1958 22.7894 23.2894C21.6958 24.383 20.2132 24.9981 18.6667 25Z" fill="white"/>
</svg>
