<svg width="14" height="13" viewBox="0 0 14 13" fill="none" xmlns="http://www.w3.org/2000/svg">
<g clip-path="url(#clip0_294_13238)">
<path d="M10.1275 2.32153H2.23465C1.4654 2.32153 0.841797 2.94514 0.841797 3.71439V11.6072C0.841797 12.3765 1.4654 13.0001 2.23465 13.0001H10.1275C10.8967 13.0001 11.5204 12.3765 11.5204 11.6072V3.71439C11.5204 2.94514 10.8967 2.32153 10.1275 2.32153ZM10.5918 11.6073C10.5918 11.8637 10.3839 12.0716 10.1275 12.0716H2.23465C1.97823 12.0716 1.77036 11.8637 1.77036 11.6073V3.71439C1.77036 3.45796 1.97823 3.2501 2.23465 3.2501H10.1275C10.3839 3.2501 10.5918 3.45796 10.5918 3.71439V11.6073Z" fill="#3462D7"/>
<path d="M12.4492 0H4.09207C3.32282 0 2.69922 0.623602 2.69922 1.39286C2.69922 1.64928 2.90709 1.85715 3.16351 1.85715C3.41994 1.85715 3.62778 1.64928 3.62778 1.39286C3.62778 1.13643 3.83565 0.928562 4.09207 0.928562H12.4492C12.7056 0.928562 12.9135 1.13643 12.9135 1.39286V9.74999C12.9135 10.0064 12.7056 10.2143 12.4492 10.2143C12.1928 10.2143 11.9849 10.4222 11.9849 10.6786C11.9849 10.935 12.1928 11.1429 12.4492 11.1429C13.2185 11.1429 13.8421 10.5193 13.8421 9.75002V1.39286C13.8421 0.623602 13.2185 0 12.4492 0Z" fill="#3462D7"/>
</g>
<defs>
<clipPath id="clip0_294_13238">
<rect width="13" height="13" fill="white" transform="translate(0.841797)"/>
</clipPath>
</defs>
</svg>
