<svg width="27" height="27" viewBox="0 0 27 27" fill="none" xmlns="http://www.w3.org/2000/svg">
<rect width="27" height="27" rx="13.5" fill="#857BE7"/>
<path d="M18.4581 9.33655C17.6143 8.94937 16.7093 8.66409 15.7632 8.50069C15.746 8.49753 15.7287 8.50542 15.7199 8.52117C15.6035 8.72817 15.4746 8.99819 15.3843 9.21044C14.3667 9.05808 13.3542 9.05808 12.3575 9.21044C12.2672 8.99348 12.1336 8.72817 12.0167 8.52117C12.0078 8.50593 11.9906 8.49805 11.9734 8.50069C11.0277 8.66355 10.1228 8.94882 9.27843 9.33655C9.27111 9.33971 9.26486 9.34496 9.26069 9.35179C7.54427 11.9161 7.07405 14.4174 7.30471 16.8877C7.30575 16.8997 7.31255 16.9113 7.32193 16.9187C8.45438 17.7503 9.55137 18.2552 10.628 18.5899C10.6452 18.5951 10.6634 18.5888 10.6744 18.5746C10.9291 18.2269 11.1561 17.8601 11.3507 17.4745C11.3622 17.4519 11.3512 17.4251 11.3278 17.4162C10.9677 17.2796 10.6248 17.113 10.295 16.9239C10.2689 16.9087 10.2668 16.8714 10.2908 16.8535C10.3602 16.8015 10.4297 16.7474 10.4959 16.6928C10.5079 16.6828 10.5246 16.6807 10.5387 16.687C12.7055 17.6763 15.0513 17.6763 17.1925 16.687C17.2066 16.6801 17.2233 16.6823 17.2358 16.6922C17.3021 16.7469 17.3715 16.8015 17.4415 16.8535C17.4655 16.8714 17.4639 16.9087 17.4378 16.9239C17.108 17.1167 16.7651 17.2796 16.4045 17.4157C16.381 17.4246 16.3706 17.4519 16.3821 17.4745C16.5809 17.8596 16.808 18.2263 17.0579 18.5741C17.0684 18.5888 17.0871 18.5951 17.1043 18.5898C18.1862 18.2552 19.2832 17.7503 20.4156 16.9186C20.4255 16.9113 20.4318 16.9003 20.4328 16.8882C20.7089 14.0323 19.9704 11.5515 18.4753 9.3523C18.4717 9.34496 18.4654 9.33971 18.4581 9.33655ZM11.6744 15.3835C11.022 15.3835 10.4845 14.7846 10.4845 14.0491C10.4845 13.3136 11.0116 12.7147 11.6744 12.7147C12.3423 12.7147 12.8747 13.3188 12.8642 14.0491C12.8642 14.7846 12.3371 15.3835 11.6744 15.3835ZM16.0737 15.3835C15.4214 15.3835 14.8838 14.7846 14.8838 14.0491C14.8838 13.3136 15.4109 12.7147 16.0737 12.7147C16.7417 12.7147 17.274 13.3188 17.2636 14.0491C17.2636 14.7846 16.7417 15.3835 16.0737 15.3835Z" fill="white"/>
</svg>
