<svg width="18" height="18" viewBox="0 0 18 18" fill="none" xmlns="http://www.w3.org/2000/svg">
<path d="M15.1875 5.83313C15.1913 5.58708 15.1465 5.3427 15.0558 5.11395C14.965 4.88521 14.8301 4.67659 14.6587 4.5L11.3681 1.125C11.1914 0.946765 10.9811 0.805294 10.7494 0.70875C10.5177 0.612206 10.2691 0.5625 10.0181 0.5625H4.69688C4.19711 0.5625 3.71781 0.761032 3.36442 1.11442C3.01103 1.46781 2.8125 1.94711 2.8125 2.44687V15.5531C2.8125 16.0529 3.01103 16.5322 3.36442 16.8856C3.71781 17.239 4.19711 17.4375 4.69688 17.4375H13.3031C13.5506 17.4375 13.7956 17.3888 14.0242 17.2941C14.2529 17.1994 14.4606 17.0606 14.6356 16.8856C14.8106 16.7106 14.9494 16.5029 15.0441 16.2742C15.1388 16.0456 15.1875 15.8006 15.1875 15.5531V5.83313ZM13.3088 4.75312H11.5706C11.5127 4.75804 11.4544 4.75109 11.3993 4.73272C11.3442 4.71434 11.2934 4.68492 11.25 4.64625C11.1709 4.56721 11.1263 4.45998 11.1263 4.34812V2.51437L13.3088 4.75312ZM13.3088 16.3125H4.69688C4.59694 16.3132 4.49786 16.2941 4.40539 16.2562C4.31292 16.2183 4.22891 16.1624 4.15825 16.0918C4.08758 16.0211 4.03168 15.9371 3.99378 15.8446C3.95588 15.7521 3.93675 15.6531 3.9375 15.5531V2.44687C3.93675 2.34694 3.95588 2.24786 3.99378 2.15539C4.03168 2.06292 4.08758 1.97891 4.15825 1.90825C4.22891 1.83758 4.31292 1.78168 4.40539 1.74378C4.49786 1.70588 4.59694 1.68675 4.69688 1.6875H10.0125V4.34812C10.0125 4.55174 10.0527 4.75335 10.1308 4.94139C10.2089 5.12943 10.3233 5.30021 10.4676 5.44392C10.6118 5.58764 10.783 5.70146 10.9713 5.77887C11.1596 5.85628 11.3614 5.89574 11.565 5.895L14.0625 5.86688V15.5531C14.0632 15.6531 14.0441 15.7521 14.0062 15.8446C13.9683 15.9371 13.9124 16.0211 13.8418 16.0918C13.7711 16.1624 13.6871 16.2183 13.5946 16.2562C13.5021 16.2941 13.4031 16.3132 13.3031 16.3125H13.3088Z" fill="#D58CEF"/>
<path d="M11.25 7.44727H6.75C6.60082 7.44727 6.45774 7.50653 6.35225 7.61202C6.24676 7.71751 6.1875 7.86058 6.1875 8.00977C6.1875 8.15895 6.24676 8.30202 6.35225 8.40751C6.45774 8.513 6.60082 8.57227 6.75 8.57227H11.25C11.3992 8.57227 11.5423 8.513 11.6477 8.40751C11.7532 8.30202 11.8125 8.15895 11.8125 8.00977C11.8125 7.86058 11.7532 7.71751 11.6477 7.61202C11.5423 7.50653 11.3992 7.44727 11.25 7.44727Z" fill="#D58CEF"/>
<path d="M11.25 11.1211H6.75C6.60082 11.1211 6.45774 11.1804 6.35225 11.2858C6.24676 11.3913 6.1875 11.5344 6.1875 11.6836C6.1875 11.8328 6.24676 11.9759 6.35225 12.0813C6.45774 12.1868 6.60082 12.2461 6.75 12.2461H11.25C11.3992 12.2461 11.5423 12.1868 11.6477 12.0813C11.7532 11.9759 11.8125 11.8328 11.8125 11.6836C11.8125 11.5344 11.7532 11.3913 11.6477 11.2858C11.5423 11.1804 11.3992 11.1211 11.25 11.1211Z" fill="#D58CEF"/>
</svg>
