<svg width="27" height="27" viewBox="0 0 27 27" fill="none" xmlns="http://www.w3.org/2000/svg">
<path fill-rule="evenodd" clip-rule="evenodd" d="M13.5 0C6.05391 0 0 6.05391 0 13.5C0 20.9461 6.05391 27 13.5 27C20.9461 27 27 20.9461 27 13.5C27 6.05391 20.9461 0 13.5 0Z" fill="#4BAE4F"/>
<path fill-rule="evenodd" clip-rule="evenodd" d="M20.0288 8.94912C20.3558 9.27607 20.3558 9.81397 20.0288 10.1409L12.1187 18.0511C11.9552 18.2146 11.739 18.2989 11.5228 18.2989C11.3065 18.2989 11.0903 18.2146 10.9269 18.0511L6.97178 14.096C6.64482 13.769 6.64482 13.2312 6.97178 12.9042C7.29873 12.5772 7.83662 12.5772 8.16357 12.9042L11.5228 16.2634L18.837 8.94912C19.164 8.61689 19.7019 8.61689 20.0288 8.94912Z" fill="white"/>
<circle cx="13.5" cy="13.5" r="13.5" fill="#3462D7"/>
<g clip-path="url(#clip0_294_13266)">
<path d="M20.6515 8.26658C20.6235 8.06555 20.4789 7.90019 20.2834 7.84584L14.0169 6.10312C13.9275 6.07826 13.8332 6.07826 13.7438 6.10312L7.47725 7.84584C7.28172 7.90019 7.13709 8.06548 7.1091 8.26658C7.07275 8.52793 6.24358 14.7031 8.37035 17.7751C10.4946 20.8434 13.6283 21.6297 13.7607 21.6617C13.8 21.6712 13.8401 21.6759 13.8803 21.6759C13.9205 21.6759 13.9606 21.6712 14 21.6617C14.1324 21.6297 17.2661 20.8434 19.3903 17.7751C21.517 14.7032 20.6879 8.528 20.6515 8.26658ZM17.9214 11.8717L13.647 16.1461C13.5476 16.2456 13.4171 16.2954 13.2867 16.2954C13.1564 16.2954 13.0259 16.2456 12.9265 16.1461L10.2837 13.5033C10.1881 13.4078 10.1344 13.2782 10.1344 13.143C10.1344 13.0079 10.1881 12.8783 10.2837 12.7828L10.8084 12.258C11.0074 12.0591 11.33 12.059 11.5289 12.258L13.2867 14.0158L16.6761 10.6264C16.7716 10.5308 16.9013 10.4771 17.0364 10.4771C17.1715 10.4771 17.3011 10.5308 17.3967 10.6264L17.9214 11.1511C18.1204 11.3501 18.1204 11.6727 17.9214 11.8717Z" fill="white"/>
</g>
<defs>
<clipPath id="clip0_294_13266">
<rect width="15.5915" height="15.5915" fill="white" transform="translate(6.08398 6.08447)"/>
</clipPath>
</defs>
</svg>
