<svg width="25" height="25" viewBox="0 0 25 25" fill="none" xmlns="http://www.w3.org/2000/svg">
<path d="M20.8649 4.13523C20.7184 3.98877 20.5197 3.90649 20.3125 3.90649C20.1054 3.90649 19.9067 3.98877 19.7602 4.13523L17.2805 6.61492C15.7904 5.88687 14.1583 5.49559 12.5 5.46883C6.15159 5.46883 1.15706 11.7509 0.947685 12.018C0.839852 12.1556 0.78125 12.3253 0.78125 12.5001C0.78125 12.6748 0.839852 12.8446 0.947685 12.9821C2.45889 14.8084 4.25966 16.3743 6.27815 17.6173L4.13518 19.7602C4.06057 19.8323 4.00105 19.9185 3.96011 20.0138C3.91916 20.1091 3.89761 20.2117 3.89671 20.3154C3.89581 20.4191 3.91557 20.522 3.95485 20.618C3.99414 20.714 4.05215 20.8013 4.1255 20.8746C4.19885 20.948 4.28608 21.006 4.3821 21.0453C4.47811 21.0845 4.58098 21.1043 4.68472 21.1034C4.78845 21.1025 4.89097 21.0809 4.98628 21.04C5.0816 20.9991 5.1678 20.9395 5.23987 20.8649L20.8649 5.23992C21.0113 5.09342 21.0936 4.89474 21.0936 4.68758C21.0936 4.48042 21.0113 4.28174 20.8649 4.13523V4.13523ZM8.59378 12.5001C8.59502 11.4645 9.00697 10.4716 9.73926 9.73931C10.4716 9.00702 11.4644 8.59507 12.5 8.59383C13.2617 8.59923 14.0044 8.8321 14.6328 9.26258L9.26253 14.6329C8.83205 14.0045 8.59917 13.2618 8.59378 12.5001V12.5001Z" fill="white"/>
<path d="M24.0527 12.0179C22.8839 10.6016 21.541 9.33854 20.0559 8.25854L16.352 11.9625C16.3829 12.1401 16.4012 12.3197 16.4066 12.5C16.4054 13.5356 15.9935 14.5284 15.2612 15.2607C14.5289 15.993 13.536 16.405 12.5004 16.4062C12.3202 16.4007 12.1405 16.3824 11.9629 16.3515L9.30664 19.0078C10.338 19.3452 11.4153 19.5217 12.5004 19.5312C18.8488 19.5312 23.8434 13.2492 24.0527 12.982C24.1606 12.8444 24.2192 12.6747 24.2192 12.5C24.2192 12.3252 24.1606 12.1555 24.0527 12.0179V12.0179Z" fill="white"/>
</svg>
