<svg width="30" height="31" viewBox="0 0 30 31" fill="none" xmlns="http://www.w3.org/2000/svg">
<path d="M17.5 4.25H7.5C6.50635 4.25297 5.55425 4.64901 4.85163 5.35163C4.14901 6.05425 3.75297 7.00635 3.75 8V18C3.75297 18.9936 4.14901 19.9458 4.85163 20.6484C5.55425 21.351 6.50635 21.747 7.5 21.75H17.5C18.4936 21.747 19.4458 21.351 20.1484 20.6484C20.851 19.9458 21.247 18.9936 21.25 18V8C21.247 7.00635 20.851 6.05425 20.1484 5.35163C19.4458 4.64901 18.4936 4.25297 17.5 4.25ZM15 14.25H13.75V15.5C13.75 15.8315 13.6183 16.1495 13.3839 16.3839C13.1495 16.6183 12.8315 16.75 12.5 16.75C12.1685 16.75 11.8505 16.6183 11.6161 16.3839C11.3817 16.1495 11.25 15.8315 11.25 15.5V14.25H10C9.66848 14.25 9.35054 14.1183 9.11612 13.8839C8.8817 13.6495 8.75 13.3315 8.75 13C8.75 12.6685 8.8817 12.3505 9.11612 12.1161C9.35054 11.8817 9.66848 11.75 10 11.75H11.25V10.5C11.25 10.1685 11.3817 9.85054 11.6161 9.61612C11.8505 9.3817 12.1685 9.25 12.5 9.25C12.8315 9.25 13.1495 9.3817 13.3839 9.61612C13.6183 9.85054 13.75 10.1685 13.75 10.5V11.75H15C15.3315 11.75 15.6495 11.8817 15.8839 12.1161C16.1183 12.3505 16.25 12.6685 16.25 13C16.25 13.3315 16.1183 13.6495 15.8839 13.8839C15.6495 14.1183 15.3315 14.25 15 14.25Z" fill="#3462D7"/>
<path d="M20 26.75H8.75C8.41848 26.75 8.10054 26.6183 7.86612 26.3839C7.6317 26.1495 7.5 25.8315 7.5 25.5C7.5 25.1685 7.6317 24.8505 7.86612 24.6161C8.10054 24.3817 8.41848 24.25 8.75 24.25H20C20.9946 24.25 21.9484 23.8549 22.6517 23.1517C23.3549 22.4484 23.75 21.4946 23.75 20.5V9.25C23.75 8.91848 23.8817 8.60054 24.1161 8.36612C24.3505 8.1317 24.6685 8 25 8C25.3315 8 25.6495 8.1317 25.8839 8.36612C26.1183 8.60054 26.25 8.91848 26.25 9.25V20.5C26.248 22.157 25.5889 23.7456 24.4172 24.9172C23.2456 26.0889 21.657 26.748 20 26.75Z" fill="#3462D7"/>
</svg>
