<svg width="68" height="68" viewBox="0 0 68 68" fill="none" xmlns="http://www.w3.org/2000/svg">
<path d="M12.9021 12.9021C13.1874 12.6162 13.5263 12.3893 13.8993 12.2345C14.2724 12.0797 14.6723 12 15.0762 12C15.4802 12 15.8801 12.0797 16.2532 12.2345C16.6262 12.3893 16.9651 12.6162 17.2503 12.9021L33.5008 29.1588L49.7513 12.9021C50.0368 12.6166 50.3757 12.3902 50.7487 12.2357C51.1218 12.0811 51.5216 12.0016 51.9254 12.0016C52.3291 12.0016 52.7289 12.0811 53.102 12.2357C53.475 12.3902 53.814 12.6166 54.0995 12.9021C54.385 13.1877 54.6114 13.5266 54.766 13.8996C54.9205 14.2727 55 14.6725 55 15.0762C55 15.48 54.9205 15.8798 54.766 16.2529C54.6114 16.6259 54.385 16.9648 54.0995 17.2503L37.8429 33.5008L54.0995 49.7513C54.385 50.0368 54.6114 50.3757 54.766 50.7487C54.9205 51.1218 55 51.5216 55 51.9254C55 52.3291 54.9205 52.7289 54.766 53.102C54.6114 53.475 54.385 53.814 54.0995 54.0995C53.814 54.385 53.475 54.6114 53.102 54.766C52.7289 54.9205 52.3291 55 51.9254 55C51.5216 55 51.1218 54.9205 50.7487 54.766C50.3757 54.6114 50.0368 54.385 49.7513 54.0995L33.5008 37.8429L17.2503 54.0995C16.9648 54.385 16.6259 54.6114 16.2529 54.766C15.8798 54.9205 15.48 55 15.0762 55C14.6725 55 14.2727 54.9205 13.8996 54.766C13.5266 54.6114 13.1877 54.385 12.9021 54.0995C12.6166 53.814 12.3902 53.475 12.2357 53.102C12.0811 52.7289 12.0016 52.3291 12.0016 51.9254C12.0016 51.5216 12.0811 51.1218 12.2357 50.7487C12.3902 50.3757 12.6166 50.0368 12.9021 49.7513L29.1588 33.5008L12.9021 17.2503C12.6162 16.9651 12.3893 16.6262 12.2345 16.2532C12.0797 15.8801 12 15.4802 12 15.0762C12 14.6723 12.0797 14.2724 12.2345 13.8993C12.3893 13.5263 12.6162 13.1874 12.9021 12.9021Z" fill="#D58CEF"/>
</svg>
