<svg width="61" height="60" viewBox="0 0 61 60" fill="none" xmlns="http://www.w3.org/2000/svg">
<path d="M42.8824 15.002H18.1193C16.1232 15.002 14.5 16.6246 14.5 18.623V41.3819C14.5 43.378 16.1232 44.9989 18.1193 44.9989H42.8823C44.8784 44.9989 46.4999 43.378 46.4999 41.3819V18.623C46.5 16.6246 44.8785 15.002 42.8824 15.002ZM35.1928 20.3872C37.1231 20.3872 38.6886 21.9528 38.6886 23.883C38.6886 25.8132 37.123 27.3787 35.1928 27.3787C33.262 27.3787 31.6971 25.8132 31.6971 23.883C31.6971 21.9528 33.262 20.3872 35.1928 20.3872ZM41.7474 41.6533H30.4997H19.7531C18.7876 41.6533 18.3576 40.9548 18.7928 40.093L24.7922 28.2102C25.2269 27.3485 26.0554 27.2716 26.6421 28.0383L32.6746 35.9219C33.2613 36.6886 34.2868 36.7539 34.9655 36.0669L36.4413 34.5725C37.1195 33.8855 38.1187 33.9706 38.6722 34.7612L42.4937 40.22C43.0461 41.0118 42.7129 41.6533 41.7474 41.6533Z" fill="#8E488A"/>
<rect x="1" y="0.5" width="59" height="59" rx="9.5" stroke="url(#paint0_linear_1026_15228)"/>
<defs>
<linearGradient id="paint0_linear_1026_15228" x1="30.5" y1="1.49012e-08" x2="31" y2="60" gradientUnits="userSpaceOnUse">
<stop stop-color="#8E488A"/>
<stop offset="1" stop-opacity="0"/>
</linearGradient>
</defs>
</svg>
