<svg width="29" height="29" viewBox="0 0 29 29" fill="none" xmlns="http://www.w3.org/2000/svg">
<path d="M18.2543 16.9171C17.1613 16.9171 16.2702 16.0125 16.2702 14.9027C16.2702 13.7931 17.1613 12.8884 18.2543 12.8884C19.3474 12.8884 20.2386 13.7931 20.2386 14.9027C20.2386 16.0125 19.3474 16.9171 18.2543 16.9171V16.9171ZM18.6048 20.2229C17.249 21.5954 14.6554 21.7038 13.8939 21.7038C13.1322 21.7038 10.5349 21.5954 9.18285 20.2229C8.9812 20.0181 8.9812 19.6894 9.18285 19.4844C9.38481 19.2795 9.7085 19.2795 9.91046 19.4844C10.7634 20.3506 12.5877 20.6599 13.8939 20.6599C15.1964 20.6599 17.0243 20.3506 17.8775 19.4844C18.0791 19.2795 18.4028 19.2795 18.6048 19.4844C18.8029 19.6894 18.8029 20.0181 18.6048 20.2229ZM7.54147 14.9029C7.54147 13.7933 8.43263 12.8886 9.52575 12.8886C10.6187 12.8886 11.5099 13.7933 11.5099 14.9029C11.5099 16.0125 10.6187 16.9174 9.52575 16.9174C8.43263 16.9171 7.54147 16.0125 7.54147 14.9029V14.9029ZM26.5833 12.8886C26.5833 11.3304 25.3418 10.07 23.8069 10.07C23.0567 10.07 22.3787 10.3714 21.88 10.8626C19.9833 9.47075 17.3672 8.57373 14.4536 8.46932L15.718 2.42616L19.8501 3.31941C19.8997 4.38656 20.7602 5.2372 21.823 5.2372C22.9196 5.2372 23.8071 4.33625 23.8071 3.22271C23.8071 2.10933 22.9196 1.20837 21.823 1.20837C21.0421 1.20837 20.3756 1.66844 20.0519 2.33339L15.4362 1.33589C15.3067 1.30885 15.1735 1.33228 15.0629 1.40555C14.9526 1.47898 14.8763 1.59108 14.8498 1.72253C14.8498 1.72253 13.4635 8.42687 13.4635 8.46555C10.4968 8.54275 7.83093 9.44371 5.90396 10.8549C5.4051 10.3678 4.73092 10.07 3.98457 10.07C2.44974 10.07 1.20825 11.3341 1.20825 12.8886C1.20825 14.0329 1.88228 15.0189 2.84964 15.4595C2.80782 15.7381 2.7849 16.024 2.7849 16.3141C2.7849 20.652 7.75861 24.1667 13.8939 24.1667C20.029 24.1667 25.0027 20.652 25.0027 16.3141C25.0027 16.0279 24.98 15.7457 24.9382 15.4674C25.9016 15.0266 26.5833 14.0408 26.5833 12.8886" fill="#1C1C1D"/>
</svg>
