<svg width="61" height="60" viewBox="0 0 61 60" fill="none" xmlns="http://www.w3.org/2000/svg">
<g clip-path="url(#clip0_1026_15228)">
<path d="M48.7072 30.5441C48.5383 30.1984 48.5383 29.8018 48.7072 29.4562L50.2737 26.2516C51.1458 24.4674 50.4548 22.3407 48.7005 21.4099L45.5497 19.7381C45.2098 19.5578 44.9767 19.2369 44.9102 18.858L44.294 15.3447C43.9508 13.3886 42.1414 12.0742 40.1754 12.3523L36.6437 12.8519C36.2625 12.9057 35.8856 12.7832 35.6091 12.5157L33.0455 10.0357C31.6181 8.6548 29.3819 8.65472 27.9546 10.0357L25.391 12.5159C25.1144 12.7835 24.7374 12.9058 24.3563 12.8522L20.8247 12.3526C18.858 12.0743 17.0492 13.3889 16.7061 15.345L16.0898 18.8581C16.0233 19.2371 15.7903 19.5579 15.4504 19.7383L12.2996 21.4101C10.5453 22.3408 9.85427 24.4676 10.7264 26.2519L12.2928 29.4563C12.4618 29.8021 12.4618 30.1986 12.2928 30.5443L10.7263 33.7488C9.85418 35.533 10.5452 37.6597 12.2995 38.5905L15.4503 40.2622C15.7903 40.4425 16.0233 40.7635 16.0898 41.1424L16.7061 44.6556C17.0184 46.4364 18.5453 47.6852 20.3002 47.685C20.4731 47.685 20.6484 47.6729 20.8247 47.648L24.3564 47.1484C24.7373 47.0943 25.1145 47.2171 25.3911 47.4846L27.9546 49.9646C28.6684 50.6551 29.5841 51.0003 30.5 51.0002C31.4157 51.0002 32.3319 50.655 33.0454 49.9646L35.6091 47.4846C35.8857 47.2171 36.2627 47.0949 36.6437 47.1484L40.1754 47.648C42.1423 47.9262 43.9508 46.6117 44.294 44.6556L44.9103 41.1424C44.9768 40.7635 45.2099 40.4426 45.5497 40.2622L48.7005 38.5905C50.4548 37.6597 51.1458 35.5329 50.2737 33.7487L48.7072 30.5441ZM25.6552 19.0995C28.104 19.0995 30.0963 21.0917 30.0963 23.5405C30.0963 25.9893 28.104 27.9816 25.6552 27.9816C23.2064 27.9816 21.2141 25.9893 21.2141 23.5405C21.2141 21.0917 23.2064 19.0995 25.6552 19.0995ZM23.3629 38.85C23.1264 39.0865 22.8164 39.2048 22.5065 39.2048C22.1966 39.2048 21.8865 39.0866 21.6501 38.85C21.1771 38.377 21.1771 37.6101 21.6501 37.1371L37.637 21.1502C38.1099 20.6772 38.8769 20.6772 39.3499 21.1502C39.8229 21.6232 39.8229 22.3901 39.3499 22.8631L23.3629 38.85ZM35.3447 40.9009C32.8959 40.9009 30.9036 38.9087 30.9036 36.4599C30.9036 34.0111 32.8959 32.0188 35.3447 32.0188C37.7935 32.0188 39.7857 34.0111 39.7857 36.4599C39.7857 38.9087 37.7935 40.9009 35.3447 40.9009Z" fill="#8E488A"/>
<path d="M35.3447 34.4414C34.2317 34.4414 33.326 35.3469 33.326 36.46C33.326 37.5731 34.2316 38.4786 35.3447 38.4786C36.4578 38.4786 37.3634 37.5731 37.3634 36.46C37.3634 35.3469 36.4578 34.4414 35.3447 34.4414Z" fill="#8E488A"/>
<path d="M25.6552 21.5215C24.5421 21.5215 23.6366 22.427 23.6366 23.5401C23.6366 24.6532 24.5421 25.5588 25.6552 25.5588C26.7683 25.5588 27.6739 24.6533 27.6739 23.5401C27.6738 22.4271 26.7683 21.5215 25.6552 21.5215Z" fill="#8E488A"/>
</g>
<rect x="1" y="0.5" width="59" height="59" rx="9.5" stroke="url(#paint0_linear_1026_15228)"/>
<defs>
<linearGradient id="paint0_linear_1026_15228" x1="30.5" y1="1.49012e-08" x2="31" y2="60" gradientUnits="userSpaceOnUse">
<stop stop-color="#8E488A"/>
<stop offset="1" stop-opacity="0"/>
</linearGradient>
<clipPath id="clip0_1026_15228">
<rect width="42" height="42" fill="white" transform="translate(9.5 9)"/>
</clipPath>
</defs>
</svg>
