<svg width="27" height="27" viewBox="0 0 27 27" fill="none" xmlns="http://www.w3.org/2000/svg">
<rect width="27" height="27" rx="13.5" fill="#00BDF9"/>
<path d="M21.3084 8.64521C20.7212 8.89969 20.1144 9.07586 19.4684 9.15416C20.1339 8.76266 20.6429 8.13626 20.8778 7.37284C20.2514 7.74476 19.5663 7.99924 18.842 8.15584C18.2547 7.52944 17.413 7.13794 16.493 7.13794C14.7117 7.13794 13.2827 8.58649 13.2827 10.3482C13.2827 10.6027 13.3023 10.8376 13.361 11.0725C10.6988 10.9551 8.34979 9.66311 6.76421 7.72519C5.62886 9.76099 6.90124 11.4444 7.74296 12.0121C7.23401 12.0121 6.72506 11.8555 6.29441 11.6206C6.29441 13.2062 7.41019 14.5177 8.85874 14.8113C8.54554 14.9092 7.84084 14.9679 7.41019 14.8701C7.82126 16.1424 9.01534 17.082 10.4052 17.1016C9.30896 17.9629 7.70381 18.648 5.64844 18.4327C7.07741 19.3527 8.76086 19.8813 10.5813 19.8813C16.493 19.8813 19.7033 14.9875 19.7033 10.7593C19.7033 10.6223 19.7033 10.4853 19.6837 10.3482C20.3493 9.85886 20.8974 9.29119 21.3084 8.64521V8.64521Z" fill="white"/>
</svg>
