<svg width="21" height="22" viewBox="0 0 21 22" fill="none" xmlns="http://www.w3.org/2000/svg">
<path d="M18.5981 12.7456C18.8938 12.5492 19.1439 12.2919 19.3318 11.9908C19.5197 11.6897 19.641 11.3519 19.6875 11C19.641 10.6482 19.5197 10.3103 19.3318 10.0092C19.1439 9.70816 18.8938 9.45077 18.5981 9.25438C18.3622 9.06011 18.1584 8.82977 17.9944 8.57189C17.9599 8.24525 17.9911 7.91501 18.0863 7.60064C18.2012 7.27338 18.2465 6.92574 18.2194 6.57996C18.1923 6.23417 18.0933 5.89785 17.9287 5.59251C17.6858 5.34236 17.3935 5.1455 17.0704 5.01444C16.7473 4.88339 16.4004 4.821 16.0519 4.83126C15.7368 4.81718 15.4263 4.75064 15.1331 4.63439C14.9266 4.39473 14.7664 4.1188 14.6606 3.82064C14.5624 3.48147 14.3936 3.16694 14.1651 2.89773C13.9366 2.62853 13.6537 2.41077 13.335 2.25876C12.9982 2.19855 12.6526 2.20949 12.3203 2.29087C11.988 2.37224 11.6765 2.52226 11.4056 2.73126C11.1311 2.91809 10.8239 3.05166 10.5 3.12501C10.1761 3.05166 9.86891 2.91809 9.59437 2.73126C9.32391 2.52158 9.01236 2.37115 8.67996 2.28975C8.34756 2.20834 8.00175 2.19779 7.665 2.25876C7.3463 2.41077 7.0634 2.62853 6.83492 2.89773C6.60644 3.16694 6.43755 3.48147 6.33938 3.82064C6.23362 4.1188 6.0734 4.39473 5.86687 4.63439C5.5737 4.75064 5.26319 4.81718 4.94812 4.83126C4.59959 4.821 4.25273 4.88339 3.92961 5.01444C3.60648 5.1455 3.31417 5.34236 3.07125 5.59251C2.90672 5.89785 2.80774 6.23417 2.78062 6.57996C2.7535 6.92574 2.79884 7.27338 2.91375 7.60064C3.00889 7.91501 3.04013 8.24525 3.00563 8.57189C2.84159 8.82977 2.63783 9.06011 2.40188 9.25438C2.10625 9.45077 1.85608 9.70816 1.66818 10.0092C1.48028 10.3103 1.35901 10.6482 1.3125 11C1.35901 11.3519 1.48028 11.6897 1.66818 11.9908C1.85608 12.2919 2.10625 12.5492 2.40188 12.7456C2.63783 12.9399 2.84159 13.1702 3.00563 13.4281C3.04013 13.7548 3.00889 14.085 2.91375 14.3994C2.79884 14.7266 2.7535 15.0743 2.78062 15.4201C2.80774 15.7658 2.90672 16.1022 3.07125 16.4075C3.31417 16.6577 3.60648 16.8545 3.92961 16.9856C4.25273 17.1166 4.59959 17.179 4.94812 17.1688C5.26319 17.1828 5.5737 17.2494 5.86687 17.3656C6.0734 17.6053 6.23362 17.8812 6.33938 18.1794C6.43755 18.5186 6.60644 18.8331 6.83492 19.1023C7.0634 19.3715 7.3463 19.5893 7.665 19.7413C8.00176 19.8015 8.3474 19.7905 8.67968 19.7092C9.01197 19.6278 9.32354 19.4778 9.59437 19.2688C9.86891 19.0819 10.1761 18.9484 10.5 18.875C10.8239 18.9484 11.1311 19.0819 11.4056 19.2688C11.8536 19.5664 12.367 19.751 12.9019 19.8069C13.049 19.8108 13.1957 19.7886 13.335 19.7413C13.6537 19.5893 13.9366 19.3715 14.1651 19.1023C14.3936 18.8331 14.5624 18.5186 14.6606 18.1794C14.7664 17.8812 14.9266 17.6053 15.1331 17.3656C15.4263 17.2494 15.7368 17.1828 16.0519 17.1688C16.4004 17.179 16.7473 17.1166 17.0704 16.9856C17.3935 16.8545 17.6858 16.6577 17.9287 16.4075C18.0933 16.1022 18.1923 15.7658 18.2194 15.4201C18.2465 15.0743 18.2012 14.7266 18.0863 14.3994C17.9911 14.085 17.9599 13.7548 17.9944 13.4281C18.1584 13.1702 18.3622 12.9399 18.5981 12.7456ZM13.5844 9.71376L10.0931 13.2181C9.96672 13.3362 9.80018 13.4019 9.62719 13.4019C9.4542 13.4019 9.28766 13.3362 9.16125 13.2181L7.41563 11.4594C7.29582 11.3371 7.2291 11.1725 7.22996 11.0014C7.23083 10.8302 7.29921 10.6663 7.42024 10.5453C7.54128 10.4242 7.70519 10.3558 7.87636 10.355C8.04753 10.3541 8.21212 10.4208 8.33437 10.5406L9.62062 11.8269L12.6656 8.78189C12.7885 8.66198 12.9533 8.59487 13.125 8.59487C13.2967 8.59487 13.4615 8.66198 13.5844 8.78189C13.6467 8.84244 13.6962 8.91488 13.73 8.99491C13.7638 9.07494 13.7812 9.16094 13.7812 9.24782C13.7812 9.3347 13.7638 9.4207 13.73 9.50073C13.6962 9.58076 13.6467 9.6532 13.5844 9.71376Z" fill="#D58CEF"/>
</svg>
