<svg width="61" height="60" viewBox="0 0 61 60" fill="none" xmlns="http://www.w3.org/2000/svg">
<g clip-path="url(#clip0_1026_15228)">
<path d="M20.9129 19.2999L35.2643 15.3826L34.5043 13.8463C34.0071 12.8478 32.7943 12.4354 31.7957 12.9327L18.9481 19.2999H20.9129Z" fill="#8E488A"/>
<path d="M39.7194 15.4961C39.5415 15.4961 39.3636 15.5203 39.1857 15.5689L35.8142 16.4906L25.5175 19.3002H37.2048H42.2986L41.6679 16.9878C41.4254 16.0863 40.6088 15.4961 39.7194 15.4961Z" fill="#8E488A"/>
<path d="M44.4048 20.7148H43.9439H43.3173H42.6907H37.9082H20.3347H18.0304H16.0899H15.7301H14.5254C13.8866 20.7148 13.3166 21.01 12.9447 21.4749C12.7749 21.6891 12.6455 21.9357 12.5728 22.2066C12.5283 22.3764 12.5 22.5543 12.5 22.7362V22.9787V25.2831V45.2579C12.5 46.3737 13.4056 47.2792 14.5213 47.2792H44.4007C45.5165 47.2792 46.4221 46.3737 46.4221 45.2579V39.6184H34.4275C32.5314 39.6184 30.9912 38.0781 30.9912 36.1821V34.3306V33.704V33.0773V31.6867C30.9912 30.7568 31.3631 29.912 31.9655 29.2934C32.4991 28.7436 33.2147 28.3717 34.0151 28.2787C34.1485 28.2626 34.286 28.2544 34.4234 28.2544H44.7403H45.3669H45.9935H46.4221V22.7362C46.4261 21.6204 45.5206 20.7148 44.4048 20.7148Z" fill="#8E488A"/>
<path d="M47.8411 30.1868C47.6389 30.0008 47.4004 29.8593 47.1336 29.7663C46.9274 29.6977 46.7091 29.6572 46.4787 29.6572H46.4261H46.3857H45.7591H43.4992H34.4275C33.3116 29.6572 32.4061 30.5627 32.4061 31.6786V32.6851V33.3118V33.9384V36.178C32.4061 37.2938 33.3116 38.1994 34.4275 38.1994H46.4261H46.4787C46.7091 38.1994 46.9274 38.1589 47.1336 38.0902C47.4004 38.0013 47.6389 37.8557 47.8411 37.6698C48.2453 37.3019 48.5 36.7682 48.5 36.1781V31.6786C48.5 31.0883 48.2453 30.5546 47.8411 30.1868ZM38.648 34.3305C38.648 34.8884 38.1952 35.3412 37.6373 35.3412H36.9663C36.4084 35.3412 35.9556 34.8884 35.9556 34.3305V33.6594C35.9556 33.336 36.1052 33.0489 36.3437 32.867C36.5175 32.7336 36.7318 32.6488 36.9663 32.6488H37.1361H37.6373C38.1952 32.6488 38.648 33.1015 38.648 33.6594V34.3305Z" fill="#8E488A"/>
</g>
<rect x="1" y="0.5" width="59" height="59" rx="9.5" stroke="url(#paint0_linear_1026_15228)"/>
<defs>
<linearGradient id="paint0_linear_1026_15228" x1="30.5" y1="1.49012e-08" x2="31" y2="60" gradientUnits="userSpaceOnUse">
<stop stop-color="#8E488A"/>
<stop offset="1" stop-opacity="0"/>
</linearGradient>
<clipPath id="clip0_1026_15228">
<rect width="36" height="36" fill="white" transform="translate(12.5 12)"/>
</clipPath>
</defs>
</svg>
