<svg width="31" height="30" viewBox="0 0 31 30" fill="none" xmlns="http://www.w3.org/2000/svg">
<path d="M15.5 30C7.21001 30 0.490011 23.28 0.500011 14.99C0.510011 6.7 7.22001 0 15.51 0C23.78 0 30.48 6.71 30.5 14.99C30.51 23.27 23.79 30 15.5 30ZM11.07 20.66C14.2 20.67 16.73 18.17 16.75 15.03C16.77 11.9 14.27 9.37 11.13 9.34C7.99002 9.32 5.45 11.83 5.43 14.98C5.42 18.1 7.93001 20.64 11.06 20.65L11.07 20.66ZM17.29 14.87C17.29 15.94 17.41 16.88 17.74 17.8C18 18.53 18.34 19.21 18.93 19.72C19.71 20.4 20.64 20.41 21.39 19.69C21.73 19.37 22.04 18.97 22.24 18.55C23.2 16.55 23.24 14.48 22.62 12.38C22.39 11.61 22.04 10.91 21.44 10.35C20.66 9.62 19.71 9.6 18.91 10.31C18.67 10.53 18.45 10.79 18.28 11.07C17.54 12.26 17.31 13.59 17.29 14.87V14.87ZM23.57 15.41C23.6 15.85 23.64 16.71 23.74 17.56C23.8 18.1 23.95 18.63 24.1 19.16C24.17 19.41 24.25 19.75 24.58 19.75C24.9 19.75 24.96 19.4 25.06 19.15C25.14 18.94 25.2 18.72 25.25 18.5C25.68 16.33 25.67 14.15 25.34 11.96C25.28 11.59 25.18 11.21 25.06 10.85C24.98 10.6 24.9 10.26 24.58 10.25C24.25 10.25 24.2 10.6 24.09 10.83C24.03 10.96 23.99 11.11 23.96 11.25C23.65 12.47 23.59 13.72 23.57 15.4V15.41Z" fill="white"/>
</svg>
