<svg width="26" height="31" viewBox="0 0 26 31" fill="none" xmlns="http://www.w3.org/2000/svg">
<path d="M0.640015 5.18987C1.29001 4.69987 1.89001 4.22987 2.51001 3.78987C2.59001 3.72987 2.76 3.76987 2.88 3.80987C5.68 4.73987 8.46999 5.66987 11.27 6.59987C13.18 7.23987 15.09 7.87987 17 8.50987C18.83 9.11987 19.89 10.5899 19.89 12.5099C19.89 17.7999 19.89 23.0999 19.89 28.3899C19.89 28.6399 19.83 28.7899 19.62 28.9399C19 29.3799 18.41 29.8399 17.74 30.3399V29.8999C17.74 24.1599 17.74 18.4199 17.74 12.6799C17.74 11.4599 17.23 10.7499 16.08 10.3699C11.06 8.68987 6.03999 7.00987 1.01999 5.32987C0.909989 5.28987 0.800015 5.24987 0.640015 5.18987V5.18987Z" fill="white"/>
<path d="M23.03 26.2899V25.8699C23.03 20.2799 23.03 14.6799 23.03 9.08991C23.03 8.24991 22.76 7.55991 22.05 7.08991C21.88 6.97991 21.67 6.89991 21.48 6.82991C16.29 5.08991 11.09 3.35991 5.89999 1.62991C5.80999 1.59991 5.70999 1.56991 5.54999 1.50991C5.77999 1.32991 5.97999 1.17991 6.17999 1.02991C6.55999 0.739906 6.93999 0.439906 7.32999 0.169906C7.43999 0.0999064 7.61999 0.0499064 7.73999 0.0899064C12.65 1.71991 17.56 3.33991 22.46 4.98991C24.1 5.53991 25.17 7.02991 25.18 8.77991C25.19 14.0199 25.18 19.2599 25.18 24.4899C25.18 24.5999 25.13 24.7599 25.04 24.8299C24.44 25.2999 23.82 25.7599 23.2 26.2199C23.17 26.2399 23.12 26.2499 23.04 26.2899H23.03Z" fill="white"/>
<path d="M14.51 26.8697V28.9997C13.96 28.8197 13.43 28.6597 12.91 28.4797C9.75 27.4397 6.6 26.3897 3.44 25.3497C1.75 24.7897 0.619995 23.2797 0.619995 21.5297C0.619995 17.2597 0.619995 12.9897 0.619995 8.71967C0.619995 8.62967 0.619995 8.53967 0.619995 8.40967C1.31 8.63967 1.98001 8.83967 2.64001 9.07967C2.71001 9.09967 2.76001 9.26967 2.76001 9.37967C2.76001 10.5197 2.76001 11.6497 2.76001 12.7897C2.76001 15.6297 2.76001 18.4697 2.76001 21.3197C2.76001 22.4797 3.29 23.2097 4.38 23.5597C7.66 24.6297 10.93 25.6997 14.21 26.7697C14.3 26.7997 14.4 26.8297 14.51 26.8697V26.8697Z" fill="white"/>
<path d="M14.52 20.5598V22.6798C14.42 22.6498 14.32 22.6398 14.24 22.6098C12.73 22.0998 11.22 21.5998 9.72001 21.0798C8.19001 20.5498 7.07 19.0498 7.05 17.4598C7.03 15.2198 7.05 12.9798 7.05 10.7398C7.05 10.6998 7.05002 10.6498 7.07002 10.5698C7.75002 10.7898 8.41002 10.9998 9.07002 11.2298C9.14002 11.2598 9.19001 11.4398 9.19001 11.5598C9.19001 13.3998 9.22001 15.2398 9.19001 17.0798C9.17001 18.0598 9.74999 19.0498 10.86 19.3698C12.1 19.7198 13.31 20.1698 14.54 20.5698L14.52 20.5598Z" fill="white"/>
</svg>
