<svg width="34" height="26" viewBox="0 0 34 26" fill="none" xmlns="http://www.w3.org/2000/svg">
<path d="M12.25 0.610078H12.4C12.72 1.17008 13.01 1.75008 13.26 2.35008C15.73 1.98008 18.2 1.99008 20.66 2.35008C20.68 2.30008 20.7 2.27008 20.72 2.23008C20.86 1.92008 21 1.62008 21.15 1.31008C21.27 1.07008 21.39 0.840078 21.52 0.600078C21.57 0.600078 21.62 0.600078 21.67 0.600078C21.79 0.630078 21.92 0.650078 22.04 0.680078C23.11 0.890078 24.16 1.15008 25.19 1.48008C26.19 1.80008 27.18 2.18008 28.14 2.62008C28.2 2.65008 28.25 2.69008 28.28 2.74008C28.46 3.02008 28.65 3.31008 28.83 3.59008C29.45 4.57008 30.01 5.58008 30.51 6.62008C30.87 7.38008 31.2 8.14008 31.49 8.93008C31.83 9.84008 32.12 10.7601 32.35 11.6901C32.52 12.3501 32.66 13.0201 32.77 13.6901C32.84 14.1101 32.9 14.5201 32.95 14.9401C32.99 15.2501 33.02 15.5501 33.05 15.8601C33.08 16.2601 33.13 16.6601 33.14 17.0601C33.15 17.8101 33.14 18.5601 33.14 19.3101C33.14 19.5601 33.13 19.8001 33.11 20.0501C33.09 20.4001 33.05 20.7501 33.03 21.0901C33.03 21.1801 33 21.2401 32.93 21.2901C32.36 21.7001 31.78 22.1001 31.19 22.4701C30.21 23.0901 29.19 23.6401 28.13 24.1201C27.21 24.5401 26.27 24.9001 25.31 25.2201C25.17 25.2601 25.04 25.3101 24.9 25.3601H24.8C24.7 25.2201 24.6 25.0801 24.5 24.9401C24.08 24.3301 23.69 23.7001 23.34 23.0501C23.27 22.9201 23.2 22.7901 23.14 22.6701C23.08 22.5601 23.1 22.5101 23.21 22.4601H23.24C23.87 22.2101 24.48 21.9301 25.07 21.6101C25.27 21.5101 25.46 21.4001 25.65 21.2901C25.76 21.2201 25.77 21.1501 25.66 21.0701C25.51 20.9601 25.37 20.8401 25.22 20.7301C25.16 20.6801 25.11 20.6801 25.04 20.7101C24.93 20.7601 24.81 20.8101 24.7 20.8601C23.74 21.2801 22.76 21.6301 21.74 21.8901C21.09 22.0601 20.43 22.2001 19.76 22.2901C19.34 22.3501 18.92 22.3901 18.5 22.4301C18.17 22.4601 17.84 22.4901 17.5 22.4901C17.07 22.4901 16.64 22.4901 16.21 22.4701C15.85 22.4601 15.49 22.4301 15.13 22.4001C14.51 22.3501 13.9 22.2501 13.3 22.1301C12.26 21.9301 11.25 21.6401 10.26 21.2701C9.78003 21.0901 9.31001 20.8901 8.84001 20.6901C8.76001 20.6501 8.70002 20.6601 8.63002 20.7201C8.50002 20.8301 8.36003 20.9301 8.23003 21.0301C8.21003 21.0501 8.18003 21.0601 8.17003 21.0901C8.12003 21.1401 8.13003 21.1901 8.17003 21.2401C8.19003 21.2601 8.21003 21.2701 8.23003 21.2801C8.86003 21.6401 9.51003 21.9701 10.17 22.2501C10.34 22.3201 10.51 22.3801 10.67 22.4501C10.76 22.4901 10.78 22.5401 10.74 22.6301C10.74 22.6501 10.72 22.6701 10.71 22.7001C10.47 23.1301 10.23 23.5701 9.97002 24.0001C9.69002 24.4701 9.38001 24.9101 9.06001 25.3501H8.96001C8.88001 25.3201 8.80002 25.2901 8.72002 25.2701C7.82002 24.9801 6.93001 24.6501 6.06001 24.2601C5.35001 23.9501 4.64002 23.6101 3.96002 23.2201C3.40002 22.9101 2.85002 22.5801 2.32002 22.2301C1.85002 21.9301 1.39001 21.5901 0.930008 21.2701C0.870008 21.2301 0.840012 21.1801 0.840012 21.1001C0.840012 20.9601 0.820013 20.8301 0.810013 20.6901C0.790013 20.3901 0.770015 20.0901 0.750015 19.7901C0.740015 19.5401 0.730016 19.2801 0.720016 19.0301C0.720016 19.0101 0.710012 18.9901 0.700012 18.9801V17.6701C0.700012 17.6701 0.720016 17.6401 0.720016 17.6301C0.720016 17.4901 0.740021 17.3501 0.740021 17.2101C0.740021 17.0401 0.75001 16.8701 0.76001 16.7001C0.78001 16.3801 0.800017 16.0501 0.830017 15.7301C0.870017 15.3401 0.910022 14.9501 0.960022 14.5601C1.05002 13.8801 1.17002 13.2101 1.32002 12.5401C1.58002 11.3601 1.92002 10.2001 2.33002 9.07008C2.66002 8.18008 3.03001 7.30008 3.45001 6.45008C3.82001 5.68008 4.22002 4.93008 4.66002 4.20008C4.96002 3.70008 5.28001 3.21008 5.59001 2.72008C5.62001 2.68008 5.66001 2.63008 5.71001 2.61008C6.00001 2.48008 6.30001 2.35008 6.59001 2.22008C7.59001 1.80008 8.62003 1.45008 9.67003 1.16008C10.37 0.970078 11.07 0.800078 11.78 0.670078C11.92 0.640078 12.05 0.610078 12.19 0.580078L12.25 0.610078ZM25.27 14.2101C25.27 13.8101 25.24 13.5501 25.12 13.1601C24.85 12.2801 24.33 11.6101 23.49 11.2101C22.97 10.9601 22.43 10.8901 21.87 11.0001C21 11.1701 20.37 11.6801 19.93 12.4201C19.54 13.0801 19.4 13.8001 19.47 14.5601C19.51 15.0101 19.63 15.4401 19.84 15.8401C20.16 16.4601 20.61 16.9401 21.24 17.2401C21.9 17.5501 22.57 17.5801 23.26 17.3401C23.87 17.1301 24.34 16.7301 24.7 16.2001C25.1 15.6001 25.28 14.9301 25.28 14.2001L25.27 14.2101ZM11.58 17.5001C11.64 17.5001 11.71 17.5001 11.77 17.5001C11.79 17.5001 11.8 17.5001 11.82 17.5001C12.57 17.4301 13.18 17.0901 13.67 16.5201C14.18 15.9301 14.44 15.2301 14.49 14.4601C14.51 14.1401 14.49 13.8101 14.43 13.4901C14.23 12.5601 13.76 11.8201 12.93 11.3301C12.36 11.0001 11.75 10.8901 11.1 11.0101C10.38 11.1401 9.81002 11.5301 9.38002 12.1001C8.79002 12.8701 8.59001 13.7601 8.71001 14.7101C8.81001 15.4901 9.13001 16.1701 9.71001 16.7301C10.23 17.2301 10.86 17.5101 11.59 17.5101L11.58 17.5001Z" fill="white"/>
</svg>
