<svg width="31" height="31" viewBox="0 0 31 31" fill="none" xmlns="http://www.w3.org/2000/svg">
<path d="M14.99 0.999961C15.58 0.999961 16.16 0.999961 16.75 0.999961C16.83 1.01996 16.9 1.03996 16.98 1.04996C19.56 1.22996 21.94 2.03996 24.08 3.47996C27.64 5.87996 29.84 9.18996 30.64 13.42C30.75 13.98 30.8 14.55 30.88 15.12V16.7C30.86 16.8 30.84 16.91 30.83 17.01C30.74 18.49 30.42 19.92 29.91 21.31C29.06 23.61 27.76 25.61 25.99 27.31C24.67 28.58 23.18 29.6 21.48 30.29C20.83 30.55 20.17 30.76 19.51 30.99H19.39C19.39 28.87 19.39 26.75 19.39 24.63C19.39 23.9 19.18 23.23 18.73 22.64C18.59 22.46 18.46 22.26 18.31 22.05C18.4 22.03 18.44 22.02 18.49 22.01C19.43 21.84 20.35 21.59 21.22 21.16C24.03 19.79 25.45 16.62 24.58 13.61C24.34 12.77 23.91 12.01 23.42 11.29C23.29 11.1 23.28 10.92 23.31 10.69C23.4 10.14 23.48 9.56996 23.49 9.00996C23.49 8.35996 23.33 7.72996 23.07 7.10996C22.64 7.18996 22.21 7.19996 21.85 7.35996C21.04 7.70996 20.27 8.14996 19.47 8.53996C19.3 8.61996 19.08 8.64996 18.9 8.61996C18.09 8.50996 17.29 8.32996 16.48 8.24996C15.28 8.13996 14.09 8.31996 12.92 8.61996C12.69 8.67996 12.49 8.65996 12.28 8.51996C11.97 8.31996 11.64 8.13996 11.32 7.94996C10.51 7.47996 9.66 7.13996 8.69 7.14996C8.24 8.31996 8.12999 9.51996 8.45999 10.75C8.49999 10.89 8.47001 11.09 8.39001 11.2C7.57001 12.26 7.14 13.46 7.03 14.78C6.86 16.69 7.38001 18.37 8.70001 19.78C9.72001 20.87 11.02 21.46 12.45 21.81C12.77 21.89 13.1 21.95 13.45 22.03C13.4 22.11 13.37 22.16 13.34 22.21C12.93 22.75 12.55 23.3 12.46 24C12.46 24.06 12.38 24.14 12.33 24.16C11.64 24.4 10.96 24.44 10.38 23.92C10.11 23.69 9.94001 23.35 9.70001 23.08C9.32001 22.66 8.96 22.22 8.53 21.87C7.99 21.43 7.34001 21.23 6.60001 21.3L6.76001 23.03C7.18001 23.05 7.50999 23.21 7.76999 23.5C8.01999 23.79 8.25 24.09 8.47 24.4C9.27 25.56 10.35 26.15 11.77 26.08C11.97 26.08 12.17 26.03 12.39 26.01V30.96H12.27C12.21 30.93 12.15 30.9 12.09 30.88C9.1 30.04 6.62 28.4 4.63 26.03C2.76 23.81 1.58999 21.26 1.10999 18.4C1.00999 17.83 0.969994 17.24 0.899994 16.66V15.08C0.919994 14.87 0.950001 14.66 0.970001 14.45C1.26 11.79 2.17001 9.35996 3.76001 7.19996C6.16001 3.94996 9.34001 1.92996 13.32 1.19996C13.88 1.09996 14.46 1.03996 15.02 0.959961L14.99 0.999961Z" fill="white"/>
</svg>
