<svg width="31" height="30" viewBox="0 0 31 30" fill="none" xmlns="http://www.w3.org/2000/svg">
<path d="M15.75 0C7.47 0 0.75 6.72 0.75 15C0.75 23.28 7.47 30 15.75 30C24.03 30 30.75 23.28 30.75 15C30.75 6.72 24.03 0 15.75 0ZM23.06 9.54C22.97 10.92 20.42 21.2 20.42 21.2C20.42 21.2 20.27 21.8 19.72 21.82C19.52 21.82 19.28 21.79 18.99 21.54C18.41 21.04 17.08 20.09 15.83 19.24C15.45 19.56 14.71 20.2 13.93 20.98C12.83 22.08 12.97 20.98 12.97 20.98L13.31 17.4L13.35 17.34C13.35 17.34 19.82 11.59 19.99 10.99C20 10.94 19.95 10.92 19.89 10.94C19.46 11.1 12.01 15.8 11.19 16.32C11.14 16.35 11.01 16.33 11.01 16.33L7.4 15.15C7.4 15.15 6.97 14.97 7.11 14.58C7.14 14.5 7.2 14.43 7.37 14.31C8.17 13.75 22.19 8.71 22.19 8.71C22.19 8.71 22.59 8.58 22.82 8.67C22.93 8.71 23 8.76 23.05 8.92C23.07 8.98 23.08 9.11 23.08 9.24C23.08 9.33 23.07 9.42 23.06 9.55V9.54Z" fill="white"/>
</svg>
