<svg width="32" height="26" viewBox="0 0 32 26" fill="none" xmlns="http://www.w3.org/2000/svg">
<path d="M9.84 25.6398C21.58 25.6398 28 15.9098 28 7.47984C28 7.19984 28 6.92984 27.98 6.64984C29.23 5.74984 30.31 4.61984 31.16 3.33984C30.02 3.84984 28.79 4.18984 27.49 4.33984C28.81 3.54984 29.82 2.29984 30.3 0.809844C29.07 1.53984 27.7 2.06984 26.25 2.35984C25.09 1.11984 23.43 0.339844 21.59 0.339844C18.06 0.339844 15.21 3.19984 15.21 6.71984C15.21 7.21984 15.27 7.70984 15.38 8.17984C10.07 7.90984 5.37 5.36984 2.22 1.50984C1.67 2.44984 1.36 3.54984 1.36 4.71984C1.36 6.92984 2.49 8.88984 4.2 10.0298C3.15 9.99984 2.17 9.70984 1.31 9.22984C1.31 9.25984 1.31 9.27984 1.31 9.30984C1.31 12.3998 3.50999 14.9798 6.42999 15.5698C5.88999 15.7198 5.33 15.7898 4.75 15.7898C4.34 15.7898 3.94 15.7498 3.55 15.6698C4.36 18.2098 6.71999 20.0498 9.50999 20.0998C7.31999 21.8098 4.57 22.8298 1.58 22.8298C1.06 22.8298 0.559998 22.7998 0.0599976 22.7398C2.89 24.5498 6.24001 25.6098 9.85001 25.6098" fill="white"/>
</svg>
