<svg width="37" height="26" viewBox="0 0 37 26" fill="none" xmlns="http://www.w3.org/2000/svg">
<path d="M36.43 9.19008C36.42 8.77008 36.39 8.35008 36.36 7.92008C36.22 6.13008 36.02 4.08008 34.84 2.65008C33.83 1.43008 32.26 1.15008 30.78 0.980079C28.9 0.770079 27.01 0.640079 25.11 0.570079C21.28 0.420079 17.44 0.510079 13.6 0.590079C11.63 0.630079 9.66001 0.680079 7.69001 0.830079C5.28001 1.02008 2.80002 1.38008 1.67002 3.79008C0.660019 5.95008 0.789995 8.70008 0.769995 11.0301C0.759995 13.1201 0.750002 15.2101 0.840002 17.2901C0.950002 20.0001 1.11 23.5201 4.03 24.7101C5.59 25.3401 7.47002 25.4901 9.14002 25.5901C10.91 25.7001 12.68 25.6901 14.44 25.7201C18.15 25.7801 21.86 25.6501 25.57 25.5701C28.15 25.5201 30.79 25.4901 33.25 24.6501C35.38 23.9201 35.93 21.6201 36.22 19.6201C36.51 17.6301 36.43 15.6201 36.43 13.6201C36.43 12.1401 36.47 10.6601 36.42 9.18008L36.43 9.19008ZM15 18.5101V7.65008C18.08 9.46008 21.12 11.2501 24.24 13.0801C21.14 14.9001 18.09 16.6901 15 18.5101Z" fill="white"/>
</svg>
