<svg width="28" height="25" viewBox="0 0 28 25" fill="none" xmlns="http://www.w3.org/2000/svg">
<path d="M14.668 7.16675V13.8334L20.3746 17.2201L21.3346 15.6001L16.668 12.8334V7.16675H14.668Z" fill="white"/>
<path d="M15.9933 0.5C9.36 0.5 4 5.87331 4 12.5H0L5.19331 17.6933L5.28662 17.8866L10.6667 12.5H6.66669C6.66669 7.34669 10.8467 3.16669 16 3.16669C21.1533 3.16669 25.3333 7.34669 25.3333 12.5C25.3333 17.6533 21.1533 21.8333 16 21.8333C13.42 21.8333 11.0933 20.78 9.40669 19.0933L7.52 20.98C9.68669 23.1533 12.68 24.5 15.9933 24.5C22.6267 24.5 28 19.1267 28 12.5C28 5.87331 22.6267 0.5 15.9933 0.5Z" fill="white"/>
</svg>
