<svg width="25" height="25" viewBox="0 0 25 25" fill="none" xmlns="http://www.w3.org/2000/svg">
<path d="M24.4163 4.11443C24.3716 4.00129 24.2686 3.92168 24.1478 3.90691C24.0274 3.89219 23.908 3.94464 23.8374 4.04367C23.4179 4.63171 22.8676 4.82772 22.23 5.05472C21.716 5.23784 21.1843 5.42705 20.6098 5.83955C19.7973 6.42289 19.4256 7.21806 19.6109 7.97174L19.5911 7.99714C19.2518 7.50492 18.8826 7.04965 18.493 6.64313C16.6703 4.7412 14.1233 3.59776 11.505 3.50609C11.3896 3.50205 11.2724 3.5 11.1566 3.5C8.23291 3.5 5.4345 4.80698 3.47896 7.08573C1.53365 9.35269 0.671422 12.3037 1.11346 15.1822C1.15042 15.4228 1.19667 15.6659 1.25105 15.9049C1.97005 19.0695 3.80642 21.477 6.28937 22.5097C6.90142 22.7643 7.51878 22.8933 8.12408 22.8933C9.62796 22.8933 10.9415 22.0889 11.7281 20.6865C12.027 20.1528 12.22 19.6009 12.3012 19.046C12.3491 18.7185 12.3164 18.3913 12.2846 18.0742C12.2519 17.7477 12.2211 17.4393 12.2705 17.1287C12.3837 16.4167 12.881 15.9916 13.6008 15.9916C13.8056 15.9916 14.0148 16.0253 14.2238 16.0918C13.9792 16.5405 13.757 16.9689 13.5628 17.3661C13.1514 18.2077 12.8676 18.9046 12.719 19.4374C12.6275 19.766 12.3842 20.6392 12.9774 21.0509C13.1658 21.1816 13.4046 21.2277 13.6532 21.1815C13.8772 21.1399 14.5588 21.0133 16.4956 18.8083C17.0155 18.2166 17.5756 17.5319 18.1611 16.7727C19.6641 16.2665 20.8338 15.0067 21.1432 13.5591C21.2207 13.1972 21.253 12.81 21.2392 12.4077C21.802 11.538 22.2956 10.7265 22.7923 9.85415C22.8018 9.83733 22.8112 9.8194 22.8205 9.80104C23.5414 9.60358 24.1623 9.04254 24.5268 8.25799C25.0589 7.11294 25.0197 5.64132 24.4163 4.11443ZM16.2908 9.53648C16.03 9.95058 15.5818 10.1978 15.0917 10.1978C14.8256 10.1978 14.5653 10.1225 14.339 9.98001C14.0191 9.77852 13.7967 9.46455 13.713 9.09593C13.6293 8.7273 13.6939 8.34806 13.8954 8.02812C14.1562 7.61402 14.6045 7.36677 15.0946 7.36677C15.3608 7.36677 15.621 7.44207 15.8472 7.58464C16.1671 7.78602 16.3895 8.09998 16.4733 8.46866C16.557 8.83734 16.4922 9.21654 16.2908 9.53648ZM18.1279 12.1009C18.8435 11.0466 19.6002 9.9986 20.319 9.06639C20.4355 9.17161 20.5658 9.2744 20.7069 9.37233C20.9408 9.53459 21.1853 9.66007 21.4352 9.74599C20.8283 10.7838 20.1758 11.8119 19.3858 12.9755C18.0877 14.8881 16.7381 16.6648 15.5853 17.9782C14.9415 18.7118 14.378 19.2782 13.9438 19.629C14.1114 19.0929 14.4316 18.3571 14.8774 17.4854C15.6744 15.9265 16.8288 14.0143 18.1279 12.1009ZM5.56457 12.0918C5.2984 12.0918 5.0381 12.0165 4.81177 11.874C4.49189 11.6725 4.26954 11.3587 4.18578 10.99C4.10202 10.6213 4.16686 10.242 4.3684 9.92208C4.62904 9.50804 5.07727 9.26079 5.56733 9.26079C5.83355 9.26079 6.09385 9.33609 6.32013 9.47866C6.98048 9.89459 7.17942 10.7702 6.76377 11.4304C6.50286 11.8446 6.05457 12.0918 5.56457 12.0918ZM4.08088 15.2085C4.34163 14.7944 4.78981 14.5471 5.27992 14.5471C5.54603 14.5471 5.80628 14.6225 6.03266 14.765C6.35255 14.9664 6.5749 15.2803 6.65866 15.649C6.74247 16.0176 6.67763 16.3968 6.47603 16.7168C6.2154 17.1308 5.76716 17.3781 5.2771 17.3781C5.01094 17.3781 4.75058 17.3028 4.5242 17.1603C4.20431 16.9588 3.98202 16.6449 3.89831 16.2762C3.81466 15.9077 3.87956 15.5284 4.08088 15.2085ZM8.6137 6.80235C8.87445 6.38825 9.32268 6.14101 9.81274 6.14101C10.0788 6.14101 10.3391 6.21631 10.5654 6.35882C11.2258 6.77464 11.4247 7.65031 11.009 8.31066C10.7482 8.72481 10.2999 8.97206 9.80987 8.97206C9.54376 8.97206 9.28346 8.89676 9.05718 8.75419C8.73735 8.55281 8.51506 8.2389 8.4313 7.87017C8.34743 7.50154 8.41227 7.12235 8.6137 6.80235Z" fill="black"/>
</svg>
