<svg width="25" height="25" viewBox="0 0 25 25" fill="none" xmlns="http://www.w3.org/2000/svg">
<path d="M8.10742 6.5918H7.375V8.05664H8.10742C8.51159 8.05664 8.83984 7.72839 8.83984 7.32422C8.83984 6.92005 8.51159 6.5918 8.10742 6.5918Z" fill="white"/>
<path d="M16.8965 3.66211H16.1641V8.05664H16.8965C17.3007 8.05664 17.6289 7.72839 17.6289 7.32422V4.39453C17.6289 3.99036 17.3007 3.66211 16.8965 3.66211Z" fill="white"/>
<path d="M23.4883 13.916V0.732422C23.4883 0.327683 23.1606 0 22.7559 0H2.24805C1.84331 0 1.51562 0.327683 1.51562 0.732422V13.916C1.51562 14.3208 1.84331 14.6484 2.24805 14.6484H6.64258V13.916C6.64258 12.7045 7.6283 11.7188 8.83984 11.7188H16.1641C17.3756 11.7188 18.3613 12.7045 18.3613 13.916V14.6484H22.7559C23.1606 14.6484 23.4883 14.3208 23.4883 13.916ZM10.3047 7.32422C10.3047 8.53577 9.31897 9.52148 8.10742 9.52148H6.64258C6.23784 9.52148 5.91016 9.1938 5.91016 8.78906V2.92969C5.91016 2.52495 6.23784 2.19727 6.64258 2.19727H8.10742C9.31897 2.19727 10.3047 3.18298 10.3047 4.39453C10.3047 4.9593 10.0846 5.4697 9.73325 5.85938C10.0846 6.24905 10.3047 6.75945 10.3047 7.32422ZM13.2344 8.78906C13.2344 9.1938 12.9067 9.52148 12.502 9.52148C12.0972 9.52148 11.7695 9.1938 11.7695 8.78906V2.92969C11.7695 2.52495 12.0972 2.19727 12.502 2.19727C12.9067 2.19727 13.2344 2.52495 13.2344 2.92969V8.78906ZM19.0938 7.32422C19.0938 8.53577 18.108 9.52148 16.8965 9.52148H15.4316C15.0269 9.52148 14.6992 9.1938 14.6992 8.78906V2.92969C14.6992 2.52495 15.0269 2.19727 15.4316 2.19727H16.8965C18.108 2.19727 19.0938 3.18298 19.0938 4.39453V7.32422Z" fill="white"/>
<path d="M8.10742 3.66211H7.375V5.12695H8.10742C8.51159 5.12695 8.83984 4.7987 8.83984 4.39453C8.83984 3.99036 8.51159 3.66211 8.10742 3.66211Z" fill="white"/>
<path d="M16.8945 15.3809V13.916C16.8945 13.5113 16.5668 13.1836 16.1621 13.1836H8.83789C8.43315 13.1836 8.10547 13.5113 8.10547 13.916V15.3809C8.10547 15.7856 8.43315 16.1133 8.83789 16.1133H16.1621C16.5668 16.1133 16.8945 15.7856 16.8945 15.3809Z" fill="white"/>
<path d="M11.7676 25H13.2324C13.637 25 13.9648 24.6721 13.9648 24.2676V17.5781H11.0352V24.2676C11.0352 24.6721 11.363 25 11.7676 25Z" fill="white"/>
</svg>
