<svg width="20" height="21" viewBox="0 0 20 21" fill="none" xmlns="http://www.w3.org/2000/svg">
<path d="M0 3C0 1.61929 1.11929 0.5 2.5 0.5H17.5C18.8807 0.5 20 1.61929 20 3V18C20 19.3807 18.8807 20.5 17.5 20.5H2.5C1.11929 20.5 0 19.3807 0 18V3Z" fill="#3462D7"/>
<path d="M10 8.29102C8.77019 8.29102 7.76978 9.29143 7.76978 10.5212C7.76978 11.751 8.77019 12.7515 10 12.7515C11.2298 12.7515 12.2302 11.751 12.2302 10.5212C12.2302 9.29143 11.2298 8.29102 10 8.29102ZM10 8.29102C8.77019 8.29102 7.76978 9.29143 7.76978 10.5212C7.76978 11.751 8.77019 12.7515 10 12.7515C11.2298 12.7515 12.2302 11.751 12.2302 10.5212C12.2302 9.29143 11.2298 8.29102 10 8.29102ZM13.8445 5.0625L6.15552 5.0625C5.27617 5.0625 4.5625 5.77617 4.5625 6.65552L4.5625 14.3445C4.5625 15.2238 5.27617 15.9375 6.15552 15.9375L13.8445 15.9375C14.7238 15.9375 15.4375 15.2238 15.4375 14.3445L15.4375 6.65552C15.4375 5.77617 14.7238 5.0625 13.8445 5.0625ZM10 13.3887C8.41975 13.3887 7.13257 12.1015 7.13257 10.5212C7.13257 8.94095 8.41975 7.65381 10 7.65381C11.5803 7.65381 12.8674 8.94095 12.8674 10.5212C12.8674 12.1015 11.5803 13.3887 10 13.3887ZM13.5046 7.65381C13.1542 7.65381 12.8674 7.36707 12.8674 7.0166C12.8674 6.66614 13.1542 6.37939 13.5046 6.37939C13.8551 6.37939 14.1418 6.66614 14.1418 7.0166C14.1418 7.36707 13.8551 7.65381 13.5046 7.65381ZM10 8.29102C8.77019 8.29102 7.76978 9.29143 7.76978 10.5212C7.76978 11.751 8.77019 12.7515 10 12.7515C11.2298 12.7515 12.2302 11.751 12.2302 10.5212C12.2302 9.29143 11.2298 8.29102 10 8.29102ZM10 8.29102C8.77019 8.29102 7.76978 9.29143 7.76978 10.5212C7.76978 11.751 8.77019 12.7515 10 12.7515C11.2298 12.7515 12.2302 11.751 12.2302 10.5212C12.2302 9.29143 11.2298 8.29102 10 8.29102ZM10 8.29102C8.77019 8.29102 7.76978 9.29143 7.76978 10.5212C7.76978 11.751 8.77019 12.7515 10 12.7515C11.2298 12.7515 12.2302 11.751 12.2302 10.5212C12.2302 9.29143 11.2298 8.29102 10 8.29102Z" fill="white"/>
</svg>
