<svg width="61" height="60" viewBox="0 0 61 60" fill="none" xmlns="http://www.w3.org/2000/svg">
<rect x="0.5" width="60" height="60" rx="10" fill="url(#paint0_linear_505_14008)"/>
<path d="M28.6873 26.2323L23.7052 21.2502C22.7164 20.2614 22.7164 18.6519 23.7052 17.663L28.6878 12.6804C29.6767 11.6916 31.2862 11.6916 32.275 12.6804L37.2571 17.6624C38.2459 18.6513 38.2459 20.2608 37.2571 21.2496L32.2744 26.2323C31.2856 27.2211 29.6767 27.2217 28.6873 26.2323ZM39.2497 36.7948L34.2671 31.8121C33.2783 30.8233 33.2783 29.2138 34.2671 28.2249L39.2497 23.2423C40.2386 22.2535 41.8481 22.2535 42.8369 23.2423L47.8196 28.2249C48.8084 29.2138 48.8084 30.8233 47.8196 31.8121L42.8369 36.7948C41.8481 37.7836 40.2386 37.7836 39.2497 36.7948ZM18.1624 36.7571L13.1804 31.7751C12.1915 30.7862 12.1915 29.1767 13.1804 28.1879L18.163 23.2053C19.1519 22.2164 20.7613 22.2164 21.7502 23.2053L26.7322 28.1873C27.7211 29.1761 27.7211 30.7856 26.7322 31.7745L21.7496 36.7571C20.7607 37.746 19.1519 37.7466 18.1624 36.7571ZM28.7249 47.3196L23.7423 42.337C22.7534 41.3481 22.7534 39.7386 23.7423 38.7498L28.7249 33.7672C29.7138 32.7783 31.3232 32.7783 32.3121 33.7672L37.2947 38.7498C38.2836 39.7386 38.2836 41.3481 37.2947 42.337L32.3121 47.3196C31.3232 48.3085 29.7138 48.3085 28.7249 47.3196Z" fill="#D58CEF"/>
<defs>
<linearGradient id="paint0_linear_505_14008" x1="60.5" y1="59.9999" x2="0.5" y2="59.9999" gradientUnits="userSpaceOnUse">
<stop stop-color="#DFCBF1"/>
<stop offset="0.588542" stop-color="#E0DDEE"/>
<stop offset="1" stop-color="#E1E4ED"/>
</linearGradient>
</defs>
</svg>
