<svg width="27" height="27" viewBox="0 0 27 27" fill="none" xmlns="http://www.w3.org/2000/svg">
<path fill-rule="evenodd" clip-rule="evenodd" d="M13.5 0C6.05391 0 0 6.05391 0 13.5C0 20.9461 6.05391 27 13.5 27C20.9461 27 27 20.9461 27 13.5C27 6.05391 20.9461 0 13.5 0Z" fill="#4BAE4F"/>
<path fill-rule="evenodd" clip-rule="evenodd" d="M20.0288 8.94912C20.3558 9.27607 20.3558 9.81397 20.0288 10.1409L12.1187 18.0511C11.9552 18.2146 11.739 18.2989 11.5228 18.2989C11.3065 18.2989 11.0903 18.2146 10.9269 18.0511L6.97178 14.096C6.64482 13.769 6.64482 13.2312 6.97178 12.9042C7.29873 12.5772 7.83662 12.5772 8.16357 12.9042L11.5228 16.2634L18.837 8.94912C19.164 8.61689 19.7019 8.61689 20.0288 8.94912Z" fill="white"/>
</svg>
