<svg width="26" height="27" viewBox="0 0 26 27" fill="none" xmlns="http://www.w3.org/2000/svg">
<path d="M8.31492 12.2599C8.39546 12.5613 8.65205 12.7822 8.9603 12.819L13.1777 13.3218L13.6806 17.5393C13.7176 17.8519 13.9434 18.1056 14.2397 18.1847C14.541 18.2651 14.8603 18.1541 15.047 17.9054L17.5908 14.5043L21.4941 16.1775C21.7808 16.3 22.1127 16.2364 22.3331 16.016C22.5535 15.7957 22.6172 15.4637 22.4947 15.177L20.8214 11.2737L24.2225 8.72995C24.4713 8.54323 24.5823 8.22392 24.5017 7.92258C24.4213 7.62115 24.1646 7.39918 23.8564 7.36348L19.639 6.86065L19.1362 2.64322C19.0998 2.33442 18.8784 2.07828 18.577 1.99784C18.2757 1.9173 17.9563 2.02836 17.7696 2.27714L15.226 5.67816L11.3225 4.00502C11.0359 3.88238 10.704 3.94606 10.4835 4.16645C10.2631 4.38684 10.1996 4.71875 10.3221 5.00546L11.9952 8.9088L8.59421 11.4525C8.34544 11.6393 8.23453 11.9586 8.31492 12.2599V12.2599Z" fill="white"/>
<path d="M22.3337 5.24371L23.411 4.16649C23.7087 3.86876 23.7087 3.387 23.411 3.08926C23.1133 2.79153 22.6315 2.79153 22.3337 3.08926L21.2565 4.16649C20.9588 4.46422 20.9588 4.94608 21.2565 5.24371C21.5542 5.54144 22.036 5.54144 22.3337 5.24371Z" fill="white"/>
<path d="M14.635 3.46964C15.0415 3.36077 15.2824 2.94309 15.1735 2.53654L14.7791 1.06479C14.6691 0.658188 14.2526 0.417282 13.846 0.526157C13.4395 0.635032 13.1985 1.05271 13.3074 1.45926L13.7018 2.931C13.8096 3.3337 14.2252 3.57882 14.635 3.46964Z" fill="white"/>
<path d="M18.182 16.7131C17.7754 16.822 17.5345 17.2396 17.6433 17.6462L18.0379 19.1179C18.1456 19.5206 18.5612 19.7657 18.971 19.6566C19.3776 19.5477 19.6185 19.13 19.5096 18.7235L19.1151 17.2517C19.0056 16.8457 18.5881 16.6036 18.182 16.7131V16.7131Z" fill="white"/>
<path d="M9.24924 7.38396L7.7775 6.98954C7.37089 6.88067 6.95322 7.12147 6.84434 7.52808C6.73511 7.9385 6.98084 8.35358 7.38298 8.46119L8.85472 8.85571C9.26133 8.96459 9.6789 8.72368 9.78783 8.31707C9.89614 7.90996 9.65417 7.49228 9.24924 7.38396Z" fill="white"/>
<path d="M23.0299 11.8656C22.9207 12.2759 23.1664 12.691 23.5685 12.7987L25.0403 13.1931C25.4469 13.302 25.8644 13.0612 25.9734 12.6546C26.0823 12.248 25.8393 11.8293 25.4348 11.7215L23.9631 11.3269C23.5564 11.2181 23.1388 11.459 23.0299 11.8656V11.8656Z" fill="white"/>
<path d="M1.30055 26.2768C1.59817 26.5745 2.08004 26.5745 2.37777 26.2768L12.0366 16.6181L11.8071 14.6931L9.88222 14.4636L0.223222 24.1224C-0.0744072 24.4202 -0.0744072 24.9019 0.223222 25.1996L1.30055 26.2768Z" fill="white"/>
</svg>
