<svg width="29" height="29" viewBox="0 0 29 29" fill="none" xmlns="http://www.w3.org/2000/svg">
<path d="M24.0858 6.45071C22.4543 5.70215 20.7048 5.15061 18.8756 4.8347C18.8423 4.8286 18.809 4.84385 18.7918 4.87429C18.5668 5.2745 18.3176 5.79654 18.1431 6.20689C16.1756 5.91232 14.2183 5.91232 12.2912 6.20689C12.1166 5.78744 11.8583 5.2745 11.6323 4.87429C11.6152 4.84485 11.5819 4.8296 11.5486 4.8347C9.72039 5.14956 7.97089 5.7011 6.33838 6.45071C6.32423 6.45681 6.31214 6.46696 6.30409 6.48016C2.98567 11.4378 2.07657 16.2737 2.52252 21.0495C2.52452 21.0729 2.53767 21.0952 2.55582 21.1095C4.74522 22.7173 6.86607 23.6934 8.94748 24.3404C8.98078 24.3506 9.01607 24.3384 9.03727 24.311C9.52961 23.6386 9.96851 22.9297 10.3448 22.1841C10.367 22.1404 10.3458 22.0886 10.3004 22.0714C9.60426 21.8073 8.94138 21.4853 8.30371 21.1197C8.25326 21.0902 8.24921 21.0181 8.29566 20.9835C8.42984 20.883 8.56408 20.7784 8.69221 20.6727C8.71541 20.6534 8.7477 20.6494 8.77495 20.6615C12.9641 22.5741 17.4993 22.5741 21.639 20.6615C21.6662 20.6483 21.6985 20.6524 21.7227 20.6717C21.8509 20.7773 21.9851 20.8829 22.1203 20.9835C22.1667 21.018 22.1636 21.0902 22.1132 21.1196C21.4755 21.4924 20.8127 21.8072 20.1155 22.0703C20.0701 22.0875 20.0499 22.1404 20.0721 22.184C20.4566 22.9286 20.8955 23.6375 21.3787 24.3099C21.3989 24.3384 21.4352 24.3506 21.4685 24.3404C23.56 23.6934 25.6808 22.7173 27.8702 21.1094C27.8894 21.0952 27.9015 21.0739 27.9035 21.0505C28.4373 15.5291 27.0096 10.7329 24.119 6.48116C24.112 6.46696 24.0999 6.45681 24.0858 6.45071V6.45071ZM10.9705 18.1415C9.70929 18.1415 8.67006 16.9836 8.67006 15.5616C8.67006 14.1396 9.6891 12.9817 10.9705 12.9817C12.2619 12.9817 13.2911 14.1498 13.2709 15.5616C13.2709 16.9836 12.2518 18.1415 10.9705 18.1415ZM19.4759 18.1415C18.2147 18.1415 17.1755 16.9836 17.1755 15.5616C17.1755 14.1396 18.1945 12.9817 19.4759 12.9817C20.7673 12.9817 21.7964 14.1498 21.7763 15.5616C21.7763 16.9836 20.7674 18.1415 19.4759 18.1415Z" fill="#1C1C1D"/>
</svg>
