<svg width="25" height="25" viewBox="0 0 25 25" fill="none" xmlns="http://www.w3.org/2000/svg">
<path d="M22.8894 4.78543C21.6906 3.04101 19.71 2 17.5917 2C15.8479 2 14.1266 2.69526 12.5836 4.03881L12.4997 4.12211L12.3866 4.01125C10.8736 2.69526 9.15207 2 7.40828 2C5.28961 2 3.30905 3.04101 2.11051 4.78543C0.897251 6.55051 0.666124 8.77284 1.47632 10.8837C2.14997 12.6356 3.63633 14.1276 5.23073 15.6284C5.6554 16.0274 6.08509 16.4276 6.53012 16.8416C8.00958 18.2177 9.68604 19.7768 11.9021 21.9909L12.0499 22.1388C12.1705 22.2584 12.333 22.3254 12.5022 22.3254H12.5175C12.6919 22.321 12.8576 22.2459 12.9754 22.1168C13.0158 22.073 13.053 22.036 13.0978 21.9909C15.3148 19.7755 16.9929 18.2152 18.4729 16.8385C18.9164 16.4257 19.3455 16.0267 19.7701 15.6277C21.3642 14.1264 22.8506 12.6337 23.5239 10.8831C24.3338 8.77347 24.1027 6.55051 22.8894 4.78543Z" fill="white"/>
</svg>
