<svg width="25" height="25" viewBox="0 0 25 25" fill="none" xmlns="http://www.w3.org/2000/svg">
<path d="M20.8649 4.13499C20.7184 3.98853 20.5197 3.90625 20.3125 3.90625C20.1054 3.90625 19.9067 3.98853 19.7602 4.13499L17.2805 6.61468C15.7904 5.88663 14.1583 5.49535 12.5 5.46858C6.15159 5.46858 1.15706 11.7506 0.947685 12.0178C0.839852 12.1553 0.78125 12.3251 0.78125 12.4998C0.78125 12.6746 0.839852 12.8443 0.947685 12.9819C2.45889 14.8082 4.25966 16.3741 6.27815 17.617L4.13518 19.76C4.06057 19.8321 4.00105 19.9183 3.96011 20.0136C3.91916 20.1089 3.89761 20.2114 3.89671 20.3151C3.89581 20.4189 3.91557 20.5218 3.95485 20.6178C3.99414 20.7138 4.05215 20.801 4.1255 20.8744C4.19885 20.9477 4.28608 21.0057 4.3821 21.045C4.47811 21.0843 4.58098 21.1041 4.68472 21.1032C4.78845 21.1023 4.89097 21.0807 4.98628 21.0398C5.0816 20.9988 5.1678 20.9393 5.23987 20.8647L20.8649 5.23968C21.0113 5.09317 21.0936 4.89449 21.0936 4.68733C21.0936 4.48017 21.0113 4.2815 20.8649 4.13499V4.13499ZM8.59378 12.4998C8.59502 11.4642 9.00697 10.4714 9.73926 9.73907C10.4716 9.00677 11.4644 8.59482 12.5 8.59358C13.2617 8.59898 14.0044 8.83186 14.6328 9.26233L9.26253 14.6326C8.83205 14.0042 8.59917 13.2615 8.59378 12.4998V12.4998Z" fill="black"/>
<path d="M24.0508 12.0182C22.8819 10.6019 21.539 9.33879 20.0539 8.25879L16.35 11.9627C16.3809 12.1403 16.3992 12.32 16.4047 12.5002C16.4035 13.5358 15.9915 14.5287 15.2592 15.261C14.5269 15.9933 13.5341 16.4052 12.4984 16.4064C12.3182 16.401 12.1386 16.3827 11.9609 16.3518L9.30469 19.008C10.3361 19.3454 11.4133 19.522 12.4984 19.5314C18.8469 19.5314 23.8414 13.2494 24.0508 12.9822C24.1586 12.8447 24.2172 12.675 24.2172 12.5002C24.2172 12.3254 24.1586 12.1557 24.0508 12.0182V12.0182Z" fill="black"/>
</svg>
