<svg width="60" height="60" viewBox="0 0 60 60" fill="none" xmlns="http://www.w3.org/2000/svg">
<rect width="60" height="60" rx="10" fill="url(#paint0_linear_513_14021)"/>
<path d="M42.3824 15.0015H17.6193C15.6232 15.0015 14 16.6242 14 18.6226V41.3815C14 43.3775 15.6232 44.9985 17.6193 44.9985H42.3823C44.3784 44.9985 45.9999 43.3775 45.9999 41.3815V18.6226C46 16.6242 44.3785 15.0015 42.3824 15.0015ZM34.6928 20.3868C36.6231 20.3868 38.1886 21.9523 38.1886 23.8825C38.1886 25.8127 36.623 27.3783 34.6928 27.3783C32.762 27.3783 31.1971 25.8127 31.1971 23.8825C31.1971 21.9523 32.762 20.3868 34.6928 20.3868ZM41.2474 41.6529H29.9997H19.2531C18.2876 41.6529 17.8576 40.9544 18.2928 40.0926L24.2922 28.2098C24.7269 27.3481 25.5554 27.2712 26.1421 28.0378L32.1746 35.9214C32.7613 36.6882 33.7868 36.7534 34.4655 36.0665L35.9413 34.572C36.6195 33.8851 37.6187 33.9701 38.1722 34.7608L41.9937 40.2195C42.5461 41.0114 42.2129 41.6529 41.2474 41.6529Z" fill="#D58CEF"/>
<defs>
<linearGradient id="paint0_linear_513_14021" x1="60" y1="59.9999" x2="0" y2="59.9999" gradientUnits="userSpaceOnUse">
<stop stop-color="#DFCBF1"/>
<stop offset="0.588542" stop-color="#E0DDEE"/>
<stop offset="1" stop-color="#E1E4ED"/>
</linearGradient>
</defs>
</svg>
