<svg width="29" height="29" viewBox="0 0 29 29" fill="none" xmlns="http://www.w3.org/2000/svg">
<path d="M14.5 10.082C12.0404 10.082 10.0396 12.0829 10.0396 14.5425C10.0396 17.0021 12.0404 19.0029 14.5 19.0029C16.9596 19.0029 18.9604 17.0021 18.9604 14.5425C18.9604 12.0829 16.9596 10.082 14.5 10.082ZM14.5 10.082C12.0404 10.082 10.0396 12.0829 10.0396 14.5425C10.0396 17.0021 12.0404 19.0029 14.5 19.0029C16.9596 19.0029 18.9604 17.0021 18.9604 14.5425C18.9604 12.0829 16.9596 10.082 14.5 10.082ZM22.189 3.625L6.81104 3.625C5.05234 3.625 3.625 5.05234 3.625 6.81104L3.625 22.189C3.625 23.9477 5.05234 25.375 6.81104 25.375L22.189 25.375C23.9477 25.375 25.375 23.9477 25.375 22.189L25.375 6.81104C25.375 5.05234 23.9477 3.625 22.189 3.625ZM14.5 20.2773C11.3395 20.2773 8.76514 17.703 8.76514 14.5425C8.76514 11.3819 11.3395 8.80762 14.5 8.80762C17.6605 8.80762 20.2349 11.3819 20.2349 14.5425C20.2349 17.703 17.6605 20.2773 14.5 20.2773ZM21.5093 8.80762C20.8083 8.80762 20.2349 8.23413 20.2349 7.5332C20.2349 6.83228 20.8083 6.25879 21.5093 6.25879C22.2102 6.25879 22.7837 6.83228 22.7837 7.5332C22.7837 8.23413 22.2102 8.80762 21.5093 8.80762ZM14.5 10.082C12.0404 10.082 10.0396 12.0829 10.0396 14.5425C10.0396 17.0021 12.0404 19.0029 14.5 19.0029C16.9596 19.0029 18.9604 17.0021 18.9604 14.5425C18.9604 12.0829 16.9596 10.082 14.5 10.082ZM14.5 10.082C12.0404 10.082 10.0396 12.0829 10.0396 14.5425C10.0396 17.0021 12.0404 19.0029 14.5 19.0029C16.9596 19.0029 18.9604 17.0021 18.9604 14.5425C18.9604 12.0829 16.9596 10.082 14.5 10.082ZM14.5 10.082C12.0404 10.082 10.0396 12.0829 10.0396 14.5425C10.0396 17.0021 12.0404 19.0029 14.5 19.0029C16.9596 19.0029 18.9604 17.0021 18.9604 14.5425C18.9604 12.0829 16.9596 10.082 14.5 10.082Z" fill="#1C1C1D"/>
</svg>
