<svg width="27" height="27" viewBox="0 0 27 27" fill="none" xmlns="http://www.w3.org/2000/svg">
<rect width="27" height="27" rx="13.5" fill="#3462D7"/>
<path d="M13.5 10.6055C11.8885 10.6055 10.5776 11.9164 10.5776 13.5278C10.5776 15.1393 11.8885 16.4502 13.5 16.4502C15.1115 16.4502 16.4224 15.1393 16.4224 13.5278C16.4224 11.9164 15.1115 10.6055 13.5 10.6055ZM13.5 10.6055C11.8885 10.6055 10.5776 11.9164 10.5776 13.5278C10.5776 15.1393 11.8885 16.4502 13.5 16.4502C15.1115 16.4502 16.4224 15.1393 16.4224 13.5278C16.4224 11.9164 15.1115 10.6055 13.5 10.6055ZM18.5376 6.375L8.4624 6.375C7.31016 6.375 6.375 7.31016 6.375 8.4624L6.375 18.5376C6.375 19.6898 7.31016 20.625 8.4624 20.625H18.5376C19.6898 20.625 20.625 19.6898 20.625 18.5376V8.4624C20.625 7.31016 19.6898 6.375 18.5376 6.375ZM13.5 17.2852C11.4293 17.2852 9.74268 15.5985 9.74268 13.5278C9.74268 11.4571 11.4293 9.77051 13.5 9.77051C15.5707 9.77051 17.2573 11.4571 17.2573 13.5278C17.2573 15.5985 15.5707 17.2852 13.5 17.2852ZM18.0923 9.77051C17.6331 9.77051 17.2573 9.39478 17.2573 8.93555C17.2573 8.47632 17.6331 8.10059 18.0923 8.10059C18.5515 8.10059 18.9272 8.47632 18.9272 8.93555C18.9272 9.39478 18.5515 9.77051 18.0923 9.77051ZM13.5 10.6055C11.8885 10.6055 10.5776 11.9164 10.5776 13.5278C10.5776 15.1393 11.8885 16.4502 13.5 16.4502C15.1115 16.4502 16.4224 15.1393 16.4224 13.5278C16.4224 11.9164 15.1115 10.6055 13.5 10.6055ZM13.5 10.6055C11.8885 10.6055 10.5776 11.9164 10.5776 13.5278C10.5776 15.1393 11.8885 16.4502 13.5 16.4502C15.1115 16.4502 16.4224 15.1393 16.4224 13.5278C16.4224 11.9164 15.1115 10.6055 13.5 10.6055ZM13.5 10.6055C11.8885 10.6055 10.5776 11.9164 10.5776 13.5278C10.5776 15.1393 11.8885 16.4502 13.5 16.4502C15.1115 16.4502 16.4224 15.1393 16.4224 13.5278C16.4224 11.9164 15.1115 10.6055 13.5 10.6055Z" fill="white"/>
</svg>
