<svg width="25" height="26" viewBox="0 0 25 26" fill="none" xmlns="http://www.w3.org/2000/svg">
<g clip-path="url(#clip0_453_14660)">
<path d="M12.5 0.0932617C5.60781 0.0932617 0 5.70107 0 12.5933C0 19.4854 5.60781 25.0933 12.5 25.0933C19.3922 25.0933 25 19.4854 25 12.5933C25 5.70107 19.3922 0.0932617 12.5 0.0932617ZM12.5 23.5308C6.46875 23.5308 1.5625 18.6245 1.5625 12.5933C1.5625 6.56201 6.46875 1.65576 12.5 1.65576C18.5312 1.65576 23.4375 6.56201 23.4375 12.5933C23.4375 18.6245 18.5312 23.5308 12.5 23.5308Z" fill="black"/>
<path d="M12.5 3.21826V21.9683C17.9688 21.9683 21.875 17.7706 21.875 12.5933C21.875 7.41514 17.9688 3.21826 12.5 3.21826Z" fill="black"/>
</g>
<defs>
<clipPath id="clip0_453_14660">
<rect width="25" height="25" fill="white" transform="translate(0 0.0932617)"/>
</clipPath>
</defs>
</svg>
