<svg width="16" height="16" viewBox="0 0 16 16" fill="none" xmlns="http://www.w3.org/2000/svg">
<path d="M1.5 4.125H14.5C14.75 4.125 15 3.90625 15 3.625V2.375C15 2.125 14.75 1.875 14.5 1.875H1.5C1.21875 1.875 1 2.125 1 2.375V3.625C1 3.90625 1.21875 4.125 1.5 4.125ZM1.5 9.125H14.5C14.75 9.125 15 8.90625 15 8.625V7.375C15 7.125 14.75 6.875 14.5 6.875H1.5C1.21875 6.875 1 7.125 1 7.375V8.625C1 8.90625 1.21875 9.125 1.5 9.125ZM1.5 14.125H14.5C14.75 14.125 15 13.9062 15 13.625V12.375C15 12.125 14.75 11.875 14.5 11.875H1.5C1.21875 11.875 1 12.125 1 12.375V13.625C1 13.9062 1.21875 14.125 1.5 14.125Z" fill="black"/>
</svg>
