<svg width="25" height="25" viewBox="0 0 25 25" fill="none" xmlns="http://www.w3.org/2000/svg">
<path d="M23.9894 15.4073C23.8848 15.3031 23.7528 15.2305 23.6088 15.1982C23.4647 15.1658 23.3144 15.175 23.1753 15.2245C21.306 15.891 19.286 16.0134 17.35 15.5774C15.4139 15.1415 13.6413 14.1652 12.2381 12.7619C10.8349 11.3586 9.85865 9.58589 9.42283 7.64982C8.98702 5.71375 9.10951 3.69375 9.77607 1.82453C9.8256 1.68541 9.83469 1.5351 9.80228 1.39102C9.76986 1.24695 9.69728 1.11501 9.59294 1.01051C9.4886 0.906001 9.35677 0.83321 9.21275 0.800571C9.06872 0.767932 8.9184 0.776781 8.7792 0.826094C7.09396 1.4212 5.56462 2.38869 4.30498 3.65656C2.04687 5.91638 0.778693 8.9805 0.779297 12.1752C0.779901 15.3698 2.04924 18.4334 4.3082 20.6924C6.56716 22.9514 9.6308 24.2207 12.8255 24.2213C16.0201 24.2219 19.0842 22.9537 21.344 20.6956C22.612 19.4358 23.5795 17.9061 24.1745 16.2206C24.2236 16.0814 24.2323 15.9311 24.1995 15.7872C24.1668 15.6433 24.0939 15.5116 23.9894 15.4073Z" fill="white"/>
</svg>
