<svg width="25" height="25" viewBox="0 0 25 25" fill="none" xmlns="http://www.w3.org/2000/svg">
<path d="M22.8877 14.6758V13.8667C22.8877 11.3584 21.9864 8.994 20.3532 7.12551L20.8549 6.62227C21.121 6.35534 21.121 5.92292 20.8549 5.65599C18.6658 3.45989 15.7134 2.25 12.625 2.25C9.53658 2.25 6.58421 3.45989 4.39512 5.65599C4.12904 5.92292 4.12904 6.35534 4.39512 6.62227L4.89694 7.12569C3.26359 8.994 2.3623 11.3584 2.3623 13.8667V14.6758C1.57117 14.9589 1 15.7102 1 16.6V20.7C1 21.8303 1.91672 22.75 3.04346 22.75H5.76807C6.14447 22.75 6.44922 22.4443 6.44922 22.0667V15.2333C6.44922 14.8557 6.14447 14.55 5.76807 14.55H3.72461V13.8667C3.72461 11.6861 4.51077 9.63089 5.93463 8.0094C6.61419 8.36405 7.50146 8.33149 8.14092 7.84817C10.7366 5.8875 14.5134 5.8875 17.1091 7.84817C17.4722 8.1224 17.9486 8.25657 18.3784 8.25657C18.7038 8.25657 19.0152 8.153 19.3079 8.00103C20.7366 9.62395 21.5254 11.6823 21.5254 13.8667V14.55H19.4819C19.1055 14.55 18.8008 14.8557 18.8008 15.2333V22.0667C18.8008 22.4443 19.1055 22.75 19.4819 22.75H22.2065C23.3333 22.75 24.25 21.8303 24.25 20.7V16.6C24.25 15.7102 23.6788 14.9589 22.8877 14.6758V14.6758Z" fill="black"/>
<path d="M16.875 16C16.5296 16 16.25 16.2936 16.25 16.6562V20.5937C16.25 20.9564 16.5296 21.25 16.875 21.25C17.2204 21.25 17.5 20.9564 17.5 20.5937V16.6562C17.5 16.2936 17.2204 16 16.875 16Z" fill="black"/>
<path d="M14.75 23.3281V13.9219C14.75 13.5506 14.4704 13.25 14.125 13.25C13.7796 13.25 13.5 13.5506 13.5 13.9219V23.3281C13.5 23.6994 13.7796 24 14.125 24C14.4704 24 14.75 23.6994 14.75 23.3281Z" fill="black"/>
<path d="M12.25 23.3281V13.9219C12.25 13.5506 11.9145 13.25 11.5 13.25C11.0855 13.25 10.75 13.5506 10.75 13.9219V23.3281C10.75 23.6994 11.0855 24 11.5 24C11.9145 24 12.25 23.6994 12.25 23.3281Z" fill="black"/>
<path d="M9.5 20.5937V16.6562C9.5 16.2936 9.16445 16 8.75 16C8.33555 16 8 16.2936 8 16.6562V20.5937C8 20.9564 8.33555 21.25 8.75 21.25C9.16445 21.25 9.5 20.9564 9.5 20.5937Z" fill="black"/>
</svg>
