<svg width="43" height="43" viewBox="0 0 43 43" fill="none" xmlns="http://www.w3.org/2000/svg">
<circle r="21.5" transform="matrix(-1 0 0 1 21.5 21.5)" fill="#3462D7"/>
<path d="M25.7648 20.478L20.048 14.7611C19.7043 14.4175 19.1822 14.4175 18.832 14.7611C18.4883 15.1048 18.4883 15.6269 18.832 15.9773L23.8548 21.0001L18.832 26.023C18.4883 26.3666 18.4883 26.8888 18.832 27.239C19.0038 27.4108 19.1756 27.4967 19.44 27.4967C19.6118 27.4967 19.8762 27.4108 20.1339 27.3249L25.7648 21.694C25.9366 21.5222 26.0226 21.3504 26.0226 21.0859C26.0226 20.8282 25.9367 20.6498 25.7648 20.478Z" fill="white"/>
</svg>
