<svg width="25" height="25" viewBox="0 0 25 25" fill="none" xmlns="http://www.w3.org/2000/svg">
<path d="M22.8027 3.19507H8.05664C6.84473 3.19507 5.85938 4.1585 5.85938 5.3424C5.85938 6.52677 6.84473 7.48972 8.05664 7.48972H22.8027C24.0142 7.48972 25 6.52677 25 5.3424C25 4.1585 24.0142 3.19507 22.8027 3.19507Z" fill="white"/>
<path d="M22.8027 10.3528H8.05664C6.84473 10.3528 5.85938 11.3162 5.85938 12.5001C5.85938 13.6845 6.84473 14.6474 8.05664 14.6474H22.8027C24.0142 14.6474 25 13.6845 25 12.5001C25 11.3162 24.0142 10.3528 22.8027 10.3528Z" fill="white"/>
<path d="M22.8027 17.5105H8.05664C6.84473 17.5105 5.85938 18.4739 5.85938 19.6578C5.85938 20.8422 6.84473 21.8052 8.05664 21.8052H22.8027C24.0142 21.8052 25 20.8422 25 19.6578C25 18.4739 24.0142 17.5105 22.8027 17.5105Z" fill="white"/>
<path d="M2.19727 3.19507C0.985352 3.19507 0 4.1585 0 5.3424C0 6.52677 0.985352 7.48972 2.19727 7.48972C3.40869 7.48972 4.39453 6.52677 4.39453 5.3424C4.39453 4.1585 3.40869 3.19507 2.19727 3.19507Z" fill="white"/>
<path d="M2.19727 10.3528C0.985352 10.3528 0 11.3162 0 12.5001C0 13.6845 0.985352 14.6474 2.19727 14.6474C3.40869 14.6474 4.39453 13.6845 4.39453 12.5001C4.39453 11.3162 3.40869 10.3528 2.19727 10.3528Z" fill="white"/>
<path d="M2.19727 17.5105C0.985352 17.5105 0 18.4739 0 19.6578C0 20.8422 0.985352 21.8052 2.19727 21.8052C3.40869 21.8052 4.39453 20.8422 4.39453 19.6578C4.39453 18.4739 3.40869 17.5105 2.19727 17.5105Z" fill="white"/>
</svg>
