<svg width="25" height="25" viewBox="0 0 25 25" fill="none" xmlns="http://www.w3.org/2000/svg">
<path d="M16.4062 1.5625H14.7094C14.3875 0.653125 13.5188 0 12.5 0C11.4812 0 10.6125 0.653125 10.2891 1.5625H8.59375C8.1625 1.5625 7.8125 1.9125 7.8125 2.34375V5.46875C7.8125 5.9 8.1625 6.25 8.59375 6.25H16.4062C16.8375 6.25 17.1875 5.9 17.1875 5.46875V2.34375C17.1875 1.9125 16.8375 1.5625 16.4062 1.5625Z" fill="white"/>
<path d="M20.3125 3.125H18.75V5.46875C18.75 6.76094 17.6984 7.8125 16.4062 7.8125H8.59375C7.30156 7.8125 6.25 6.76094 6.25 5.46875V3.125H4.6875C3.82656 3.125 3.125 3.82656 3.125 4.6875V23.4375C3.125 24.3141 3.81094 25 4.6875 25H20.3125C21.1891 25 21.875 24.3141 21.875 23.4375V4.6875C21.875 3.81094 21.1891 3.125 20.3125 3.125ZM12.2719 16.9594L9.14688 20.0844C8.99375 20.2359 8.79375 20.3125 8.59375 20.3125C8.39375 20.3125 8.19375 20.2359 8.04062 20.0844L6.47812 18.5219C6.17344 18.2172 6.17344 17.7219 6.47812 17.4172C6.78281 17.1125 7.27813 17.1125 7.58281 17.4172L8.59375 18.4266L11.1656 15.8547C11.4703 15.55 11.9656 15.55 12.2703 15.8547C12.575 16.1594 12.5766 16.6531 12.2719 16.9594ZM12.2719 10.7094L9.14688 13.8344C8.99375 13.9859 8.79375 14.0625 8.59375 14.0625C8.39375 14.0625 8.19375 13.9859 8.04062 13.8344L6.47812 12.2719C6.17344 11.9672 6.17344 11.4719 6.47812 11.1672C6.78281 10.8625 7.27813 10.8625 7.58281 11.1672L8.59375 12.1766L11.1656 9.60469C11.4703 9.3 11.9656 9.3 12.2703 9.60469C12.575 9.90937 12.5766 10.4031 12.2719 10.7094ZM17.9688 18.75H14.8438C14.4125 18.75 14.0625 18.4 14.0625 17.9688C14.0625 17.5375 14.4125 17.1875 14.8438 17.1875H17.9688C18.4 17.1875 18.75 17.5375 18.75 17.9688C18.75 18.4 18.4 18.75 17.9688 18.75ZM17.9688 12.5H14.8438C14.4125 12.5 14.0625 12.15 14.0625 11.7188C14.0625 11.2875 14.4125 10.9375 14.8438 10.9375H17.9688C18.4 10.9375 18.75 11.2875 18.75 11.7188C18.75 12.15 18.4 12.5 17.9688 12.5Z" fill="white"/>
</svg>
