<svg width="49" height="49" viewBox="0 0 49 49" fill="none" xmlns="http://www.w3.org/2000/svg">
<path opacity="0.5" d="M24.5 0C10.9354 0 0 10.9354 0 24.5C0 38.0646 10.9354 49 24.5 49C38.0646 49 49 38.0646 49 24.5C49 10.9354 38.0646 0 24.5 0ZM35.3756 25.6354L19.0622 35.1963C18.8829 35.3159 18.5841 35.3756 18.4049 35.3756C18.2256 35.3756 17.9268 35.3159 17.7476 35.1963C17.3293 34.8976 17.0902 34.539 17.0902 34.061V15.0287C17.0902 15.0122 17.0769 14.9988 17.0604 14.9988V14.9988C17.0439 14.9988 17.0304 14.9854 17.0309 14.9689C17.043 14.5009 17.3367 14.0389 17.6878 13.8634C18.0463 13.6841 18.6439 13.5646 19.0622 13.8634L35.3756 23.3646C35.7939 23.6634 36.0329 24.022 36.0329 24.5C36.0329 24.978 35.7341 25.4561 35.3756 25.6354Z" fill="white"/>
<path d="M36.5 23.634C37.1667 24.0189 37.1667 24.9811 36.5 25.366L17.75 36.1913C17.0833 36.5762 16.25 36.0951 16.25 35.3253L16.25 13.6747C16.25 12.9049 17.0833 12.4238 17.75 12.8087L36.5 23.634Z" fill="white"/>
</svg>
