<svg width="25" height="25" viewBox="0 0 25 25" fill="none" xmlns="http://www.w3.org/2000/svg">
<path fill-rule="evenodd" clip-rule="evenodd" d="M12.4993 2.08325C9.62287 2.08325 7.29102 4.41511 7.29102 7.29159C7.29102 10.1681 9.62287 12.4999 12.4993 12.4999C15.3758 12.4999 17.7077 10.1681 17.7077 7.29159C17.7077 4.41511 15.3758 2.08325 12.4993 2.08325Z" fill="white"/>
<path fill-rule="evenodd" clip-rule="evenodd" d="M12.4994 13.5415C8.37107 13.5415 5.71571 15.048 4.31018 17.3488C3.43785 18.7768 3.77173 20.263 4.66358 21.2992C5.51911 22.2934 6.89757 22.9165 8.33269 22.9165H16.666C18.1011 22.9165 19.4796 22.2934 20.3352 21.2992C21.227 20.263 21.5609 18.7768 20.6885 17.3488C19.283 15.048 16.6277 13.5415 12.4994 13.5415Z" fill="white"/>
</svg>
