<svg width="43" height="43" viewBox="0 0 43 43" fill="none" xmlns="http://www.w3.org/2000/svg">
<circle r="21.5" transform="matrix(-1 0 0 1 21.5 21.5)" fill="#3462D7"/>
<path d="M25.7651 20.478L20.0482 14.7611C19.7046 14.4175 19.1824 14.4175 18.8322 14.7611C18.4886 15.1048 18.4886 15.6269 18.8322 15.9773L23.855 21.0001L18.8322 26.023C18.4886 26.3666 18.4886 26.8888 18.8322 27.239C19.004 27.4108 19.1758 27.4967 19.4403 27.4967C19.6121 27.4967 19.8765 27.4108 20.1341 27.3249L25.7651 21.694C25.9369 21.5222 26.0229 21.3504 26.0229 21.0859C26.0229 20.8282 25.9369 20.6498 25.7651 20.478Z" fill="white"/>
</svg>
