<svg width="61" height="60" viewBox="0 0 61 60" fill="none" xmlns="http://www.w3.org/2000/svg">
<rect x="0.5" width="60" height="60" rx="10" fill="url(#paint0_linear_513_14027)"/>
<g clip-path="url(#clip0_513_14027)">
<path d="M30.5 36.5403C31.0729 36.5403 31.5373 36.0759 31.5373 35.503C31.5373 34.9301 31.0729 34.4656 30.5 34.4656C29.9271 34.4656 29.4626 34.9301 29.4626 35.503C29.4626 36.0759 29.9271 36.5403 30.5 36.5403Z" fill="#D58CEF"/>
<path d="M30.5 25.5342C31.0729 25.5342 31.5373 25.0698 31.5373 24.4969C31.5373 23.924 31.0729 23.4595 30.5 23.4595C29.9271 23.4595 29.4626 23.924 29.4626 24.4969C29.4626 25.0698 29.9271 25.5342 30.5 25.5342Z" fill="#D58CEF"/>
<path d="M45.1643 15.3365C44.6256 14.797 43.909 14.5 43.1462 14.5H32.2788C31.5165 14.5 30.7997 14.7969 30.2606 15.3361L15.8362 29.7605C15.2969 30.2997 15 31.0164 15 31.7786C15 32.5408 15.297 33.2575 15.8362 33.7963L26.7034 44.6636C27.2424 45.203 27.9591 45.5 28.7214 45.5C29.4836 45.5 30.2003 45.2031 30.7395 44.6638L45.1639 30.2394C45.7031 29.7003 46 28.9835 46 28.2212V17.3538C46 16.591 45.703 15.8743 45.1643 15.3365ZM30.5001 21.6431C32.0736 21.6431 33.3538 22.9233 33.3538 24.4969C33.3538 26.0704 32.0736 27.3506 30.5001 27.3506C28.9265 27.3506 27.6463 26.0704 27.6463 24.4969C27.6463 22.9233 28.9265 21.6431 30.5001 21.6431ZM30.5001 38.3567C28.9265 38.3567 27.6463 37.0765 27.6463 35.503C27.6463 33.9294 28.9265 32.6492 30.5001 32.6492C32.0736 32.6492 33.3538 33.9294 33.3538 35.503C33.3538 37.0765 32.0736 38.3567 30.5001 38.3567ZM36.3367 30.9081H24.6634C24.1618 30.9081 23.7552 30.5015 23.7552 29.9999C23.7552 29.4984 24.1618 29.0917 24.6634 29.0917H36.3367C36.8383 29.0917 37.2449 29.4984 37.2449 29.9999C37.2449 30.5015 36.8383 30.9081 36.3367 30.9081ZM40.2279 21.1803C39.7266 21.1803 39.3197 20.7734 39.3197 20.2721C39.3197 19.7708 39.7266 19.3639 40.2279 19.3639C40.7292 19.3639 41.1361 19.7708 41.1361 20.2721C41.1361 20.7734 40.7292 21.1803 40.2279 21.1803Z" fill="#D58CEF"/>
</g>
<defs>
<linearGradient id="paint0_linear_513_14027" x1="60.5" y1="59.9999" x2="0.5" y2="59.9999" gradientUnits="userSpaceOnUse">
<stop stop-color="#DFCBF1"/>
<stop offset="0.588542" stop-color="#E0DDEE"/>
<stop offset="1" stop-color="#E1E4ED"/>
</linearGradient>
<clipPath id="clip0_513_14027">
<rect width="31" height="31" fill="white" transform="translate(15 14.5)"/>
</clipPath>
</defs>
</svg>
