<svg width="25" height="25" viewBox="0 0 25 25" fill="none" xmlns="http://www.w3.org/2000/svg">
<path d="M19.1324 3.32031C18.9273 2.97126 18.6352 2.68129 18.2847 2.47866C17.9342 2.27602 17.5372 2.16764 17.1324 2.16406H7.86674C7.4619 2.16764 7.06488 2.27602 6.71438 2.47866C6.36388 2.68129 6.07185 2.97126 5.86674 3.32031L1.23392 11.3437C1.02822 11.7 0.919922 12.1042 0.919922 12.5156C0.919922 12.927 1.02822 13.3312 1.23392 13.6875L5.86674 21.6797C6.07185 22.0287 6.36388 22.3187 6.71438 22.5213C7.06488 22.724 7.4619 22.8324 7.86674 22.8359H17.1324C17.5372 22.8324 17.9342 22.724 18.2847 22.5213C18.6352 22.3187 18.9273 22.0287 19.1324 21.6797L23.7652 13.6562C23.9709 13.3 24.0792 12.8958 24.0792 12.4844C24.0792 12.073 23.9709 11.6688 23.7652 11.3125L19.1324 3.32031ZM16.4058 12.5C16.4058 13.2726 16.1767 14.0278 15.7475 14.6702C15.3183 15.3126 14.7082 15.8132 13.9944 16.1089C13.2806 16.4046 12.4952 16.4819 11.7375 16.3312C10.9797 16.1805 10.2837 15.8084 9.73742 15.2621C9.19112 14.7158 8.81908 14.0198 8.66836 13.2621C8.51763 12.5043 8.59499 11.7189 8.89065 11.0051C9.1863 10.2914 9.68698 9.6813 10.3294 9.25207C10.9717 8.82285 11.727 8.59375 12.4996 8.59375C13.5356 8.59375 14.5291 9.0053 15.2617 9.73786C15.9943 10.4704 16.4058 11.464 16.4058 12.5Z" fill="white"/>
</svg>
