<svg width="29" height="29" viewBox="0 0 29 29" fill="none" xmlns="http://www.w3.org/2000/svg">
<path d="M26.0711 7.30795C25.2011 7.68495 24.3021 7.94595 23.3451 8.06195C24.3311 7.48195 25.0851 6.55395 25.4331 5.42295C24.5051 5.97395 23.4901 6.35095 22.4171 6.58295C21.5471 5.65495 20.3001 5.07495 18.9371 5.07495C16.2981 5.07495 14.1811 7.22095 14.1811 9.83095C14.1811 10.208 14.2101 10.5559 14.2971 10.9039C10.3531 10.7299 6.8731 8.81595 4.52409 5.94495C2.84209 8.96095 4.7271 11.455 5.9741 12.296C5.2201 12.296 4.46609 12.064 3.82809 11.716C3.82809 14.065 5.4811 16.0079 7.6271 16.4429C7.1631 16.5879 6.1191 16.6749 5.4811 16.5299C6.0901 18.4149 7.8591 19.8069 9.9181 19.8359C8.2941 21.1119 5.9161 22.1269 2.87109 21.8079C4.9881 23.1709 7.4821 23.9539 10.1791 23.9539C18.9371 23.9539 23.6931 16.7039 23.6931 10.44C23.6931 10.237 23.6931 10.034 23.6641 9.83095C24.6501 9.10595 25.4621 8.26495 26.0711 7.30795V7.30795Z" fill="#1C1C1D"/>
</svg>
