<svg width="21" height="21" viewBox="0 0 21 21" fill="none" xmlns="http://www.w3.org/2000/svg">
<path d="M0 2.85297C0 1.44519 1.14123 0.303955 2.54902 0.303955H17.8431C19.2509 0.303955 20.3922 1.44519 20.3922 2.85297V18.1471C20.3922 19.5549 19.2509 20.6961 17.8431 20.6961H2.54902C1.14123 20.6961 0 19.5549 0 18.1471V2.85297Z" fill="#3462D7"/>
<path d="M16.095 6.83346C15.6515 7.02566 15.1932 7.15872 14.7053 7.21785C15.208 6.92217 15.5924 6.44907 15.7698 5.87248C15.2967 6.15338 14.7792 6.34558 14.2322 6.46385C13.7887 5.99075 13.153 5.69507 12.4581 5.69507C11.1127 5.69507 10.0335 6.78911 10.0335 8.1197C10.0335 8.31189 10.0482 8.4893 10.0926 8.66671C8.08193 8.57801 6.30781 7.60224 5.11028 6.1386C4.25279 7.67617 5.21377 8.94762 5.8495 9.37636C5.46511 9.37636 5.08072 9.25809 4.75546 9.08068C4.75546 10.2782 5.59817 11.2688 6.69221 11.4905C6.45566 11.5644 5.92342 11.6088 5.59817 11.5349C5.90864 12.4959 6.81048 13.2055 7.86017 13.2203C7.03225 13.8708 5.81993 14.3882 4.26758 14.2256C5.34683 14.9205 6.61828 15.3197 7.99323 15.3197C12.4581 15.3197 14.8827 11.6236 14.8827 8.43017C14.8827 8.32668 14.8827 8.22319 14.8679 8.1197C15.3706 7.75009 15.7846 7.32134 16.095 6.83346Z" fill="white"/>
</svg>
