<svg width="25" height="25" viewBox="0 0 25 25" fill="none" xmlns="http://www.w3.org/2000/svg">
<path d="M12.5 0C5.60747 0 0 5.60747 0 12.5C0 19.3925 5.60747 25 12.5 25C19.3925 25 25 19.3925 25 12.5C25 5.60747 19.3925 0 12.5 0ZM12.5 23.5352C9.68535 23.5352 7.11396 22.4754 5.16245 20.7346C7.18574 18.9267 9.76367 17.9395 12.5 17.9395C15.2363 17.9395 17.8143 18.9267 19.8375 20.7346C17.886 22.4754 15.3146 23.5352 12.5 23.5352ZM20.8647 19.6896C17.5902 16.7324 13.9549 16.4746 12.5 16.4746C11.0408 16.4746 7.40898 16.7338 4.13525 19.6896C2.47183 17.757 1.46484 15.2439 1.46484 12.5C1.46484 6.41519 6.41519 1.46484 12.5 1.46484C18.5848 1.46484 23.5352 6.41519 23.5352 12.5C23.5352 15.244 22.5282 17.757 20.8647 19.6896Z" fill="black"/>
<path d="M12.4999 3.92261C9.92939 3.92261 7.84497 6.00244 7.84497 8.57759V10.1466C7.84497 12.7171 9.9248 14.8016 12.4999 14.8016C15.0704 14.8016 17.1548 12.7217 17.1548 10.1466V8.57759C17.1548 6.00664 15.0747 3.92261 12.4999 3.92261V3.92261ZM15.69 10.1466C15.69 11.9085 14.2644 13.3367 12.4999 13.3367C10.7668 13.3367 9.30981 11.9361 9.30981 10.1466V8.57759C9.30981 6.78799 10.7669 5.38745 12.4999 5.38745C14.2616 5.38745 15.69 6.81284 15.69 8.57759V10.1466Z" fill="black"/>
</svg>
