<svg width="20" height="20" viewBox="0 0 20 20" fill="none" xmlns="http://www.w3.org/2000/svg">
<path d="M17.7125 11.6626C17.994 11.4756 18.2323 11.2304 18.4113 10.9437C18.5902 10.6569 18.7057 10.3352 18.75 10.0001C18.7057 9.66502 18.5902 9.34328 18.4113 9.05653C18.2323 8.76978 17.994 8.52465 17.7125 8.33761C17.4878 8.15259 17.2937 7.93322 17.1375 7.68761C17.1046 7.37653 17.1344 7.06202 17.225 6.76261C17.3344 6.45094 17.3776 6.11986 17.3518 5.79054C17.326 5.46122 17.2317 5.14092 17.075 4.85012C16.8436 4.61188 16.5653 4.42439 16.2575 4.29958C15.9498 4.17476 15.6194 4.11535 15.2875 4.12512C14.9874 4.1117 14.6917 4.04833 14.4125 3.93762C14.2158 3.70937 14.0632 3.44658 13.9625 3.16262C13.869 2.8396 13.7082 2.54004 13.4906 2.28366C13.2729 2.02728 13.0035 1.81988 12.7 1.67512C12.3793 1.61778 12.0501 1.62819 11.7336 1.70569C11.4172 1.78319 11.1204 1.92606 10.8625 2.12512C10.601 2.30305 10.3085 2.43026 10 2.50012C9.69154 2.43026 9.39896 2.30305 9.1375 2.12512C8.87992 1.92542 8.5832 1.78215 8.26662 1.70463C7.95005 1.6271 7.62071 1.61704 7.3 1.67512C6.99648 1.81988 6.72705 2.02728 6.50945 2.28366C6.29185 2.54004 6.131 2.8396 6.0375 3.16262C5.93678 3.44658 5.78419 3.70937 5.5875 3.93762C5.30829 4.04833 5.01256 4.1117 4.7125 4.12512C4.38056 4.11535 4.05022 4.17476 3.74248 4.29958C3.43475 4.42439 3.15635 4.61188 2.925 4.85012C2.76831 5.14092 2.67403 5.46122 2.64821 5.79054C2.62238 6.11986 2.66556 6.45094 2.775 6.76261C2.86561 7.06202 2.89536 7.37653 2.8625 7.68761C2.70628 7.93322 2.51221 8.15259 2.2875 8.33761C2.00595 8.52465 1.7677 8.76978 1.58875 9.05653C1.40979 9.34328 1.29429 9.66502 1.25 10.0001C1.29429 10.3352 1.40979 10.6569 1.58875 10.9437C1.7677 11.2304 2.00595 11.4756 2.2875 11.6626C2.51221 11.8476 2.70628 12.067 2.8625 12.3126C2.89536 12.6237 2.86561 12.9382 2.775 13.2376C2.66556 13.5493 2.62238 13.8804 2.64821 14.2097C2.67403 14.539 2.76831 14.8593 2.925 15.1501C3.15635 15.3883 3.43475 15.5758 3.74248 15.7007C4.05022 15.8255 4.38056 15.8849 4.7125 15.8751C5.01256 15.8885 5.30829 15.9519 5.5875 16.0626C5.78419 16.2909 5.93678 16.5536 6.0375 16.8376C6.131 17.1606 6.29185 17.4602 6.50945 17.7166C6.72705 17.9729 6.99648 18.1803 7.3 18.3251C7.62073 18.3825 7.9499 18.372 8.26636 18.2945C8.58282 18.217 8.87956 18.0742 9.1375 17.8751C9.39896 17.6972 9.69154 17.57 10 17.5001C10.3085 17.57 10.601 17.6972 10.8625 17.8751C11.2891 18.1586 11.7781 18.3344 12.2875 18.3876C12.4276 18.3914 12.5673 18.3702 12.7 18.3251C13.0035 18.1803 13.2729 17.9729 13.4906 17.7166C13.7082 17.4602 13.869 17.1606 13.9625 16.8376C14.0632 16.5536 14.2158 16.2909 14.4125 16.0626C14.6917 15.9519 14.9874 15.8885 15.2875 15.8751C15.6194 15.8849 15.9498 15.8255 16.2575 15.7007C16.5653 15.5758 16.8436 15.3883 17.075 15.1501C17.2317 14.8593 17.326 14.539 17.3518 14.2097C17.3776 13.8804 17.3344 13.5493 17.225 13.2376C17.1344 12.9382 17.1046 12.6237 17.1375 12.3126C17.2937 12.067 17.4878 11.8476 17.7125 11.6626V11.6626ZM12.9375 8.77511L9.6125 12.1126C9.49211 12.2251 9.3335 12.2877 9.16875 12.2877C9.004 12.2877 8.84539 12.2251 8.725 12.1126L7.0625 10.4376C6.9484 10.3212 6.88485 10.1644 6.88568 10.0014C6.8865 9.83839 6.95162 9.68228 7.0669 9.56701C7.18217 9.45174 7.33828 9.38661 7.50129 9.38579C7.66431 9.38497 7.82107 9.44851 7.9375 9.56261L9.1625 10.7876L12.0625 7.88761C12.1795 7.77342 12.3365 7.7095 12.5 7.7095C12.6635 7.7095 12.8205 7.77342 12.9375 7.88761C12.9968 7.94529 13.044 8.01428 13.0762 8.0905C13.1084 8.16672 13.125 8.24862 13.125 8.33136C13.125 8.41411 13.1084 8.49601 13.0762 8.57223C13.044 8.64845 12.9968 8.71744 12.9375 8.77511V8.77511Z" fill="black"/>
</svg>
