<svg width="25" height="25" viewBox="0 0 25 25" fill="none" xmlns="http://www.w3.org/2000/svg">
<path d="M12.5011 16.3509C14.6268 16.3509 16.3499 14.6277 16.3499 12.5021C16.3499 10.3765 14.6268 8.65332 12.5011 8.65332C10.3755 8.65332 8.65234 10.3765 8.65234 12.5021C8.65234 14.6277 10.3755 16.3509 12.5011 16.3509Z" fill="black"/>
<path d="M24.6165 11.4363C21.6581 7.86123 17.1798 4.41992 12.5 4.41992C7.81943 4.41992 3.34006 7.86363 0.383557 11.4363C-0.127852 12.054 -0.127852 12.9508 0.383557 13.5685C1.12686 14.4667 2.68514 16.2006 4.76637 17.7156C10.0079 21.5313 14.9806 21.5397 20.2337 17.7156C22.315 16.2006 23.8732 14.4667 24.6165 13.5685C25.1265 12.952 25.1291 12.056 24.6165 11.4363ZM12.5 7.11408C15.4713 7.11408 17.8884 9.53112 17.8884 12.5024C17.8884 15.4737 15.4713 17.8907 12.5 17.8907C9.52878 17.8907 7.11173 15.4737 7.11173 12.5024C7.11173 9.53112 9.52878 7.11408 12.5 7.11408Z" fill="black"/>
</svg>
