<svg width="60" height="60" viewBox="0 0 60 60" fill="none" xmlns="http://www.w3.org/2000/svg">
<rect width="60" height="60" rx="10" fill="url(#paint0_linear_505_14056)"/>
<path d="M15.9473 42.5H41.9043C42.9785 42.5 43.8515 41.5751 43.8515 40.437V35.7815H34.5339C33.8361 35.7815 33.1546 35.6372 32.5152 35.3483C31.8986 35.0732 31.3436 34.6744 30.8698 34.1724C30.3959 33.6704 30.0195 33.0825 29.7598 32.4292C29.4905 31.7518 29.3509 31.0298 29.3509 30.2905V29.7095C29.3509 28.9702 29.4872 28.2482 29.7598 27.5708C30.0195 26.9176 30.396 26.3296 30.8698 25.8276C31.3436 25.3256 31.8986 24.9268 32.5152 24.6517C33.1546 24.3663 33.8361 24.2185 34.5339 24.2185H43.8515V19.563C43.8515 18.4249 42.9785 17.5 41.9043 17.5H15.9473C14.873 17.5 14 18.4249 14 19.563V40.437C14 41.5751 14.873 42.5 15.9473 42.5Z" fill="#D58CEF"/>
<path d="M45.9999 27.8287C45.9999 26.9725 45.3476 26.2814 44.5395 26.2814H43.8514H34.5338C32.7455 26.2814 31.2981 27.8149 31.2981 29.7094V30.2905C31.2981 32.185 32.7456 33.7185 34.5338 33.7185H43.8514H44.5395C45.3476 33.7185 45.9999 33.0274 45.9999 32.1712V27.8287ZM35.0628 31.8206C34.1119 31.8206 33.3427 31.0057 33.3427 29.9983C33.3427 28.9908 34.1119 28.1759 35.0628 28.1759C36.0137 28.1759 36.7829 28.9908 36.7829 29.9983C36.7829 31.0057 36.0137 31.8206 35.0628 31.8206Z" fill="#D58CEF"/>
<defs>
<linearGradient id="paint0_linear_505_14056" x1="60" y1="59.9999" x2="0" y2="59.9999" gradientUnits="userSpaceOnUse">
<stop stop-color="#DFCBF1"/>
<stop offset="0.588542" stop-color="#E0DDEE"/>
<stop offset="1" stop-color="#E1E4ED"/>
</linearGradient>
</defs>
</svg>
