<svg width="29" height="29" viewBox="0 0 29 29" fill="none" xmlns="http://www.w3.org/2000/svg">
<path d="M27.438 8.98349C27.3048 7.87238 26.2577 6.80693 25.1621 6.6642C18.4814 5.8341 11.7258 5.8341 5.04727 6.6642C3.95078 6.80662 2.90367 7.87238 2.77048 8.98349C2.29884 13.0556 2.29884 17.004 2.77048 21.0752C2.90367 22.1863 3.95078 23.2528 5.04727 23.3945C11.7258 24.2246 18.4817 24.2246 25.1621 23.3945C26.2577 23.253 27.3048 22.1863 27.438 21.0752C27.9097 17.0044 27.9097 13.0556 27.438 8.98349ZM12.9895 19.2593L12.9895 10.8007L19.3334 15.0302L12.9895 19.2593Z" fill="#1C1C1D"/>
</svg>
