<svg width="27" height="27" viewBox="0 0 27 27" fill="none" xmlns="http://www.w3.org/2000/svg">
<rect width="27" height="27" rx="13.5" fill="#F52121"/>
<path d="M20.192 10.6467C20.1231 10.0719 19.5815 9.52085 19.0148 9.44702C15.5593 9.01766 12.065 9.01766 8.61061 9.44702C8.04347 9.52069 7.50186 10.0719 7.43296 10.6467C7.18901 12.7529 7.18901 14.7952 7.43296 16.901C7.50186 17.4757 8.04347 18.0273 8.61061 18.1006C12.065 18.53 15.5594 18.53 19.0148 18.1006C19.5815 18.0275 20.1231 17.4757 20.192 16.901C20.436 14.7954 20.436 12.7529 20.192 10.6467ZM12.7187 15.9617V11.5866L16 13.7742L12.7187 15.9617Z" fill="white"/>
</svg>
