<svg id="Layer_2_copy" data-name="Layer 2 copy" xmlns="http://www.w3.org/2000/svg" xmlns:xlink="http://www.w3.org/1999/xlink" viewBox="0 0 443.68 449.04"><defs><style>.cls-1{fill:url(#linear-gradient);}.cls-2{fill:url(#linear-gradient-2);}.cls-3{fill:url(#linear-gradient-3);}.cls-4{fill:url(#linear-gradient-4);}.cls-5{fill:#e545d9;}.cls-6{fill:url(#linear-gradient-5);}.cls-7{fill:url(#linear-gradient-6);}.cls-8{fill:url(#linear-gradient-7);}.cls-9{fill:url(#linear-gradient-8);}.cls-10{fill:url(#linear-gradient-9);}.cls-11{fill:url(#linear-gradient-10);}.cls-12{fill:url(#linear-gradient-11);}.cls-13{fill:url(#linear-gradient-12);}</style><linearGradient id="linear-gradient" x1="240.95" y1="183.4" x2="-2.82" y2="215.73" gradientUnits="userSpaceOnUse"><stop offset="0" stop-color="#9b3790"/><stop offset="0.27" stop-color="#903299"/><stop offset="0.73" stop-color="#7426b1"/><stop offset="1" stop-color="#611ec1"/></linearGradient><linearGradient id="linear-gradient-2" x1="220.84" y1="235.1" x2="273.57" y2="-6.43" xlink:href="#linear-gradient"/><linearGradient id="linear-gradient-3" x1="196.25" y1="256.87" x2="443.68" y2="256.87" xlink:href="#linear-gradient"/><linearGradient id="linear-gradient-4" x1="197.54" y1="207.97" x2="193.66" y2="430.65" xlink:href="#linear-gradient"/><linearGradient id="linear-gradient-5" x1="206.45" y1="204.31" x2="130.28" y2="254.97" gradientUnits="userSpaceOnUse"><stop offset="0.01" stop-color="#ff99fa"/><stop offset="0.17" stop-color="#fa94f5"/><stop offset="0.37" stop-color="#eb85e5"/><stop offset="0.6" stop-color="#d36ccb"/><stop offset="0.84" stop-color="#b14aa7"/><stop offset="1" stop-color="#97308c"/></linearGradient><linearGradient id="linear-gradient-6" x1="243.79" y1="212.84" x2="199.69" y2="133.92" gradientUnits="userSpaceOnUse"><stop offset="0" stop-color="#ff99fa"/><stop offset="0.16" stop-color="#fa94f5"/><stop offset="0.37" stop-color="#eb85e5"/><stop offset="0.6" stop-color="#d36ccb"/><stop offset="0.84" stop-color="#b14aa7"/><stop offset="1" stop-color="#97308c"/></linearGradient><linearGradient id="linear-gradient-7" x1="239.53" y1="247.05" x2="321.06" y2="199.31" xlink:href="#linear-gradient-5"/><linearGradient id="linear-gradient-8" x1="194.13" y1="243.01" x2="244.42" y2="319.44" xlink:href="#linear-gradient-5"/><linearGradient id="linear-gradient-9" x1="191.56" y1="195.26" x2="43.88" y2="261.96" gradientUnits="userSpaceOnUse"><stop offset="0.01" stop-color="#7143ef"/><stop offset="0.17" stop-color="#6e41ea"/><stop offset="0.34" stop-color="#653add"/><stop offset="0.53" stop-color="#562fc6"/><stop offset="0.73" stop-color="#4220a7"/><stop offset="0.78" stop-color="#3b1b9c"/></linearGradient><linearGradient id="linear-gradient-10" x1="262" y1="195.64" x2="198.15" y2="36.29" xlink:href="#linear-gradient-9"/><linearGradient id="linear-gradient-11" x1="254.02" y1="248.42" x2="408.02" y2="206.99" xlink:href="#linear-gradient-9"/><linearGradient id="linear-gradient-12" x1="188.04" y1="260.81" x2="246.31" y2="399.69" xlink:href="#linear-gradient-9"/></defs><path class="cls-1" d="M0,243.8l58-65s129.47-41,187.9,35.9C189.37,155.54,0,243.8,0,243.8Z"/><path class="cls-2" d="M222,0,283.3,61.84s33.1,131.73-47.24,185.37C298.54,194.38,222,0,222,0Z"/><path class="cls-3" d="M443.68,223.89l-62.92,60.25s-132.3,30.75-184.51-50.53C248,297,443.68,223.89,443.68,223.89Z"/><path class="cls-4" d="M230.46,449,167.25,389.1s-37.11-130.65,41.56-186.72C148,257.09,230.46,449,230.46,449Z"/><path class="cls-5" d="M76.69,154.25l22.65-26.68s86.41-17.65,142.44,74.63C181.18,126.8,76.69,154.25,76.69,154.25Z"/><path class="cls-5" d="M304.43,83.25l25.3,24.18s12.54,87.3-82.88,137.8C325.69,189.17,304.43,83.25,304.43,83.25Z"/><path class="cls-5" d="M360.59,302.15l-24.38,25.1s-87.4,11.83-137.13-84C254.49,322.55,360.59,302.15,360.59,302.15Z"/><path class="cls-5" d="M146.52,368.94l-26-23.47s-15-86.92,79-140.06C122.34,263.64,146.52,368.94,146.52,368.94Z"/><path class="cls-6" d="M123.15,281.81l-6.94-35.21S153.14,206,207.69,199C132.88,225.81,123.15,281.81,123.15,281.81Z"/><path class="cls-7" d="M174.11,126.64l35.57-4.73s38.2,39.39,41.81,94.28C229.39,139.85,174.11,126.64,174.11,126.64Z"/><path class="cls-8" d="M330.73,172.6l4.57,35.6s-39.57,38-94.47,41.37C317.27,227.82,330.73,172.6,330.73,172.6Z"/><path class="cls-9" d="M270.66,328.36l-35.59,4.57s-38-39.56-41.4-94.46C215.44,314.91,270.66,328.36,270.66,328.36Z"/><path class="cls-10" d="M39.31,255s40.13-45.71,154.75-57.29c-93.51,23.7-110.71,64.79-110.71,64.79Z"/><path class="cls-11" d="M212.11,42.38s41.48,44.5,41.55,159.7c-14.24-95.4-53.4-116.62-53.4-116.62Z"/><path class="cls-12" d="M407.86,212.11s-44.28,41.71-159.48,42.37c95.33-14.74,116.35-54,116.35-54Z"/><path class="cls-13" d="M242.6,412.7s-44.45-41.53-52.47-156.45c20.8,94.19,61.33,112.66,61.33,112.66Z"/></svg>